<?xml version="1.0" encoding="UTF-8"?>
<svg id="Layer_2" xmlns="http://www.w3.org/2000/svg" version="1.1" viewBox="0 0 1256.2 173.2">
  <!-- Generator: Adobe Illustrator 29.5.1, SVG Export Plug-In . SVG Version: 2.1.0 Build 141)  -->
  <defs>
    <style>
      .st0 {
        fill: #fff;
        stroke: #fff;
        stroke-miterlimit: 10;
      }
    </style>
  </defs>
  <g id="Layer_1-2">
    <g>
      <g>
        <path class="st0" d="M23.7,101.8c3.2,0,6,.5,8.2,1.4,2.3.9,4.1,2.2,5.5,3.7,1.4,1.5,2.5,3.3,3.1,5.3.7,2,1,4,1,6.1s-.3,4.1-1,6.1-1.7,3.8-3.1,5.3c-1.4,1.5-3.2,2.8-5.5,3.7s-5,1.4-8.2,1.4h-11.9v18.4H.5v-51.4h23.2ZM20.6,126c1.3,0,2.5,0,3.7-.3,1.2-.2,2.3-.6,3.2-1.1.9-.6,1.6-1.3,2.2-2.3.5-1,.8-2.3.8-4s-.3-2.9-.8-4-1.3-1.8-2.2-2.3c-.9-.6-2-.9-3.2-1.1-1.2-.2-2.5-.3-3.7-.3h-8.8v15.4h8.8Z"/>
        <path class="st0" d="M47,127.4c.1-2.4.7-4.4,1.8-6,1.1-1.6,2.4-2.9,4-3.8,1.6-1,3.5-1.6,5.5-2.1s4.1-.6,6.2-.6,3.8.1,5.7.4c1.9.3,3.7.8,5.3,1.6,1.6.8,2.9,1.8,3.9,3.2,1,1.4,1.5,3.2,1.5,5.4v19.4c0,1.7,0,3.3.3,4.8.2,1.5.5,2.7,1,3.5h-10.4c-.2-.6-.3-1.2-.5-1.8-.1-.6-.2-1.2-.2-1.8-1.6,1.7-3.6,2.9-5.8,3.5s-4.5,1-6.8,1-3.4-.2-5-.6-2.9-1.1-4-2c-1.2-.9-2-2.1-2.7-3.5-.7-1.4-1-3.1-1-5s.4-3.9,1.1-5.2c.7-1.4,1.7-2.5,2.9-3.3,1.2-.8,2.5-1.4,4-1.8s3-.7,4.6-1c1.5-.2,3-.4,4.5-.6,1.5-.1,2.8-.4,4-.6s2.1-.7,2.7-1.3c.7-.6,1-1.4.9-2.4,0-1.1-.2-2-.5-2.6-.4-.7-.8-1.2-1.4-1.5-.6-.4-1.3-.6-2.1-.7-.8-.1-1.6-.2-2.6-.2-2,0-3.6.4-4.8,1.3-1.2.9-1.8,2.3-2,4.3h-10.2ZM70.6,135c-.4.4-1,.7-1.6.9s-1.3.4-2.1.5c-.7.1-1.5.3-2.3.4s-1.6.2-2.5.4c-.8.1-1.5.3-2.3.6-.7.2-1.4.6-1.9,1s-1,.9-1.3,1.6c-.3.6-.5,1.4-.5,2.4s.2,1.7.5,2.3c.3.6.8,1.1,1.4,1.5.6.4,1.2.6,2,.8.8.1,1.6.2,2.4.2,2,0,3.6-.3,4.7-1,1.1-.7,1.9-1.5,2.4-2.4.5-.9.8-1.9,1-2.8.1-1,.2-1.7.2-2.3v-3.8h0Z"/>
        <path class="st0" d="M114,153.2v-5.2h-.2c-1.3,2.2-3,3.7-5,4.7-2.1,1-4.2,1.4-6.3,1.4s-5-.4-6.7-1.1-3.1-1.7-4.1-3.1c-1-1.3-1.7-2.9-2.1-4.8-.4-1.9-.6-4-.6-6.3v-22.9h10.2v21c0,3.1.5,5.4,1.4,6.9,1,1.5,2.7,2.3,5.1,2.3s4.8-.8,6.1-2.5c1.2-1.7,1.9-4.4,1.9-8.2v-19.5h10.2v37.2h-9.7,0Z"/>
        <path class="st0" d="M142,101.8v51.4h-10.2v-51.4s10.2,0,10.2,0Z"/>
        <path class="st0" d="M167.1,111.3v-9.5h42.1v9.5h-15.4v41.9h-11.3v-41.9h-15.4,0Z"/>
        <path class="st0" d="M224.3,101.8v19.4h.2c1.3-2.2,2.9-3.7,5-4.7,2-1,4-1.5,5.9-1.5,2.7,0,5,.4,6.7,1.1s3.1,1.8,4.1,3.1,1.7,2.9,2.1,4.8c.4,1.9.6,4,.6,6.3v22.9h-10.2v-21c0-3.1-.5-5.4-1.4-6.9-1-1.5-2.7-2.3-5.1-2.3s-4.8.8-6.1,2.5c-1.2,1.7-1.9,4.4-1.9,8.2v19.5h-10.2v-51.4h10.2Z"/>
        <path class="st0" d="M257,126.5c.9-2.4,2.2-4.5,3.9-6.2,1.7-1.7,3.7-3,6-4,2.4-.9,5-1.4,7.9-1.4s5.6.5,8,1.4c2.4.9,4.4,2.3,6.1,4,1.7,1.7,3,3.8,3.9,6.2s1.4,5.1,1.4,8.1-.5,5.7-1.4,8.1c-.9,2.4-2.2,4.4-3.9,6.2-1.7,1.7-3.7,3-6.1,3.9s-5,1.4-8,1.4-5.6-.5-7.9-1.4c-2.4-.9-4.4-2.2-6-3.9s-3-3.8-3.9-6.2c-.9-2.4-1.4-5.1-1.4-8.1s.5-5.7,1.4-8.1ZM266.2,139c.3,1.4.8,2.7,1.5,3.8s1.6,2,2.8,2.7,2.6,1,4.3,1,3.2-.3,4.4-1,2.1-1.6,2.8-2.7c.7-1.1,1.2-2.4,1.5-3.8.3-1.4.4-2.9.4-4.4s-.1-2.9-.4-4.4-.8-2.7-1.5-3.8c-.7-1.1-1.6-2-2.8-2.7s-2.6-1-4.4-1-3.2.3-4.3,1c-1.1.7-2.1,1.6-2.8,2.7-.7,1.1-1.2,2.4-1.5,3.8s-.4,2.9-.4,4.4.1,2.9.4,4.4Z"/>
        <path class="st0" d="M310.7,116v5h.1c1.3-1.9,3-3.4,4.9-4.5,1.9-1.1,4.1-1.6,6.5-1.6s4.5.5,6.4,1.4,3.4,2.5,4.4,4.8c1.1-1.6,2.6-3.1,4.5-4.3s4.1-1.9,6.7-1.9,3.8.2,5.5.7,3.1,1.2,4.3,2.3c1.2,1.1,2.1,2.4,2.8,4.1.7,1.7,1,3.8,1,6.2v24.9h-10.2v-21.1c0-1.2,0-2.4-.1-3.5-.1-1.1-.4-2.1-.8-2.9-.4-.8-1.1-1.5-1.9-1.9s-2-.7-3.4-.7-2.6.3-3.5.8c-.9.6-1.6,1.3-2.1,2.2-.5.9-.8,1.9-1,3-.2,1.1-.2,2.3-.2,3.4v20.7h-10.2v-20.9c0-1.1,0-2.2,0-3.3,0-1.1-.2-2.1-.6-3-.4-.9-1-1.6-1.8-2.2-.8-.6-2.1-.8-3.7-.8s-1.1.1-1.9.3-1.6.6-2.3,1.2-1.4,1.5-1.9,2.6c-.5,1.1-.8,2.6-.8,4.4v21.6h-10.2v-37.2h9.6,0Z"/>
        <path class="st0" d="M365.5,127.4c.1-2.4.7-4.4,1.8-6,1.1-1.6,2.4-2.9,4-3.8s3.5-1.6,5.5-2.1,4.1-.6,6.2-.6,3.8.1,5.7.4c1.9.3,3.7.8,5.3,1.6,1.6.8,2.9,1.8,3.9,3.2,1,1.4,1.5,3.2,1.5,5.4v19.4c0,1.7.1,3.3.3,4.8.2,1.5.5,2.7,1,3.5h-10.4c-.2-.6-.4-1.2-.5-1.8-.1-.6-.2-1.2-.2-1.8-1.6,1.7-3.5,2.9-5.8,3.5-2.2.7-4.5,1-6.8,1s-3.4-.2-5-.6-2.9-1.1-4-2c-1.1-.9-2-2.1-2.7-3.5-.6-1.4-1-3.1-1-5s.4-3.9,1.1-5.2c.7-1.4,1.7-2.5,2.9-3.3,1.2-.8,2.5-1.4,4-1.8s3-.7,4.6-1c1.5-.2,3-.4,4.5-.6,1.5-.1,2.8-.4,4-.6s2.1-.7,2.7-1.3c.7-.6,1-1.4.9-2.4,0-1.1-.2-2-.5-2.6-.4-.7-.8-1.2-1.4-1.5s-1.3-.6-2.1-.7-1.6-.2-2.6-.2c-2,0-3.6.4-4.8,1.3-1.1.9-1.8,2.3-2,4.3h-10.2ZM389.1,135c-.4.4-1,.7-1.6.9s-1.3.4-2.1.5c-.7.1-1.5.3-2.3.4s-1.6.2-2.5.4c-.8.1-1.5.3-2.3.6-.7.2-1.4.6-1.9,1s-1,.9-1.3,1.6c-.3.6-.5,1.4-.5,2.4s.2,1.7.5,2.3c.3.6.8,1.1,1.4,1.5s1.2.6,2,.8c.8.1,1.6.2,2.4.2,2,0,3.6-.3,4.7-1,1.1-.7,1.9-1.5,2.5-2.4.5-.9.9-1.9,1-2.8.1-1,.2-1.7.2-2.3v-3.8h0Z"/>
        <path class="st0" d="M415.9,143.9c.5.8,1,1.4,1.8,1.9s1.5.9,2.5,1.1c.9.2,1.9.4,2.9.4s1.5,0,2.3-.2c.8-.2,1.5-.4,2.2-.8s1.2-.8,1.6-1.4.6-1.4.6-2.3c0-1.5-1-2.7-3.1-3.5s-4.9-1.5-8.5-2.3c-1.5-.3-2.9-.7-4.4-1.2-1.4-.5-2.7-1.1-3.8-1.8-1.1-.7-2-1.7-2.7-2.8s-1-2.5-1-4.1c0-2.4.5-4.4,1.4-5.9s2.2-2.8,3.7-3.6c1.5-.9,3.3-1.5,5.2-1.9,1.9-.4,3.9-.5,5.9-.5s4,.2,5.9.6c1.9.4,3.6,1,5.1,1.9s2.7,2.1,3.7,3.6c1,1.5,1.6,3.4,1.8,5.7h-9.7c-.1-2-.9-3.3-2.2-4s-2.9-1-4.8-1-1.2,0-1.9.1c-.7,0-1.3.2-1.8.5s-1,.6-1.4,1c-.4.5-.6,1.1-.6,1.8s.3,1.7,1,2.2c.7.6,1.5,1,2.6,1.4s2.3.7,3.7,1c1.4.3,2.8.6,4.2.9,1.5.3,2.9.7,4.4,1.2,1.4.5,2.7,1.1,3.8,1.9,1.1.8,2,1.8,2.7,2.9.7,1.2,1,2.6,1,4.4,0,2.4-.5,4.5-1.5,6.2-1,1.7-2.3,3-3.9,4s-3.4,1.7-5.4,2.1c-2,.4-4.1.6-6.2.6s-4.3-.2-6.3-.6c-2.1-.4-3.9-1.1-5.5-2.2-1.6-1-2.9-2.3-4-4s-1.6-3.7-1.7-6.2h9.7c0,1.1.2,2.1.7,2.8h0Z"/>
        <path class="st0" d="M492.7,101.8l19.2,51.4h-11.7l-3.9-11.4h-19.2l-4,11.4h-11.4l19.4-51.4h11.6ZM493.3,133.3l-6.5-18.9h-.1l-6.7,18.9h13.3Z"/>
        <path class="st0" d="M525,116v5.2h.2c1.3-2.2,3-3.7,5-4.7,2.1-1,4.2-1.5,6.3-1.5s5,.4,6.7,1.1,3.1,1.8,4.1,3.1,1.7,2.9,2.1,4.8c.4,1.9.6,4,.6,6.3v22.9h-10.2v-21c0-3.1-.5-5.4-1.4-6.9-1-1.5-2.7-2.3-5.1-2.3s-4.8.8-6,2.5c-1.2,1.7-1.9,4.4-1.9,8.2v19.5h-10.2v-37.2h9.7,0Z"/>
        <path class="st0" d="M584.4,148.4c-1.2,2-2.8,3.5-4.7,4.4-1.9.9-4.1,1.3-6.6,1.3s-5.2-.5-7.3-1.6c-2.1-1.1-3.8-2.5-5.2-4.4s-2.4-4-3.1-6.4c-.7-2.4-1-4.9-1-7.5s.3-4.9,1-7.2c.7-2.3,1.7-4.4,3.1-6.2,1.4-1.8,3.1-3.2,5.2-4.3,2.1-1.1,4.5-1.6,7.2-1.6s4.3.5,6.3,1.4c2,.9,3.6,2.3,4.7,4.1h.1v-18.7h10.2v51.4h-9.7v-4.8h-.1ZM584,130.1c-.3-1.4-.8-2.7-1.5-3.7-.7-1.1-1.6-2-2.7-2.6-1.1-.7-2.5-1-4.2-1s-3.1.3-4.2,1c-1.2.7-2.1,1.6-2.8,2.7-.7,1.1-1.2,2.4-1.5,3.8s-.5,2.9-.5,4.4.2,2.9.5,4.3.9,2.7,1.6,3.9c.7,1.1,1.7,2,2.8,2.7,1.1.7,2.5,1,4.1,1s3.1-.3,4.2-1,2-1.6,2.7-2.7c.7-1.1,1.2-2.4,1.4-3.9s.4-2.9.4-4.5-.1-3-.4-4.4h0Z"/>
        <path class="st0" d="M612.9,144.3c1.5,1.5,3.7,2.2,6.6,2.2s3.8-.5,5.3-1.6,2.4-2.1,2.7-3.3h9c-1.4,4.5-3.7,7.7-6.6,9.6s-6.6,2.9-10.8,2.9-5.6-.5-7.9-1.4-4.3-2.3-6-4c-1.6-1.7-2.9-3.8-3.8-6.2-.9-2.4-1.3-5-1.3-7.9s.5-5.4,1.4-7.8c.9-2.4,2.2-4.5,3.9-6.2s3.7-3.1,6-4.1,4.9-1.5,7.7-1.5,5.9.6,8.3,1.8c2.3,1.2,4.3,2.9,5.8,4.9,1.5,2.1,2.6,4.4,3.3,7.1.7,2.6.9,5.4.7,8.3h-26.9c.1,3.3,1,5.7,2.5,7.2h0ZM624.5,124.7c-1.2-1.3-3.1-2-5.6-2s-3,.3-4.1.8-1.9,1.2-2.6,2.1-1.1,1.7-1.4,2.6c-.3.9-.4,1.7-.5,2.4h16.6c-.5-2.6-1.3-4.6-2.6-5.9h0Z"/>
        <path class="st0" d="M653,116v6.9h.1c.5-1.2,1.1-2.2,1.9-3.2.8-1,1.8-1.8,2.8-2.5s2.2-1.2,3.4-1.6c1.2-.4,2.5-.6,3.7-.6s1.4.1,2.2.4v9.5c-.5,0-1.1-.2-1.7-.2s-1.3-.1-1.9-.1c-1.9,0-3.5.3-4.8.9-1.3.6-2.3,1.5-3.1,2.6-.8,1.1-1.4,2.3-1.7,3.8-.3,1.4-.5,3-.5,4.7v16.8h-10.2v-37.2h9.7Z"/>
        <path class="st0" d="M679.9,143.9c.5.8,1,1.4,1.8,1.9s1.5.9,2.5,1.1c.9.2,1.9.4,2.9.4s1.5,0,2.3-.2c.8-.2,1.5-.4,2.2-.8.7-.4,1.2-.8,1.6-1.4s.7-1.4.7-2.3c0-1.5-1-2.7-3.1-3.5s-4.9-1.5-8.5-2.3c-1.5-.3-2.9-.7-4.4-1.2s-2.7-1.1-3.8-1.8c-1.1-.7-2-1.7-2.7-2.8s-1-2.5-1-4.1c0-2.4.5-4.4,1.4-5.9.9-1.5,2.2-2.8,3.7-3.6,1.5-.9,3.3-1.5,5.2-1.9s3.9-.5,5.9-.5,4,.2,5.9.6,3.6,1,5.1,1.9,2.7,2.1,3.7,3.6c1,1.5,1.6,3.4,1.8,5.7h-9.7c-.1-2-.9-3.3-2.2-4-1.3-.7-2.9-1-4.8-1s-1.2,0-1.9.1-1.3.2-1.8.5c-.5.2-1,.6-1.4,1-.4.5-.6,1.1-.6,1.8s.3,1.7,1,2.2c.7.6,1.5,1,2.6,1.4s2.3.7,3.7,1,2.8.6,4.2.9c1.5.3,2.9.7,4.4,1.2s2.7,1.1,3.8,1.9c1.1.8,2,1.8,2.7,2.9.7,1.2,1,2.6,1,4.4,0,2.4-.5,4.5-1.5,6.2-1,1.7-2.3,3-3.8,4s-3.4,1.7-5.4,2.1-4.1.6-6.2.6-4.3-.2-6.3-.6c-2.1-.4-3.9-1.1-5.5-2.2-1.6-1-2.9-2.3-4-4s-1.6-3.7-1.7-6.2h9.7c0,1.1.2,2.1.7,2.8h0Z"/>
        <path class="st0" d="M710.2,126.5c.9-2.4,2.2-4.5,3.9-6.2,1.7-1.7,3.7-3,6-4s5-1.4,7.9-1.4,5.6.5,8,1.4c2.4.9,4.4,2.3,6.1,4,1.7,1.7,3,3.8,3.9,6.2.9,2.4,1.4,5.1,1.4,8.1s-.5,5.7-1.4,8.1c-.9,2.4-2.2,4.4-3.9,6.2-1.7,1.7-3.7,3-6.1,3.9s-5,1.4-8,1.4-5.6-.5-7.9-1.4c-2.3-.9-4.4-2.2-6-3.9s-3-3.8-3.9-6.2c-.9-2.4-1.4-5.1-1.4-8.1s.5-5.7,1.4-8.1ZM719.5,139c.3,1.4.8,2.7,1.5,3.8.7,1.1,1.6,2,2.8,2.7s2.6,1,4.3,1,3.2-.3,4.4-1c1.2-.7,2.1-1.6,2.8-2.7.7-1.1,1.2-2.4,1.5-3.8.3-1.4.4-2.9.4-4.4s-.1-2.9-.4-4.4-.8-2.7-1.5-3.8c-.7-1.1-1.6-2-2.8-2.7s-2.6-1-4.4-1-3.2.3-4.3,1c-1.2.7-2.1,1.6-2.8,2.7-.7,1.1-1.2,2.4-1.5,3.8s-.4,2.9-.4,4.4.1,2.9.4,4.4Z"/>
        <path class="st0" d="M763.7,116v5.2h.2c1.3-2.2,3-3.7,5-4.7,2.1-1,4.2-1.5,6.3-1.5s5,.4,6.7,1.1,3.1,1.8,4.1,3.1,1.7,2.9,2.1,4.8c.4,1.9.6,4,.6,6.3v22.9h-10.2v-21c0-3.1-.5-5.4-1.4-6.9-1-1.5-2.7-2.3-5.1-2.3s-4.8.8-6,2.5c-1.2,1.7-1.9,4.4-1.9,8.2v19.5h-10.2v-37.2h9.7,0Z"/>
      </g>
      <g>
        <path class="st0" d="M827.3,135.2c-.2,0-.5,0-.8-.1-2.4-.9-4.1-2.1-4.5-4.5,0-.3,0-.6,0-.9,0-1.9,1.4-3.2,3.3-3.2s1.8.3,2.8.8c1.4.7,3.7,1.4,3.7,2.7s-.2.9-.7,1.4c-1.3,1.5-2.1,3.8-3.7,3.8h0ZM823.1,147c0-3,2-4.2,3.7-4.2s2.5.4,3.5,1.1c1.2.9,2,2.4,2,3.9s-2.5,3-4.5,3-4.8-.1-4.8-3.9h0Z"/>
        <path class="st0" d="M865.4,149.6c0,1.9-2.9,2.9-5.2,2.9s-3.2-.6-3.2-1.8c0-9.6,1.6-17.9,1.6-27.9s-.3-6.2-.4-9.6h0c0-1,1.6-2.4,3-2.4s1.4.4,1.7,1.2c.6,1.3.7,4.5.7,8.7,0,6.8-.4,16-.4,23.6v.9c0,2.1,2.2,2.4,2.2,4h0v.2Z"/>
        <path class="st0" d="M894.7,154.9c-6-2.7-3.2-12.5-5.4-16.2-.9-1.6-1.6-2.2-2.2-2.2s-.9.4-1.3.9c-2.7,3.4-2.4,7.6-5.6,9.7-.9.6-1.8.9-2.5.9-2.6,0-3.6-3.5-3.6-4.9v-1.2c0-5.2-1.4-9.9-3.5-12.9-.1-.2-.2-.5-.2-.9,0-1.7,2.1-4.2,4.4-4.2s.9,0,1.4.4c2.2,1.2,1.4,6.8,2.6,11.4.3,1.3.9,1.9,1.5,1.9s1.2-.4,1.7-1c2.5-2.4,2.6-3.9,4.1-7.8.3-.6.8-.9,1.5-.9,1.4,0,3.3,1.1,4.1,2.4,3.2,5.1,2.8,19,5.8,20.3,1.3.6,1.9,1.4,1.9,2.2,0,1.3-1.3,2.5-3,2.5s-1.2-.1-1.9-.4h0Z"/>
        <path class="st0" d="M938.7,136.3c-1.7,0-3.4-.1-4.6-.1h0c-1.1,0-2.2.7-2.1,1.8h0c.4,10.3,2.8,10.3,3.2,13.3v.3c0,1.4-1.4,2.6-3,2.6s-1.8-.4-2.6-1.4c-2.7-3.5-1.3-11.7-2.6-14.7-.5-1.1-.4-2.3-1.5-2.8-1.4-.6-2.4-.9-4.1-2.2-.6-.4-.9-1.1-.9-1.9,0-1.3.7-2.6,1.7-2.8.5,0,.9,0,1.4,0s1,0,1.7,0c.9,0,2.1-.7,1.9-1.5-1-6.1-2.2-8.1-2.2-13.4s1-1.9,2.2-1.9c2.1,0,5,1.7,5,3.9s0,.4,0,.7c-.6,2.2-.8,4-.8,5.8s.3,4,.6,6.5c.1,1.2,1,1.9,2.2,1.9,2.3,0,4.1.1,5.6.1,6.2,0,6.3-.7,7.8-1.7.4-.3.8-.4,1.2-.4.9,0,1.5,1,1.5,2.1s-.3,1.7-.9,2.4c-2.8,2.9-6.9,3.4-10.5,3.4h0Z"/>
        <path class="st0" d="M979.8,152.6c-.7-4.5-1.6-6.8-3.5-10.4-1.5-2.9-.9-4.5-2.4-8-.3-.6-.9-1.1-1.7-1.1s-1,.2-1.4.9c-1.2,2.2-3,5.1-5.6,8-2.6,2.8-2.4,5.6-5.2,8.4-.7.6-1.7,1-2.7,1s-2-.4-2.1-1.4c-.4-8.8-2.7-23.8-2.7-35.5s0-4.2.3-6.2c0-1.1.9-1.5,2-1.5,1.8,0,4.1,1.4,4.1,3s0,.4,0,.7c-.6,1.7-.8,6.9-.8,12.7s.2,11,.6,14.8c.1,1.7.9,2.9,1.6,2.9s.4,0,.6-.3c3.9-4.4,5.7-8.9,10.2-14,.9-1.1,1.9-1.7,2.7-1.7s1.7.7,2.5,2.1c2,4,4,13.9,8.4,22,.3.6.4,1.1.4,1.5,0,2-2.2,3.2-3.8,3.2s-1.4-.3-1.6-1h0Z"/>
        <path class="st0" d="M1009.8,155.2c-2.9,0-5.7-.4-7.8-1.1-6.2-2-12.7-5.2-12.7-11.4s0-1.1.1-1.8c1.3-6.9,5.1-10,10.7-13.5,3.7-2.3,7.3-3.9,11-3.9s4,.5,6.1,1.6,3.1,2.9,3.1,4.9-.7,3.2-2.1,4.6c-4.3,4.2-8.3,3.7-13.7,6.1-2.2.9-3.9,1.4-5.3,1.4s-2.6-.5-3.1-1.2c-.1-.2-.5-.5-.8-.5-.7,0-.7,1.2-.7,1.8,0,4.7,5.8,6.6,10.3,7.8,2.6.6,4.7.9,6.8.9s5-.4,8.1-.9c.1,0,.3,0,.4,0,1.1,0,1.6.9,1.6,1.7s-.2.9-.6,1.1c-2.9,1.9-7.4,2.7-11.7,2.7h0ZM996.3,135.8c-.4.4-.7,1-.7,1.4s.2.7.7.7.5,0,.9-.2c3.9-1.6,11.2-1.4,17-5.8.7-.4.9-1,.9-1.6,0-1.1-1-2.2-2.2-2.2-5.5.3-12.7,3.5-16.6,7.6h0Z"/>
        <path class="st0" d="M1079.1,152.4c-3.7-4.7-3.8-12.8-6.2-21.2-.2-.9-.6-2.2-1.2-2.2s-.7.4-1.2,1.4c-1.9,3.7-2.8,6.1-5.9,8.9-1.2,1.1-2.3,1.9-3.6,1.9s-1.9-.5-3-1.8c-1.5-1.9-2.2-3.2-3.9-5-.4-.5-.8-.8-1.1-.8s-.6.5-.7,1.8c0,.8,0,1.6,0,2.4,0,3.1.3,6.1.3,8.6s-.1,2.9-.5,4c-.4,1.1-1.9,2.2-3.1,2.2s-1.5-.5-1.5-1.9c0-4.8.1-8.9.1-12.7,0-6.5-.4-12.3-2-20.2,0-.2,0-.4,0-.5,0-1.3,1.1-1.9,2.2-1.9s1.7.4,2.2,1.3c3.1,6.9,5.3,11.3,10.4,16.4.7.6,1.4,1.1,2.1,1.1s1.3-.4,1.9-1.4c2.9-4.7,3.3-8,6.5-12.5.6-.8,1.4-1.2,2.2-1.2,1.2,0,2.2.7,2.7,2.2,3.7,11,4,17.9,7.9,28.7,0,.2.1.6.1.9,0,1.4-.8,3.2-2.2,3.2s-1.5-.4-2.4-1.7h0Z"/>
        <path class="st0" d="M1123.8,153.7c-4.4-3.7-5.8-7.4-7.2-13-.4-1.7-1.3-2.4-2.1-2.4s-1.6.5-2.1,1.1c-4.2,4.5-7.1,7.5-12.7,10.7-1.9,1.1-3.7,1.6-5.2,1.6-4.4,0-7.1-3.9-7.1-7.7s.4-2.8,1.2-4c4.4-6.6,10.2-9.6,16-12.4,1.6-.7,3.2-1.3,4.7-1.3s2.2.3,3.1,1.2c.8.7,1.4,1.2,2.1,1.2s1.2-.4,1.9-1.4c.4-.5.9-.8,1.5-.8,1.3,0,2.7,1.2,3.2,2.4,2.3,5.2-.7,17.5,6.1,19.4.6.1.8.6.8,1.3,0,1.7-1.7,4.4-3.3,4.4s-.7,0-.9-.4h0ZM1105.2,133.3c-5,2.7-7.8,4.6-11.4,8.9-.4.4-.5.9-.5,1.5,0,1.2.9,2.5,2.9,2.5h0c3.4,0,6.2-5,11.2-6.6.4-.1.8-1.4.8-2.9s-.6-3.8-2-3.8-.7.1-1.1.4h0Z"/>
        <path class="st0" d="M1149.3,133.6c-.7-.3-1.4-.5-2.1-.5s-1.5.3-2.2,1.4c-3.2,4.8-1.9,8.8-4.1,14-.5,1.1-1.6,1.7-2.7,1.7s-2.2-.6-2.5-1.9c-.9-3.5-1.5-5.3-2.6-8.6-1.2-3.7-4-6.6-4-9.5s0-.7.1-1.1c.3-1,1.4-1.6,2.4-1.6s1.2.1,1.7.5c3.8,2.9,3,3.8,3.9,8,.1.6.7,1.1,1.3,1.1s.9-.3,1.3-1.1c1.6-3.5.3-7.4,5-8.4.7-.1,1.4-.2,2.1-.2,1.8,0,3.4.5,4.6,1.7.4.4.7,1.1.7,1.9,0,1.4-.7,2.7-2,2.7s-.5,0-.8-.1h0Z"/>
        <path class="st0" d="M1165.9,172.7c-2.7,0-5.4-1.1-7.8-3.2-2.4-2.1-4.7-6.9-4.7-9.9s.6-2.6,2.1-2.6h.4c3.3.4-.9,8.8,5.8,10.4.9.2,1.7.3,2.5.3,8.6,0,13.1-10.9,13.1-17.9s0-.9,0-1.2c-.3-3.5,0-3.2-.7-8.9,0-.6-.4-1.7-1.1-1.7s-.7.2-1.1.6c-1.5,1.3-5.5,8.6-10.4,8.6s-.9,0-1.3-.2c-3.7-1-6.4-3.8-6.4-7.4s1.8-6.6,6.1-10.2c3-2.6,7.7-5.1,11.6-5.1s4.1.8,5.3,2.9c1.4,2.5,1.8,4.2,1.8,5.9s-.4,3-.4,5,0,.8,0,1.2c.2,2.9.4,5.8.4,8.6,0,6.8-1.2,13.2-6.1,19.4-2.9,3.7-6.2,5.4-9.4,5.4h0ZM1171.9,130c-1.4,0-4.1,1.7-6.8,3.1-2.2,1.1-3.7,3.9-3.7,6.1s.2,1.6.7,2.2c.5.6,1.2.9,1.9.9,1.8,0,3.9-1.6,5-3.3,2.2-3.4,4.1-6,4.1-7.6s-.1-.8-.4-1.1c-.2-.1-.4-.3-.8-.3h0Z"/>
        <path class="st0" d="M1192,117.2c-3.3,0-5.5-2-6.9-4.3-.2-.4-.3-.7-.3-1,0-.9.8-1.9,2.6-1.9s.4,0,.7,0c2.9.4,4.9,1.2,7.1,2.8.7.4.9,1,.9,1.6,0,1.2-1.2,2.3-2.4,2.5-.7.1-1.2.2-1.7.2h0ZM1192.7,150.9c-2.4-2.6-3.8-5.3-3.9-8.2-.1-3.1-.1-5.5-.1-7.9v-2.6c0-1.6,0-3.3,0-5.3h0c0-1.3.8-1.8,1.7-1.8,1.7,0,4.2,1.6,4.1,3.6h0c0,3.7-.9,6.5-.9,9.3s.3,3.4,1.2,5.3c1.1,2.4,2.2,3.5,3.9,5.4.3.4.4.7.4,1,0,1.1-2,1.9-3.9,1.9s-1.9-.2-2.4-.7h0Z"/>
        <path class="st0" d="M1226.4,154.9c-6.1-2.7-3.2-12.5-5.4-16.2-.9-1.6-1.6-2.2-2.2-2.2s-.9.4-1.3.9c-2.7,3.4-2.4,7.6-5.6,9.7-.9.6-1.8.9-2.4.9-2.6,0-3.6-3.5-3.6-4.9v-1.2c0-5.2-1.4-9.9-3.5-12.9-.1-.2-.2-.5-.2-.9,0-1.7,2.1-4.2,4.4-4.2s.9,0,1.4.4c2.2,1.2,1.4,6.8,2.6,11.4.3,1.3.9,1.9,1.5,1.9s1.2-.4,1.7-1c2.4-2.4,2.6-3.9,4.1-7.8.3-.6.8-.9,1.5-.9,1.4,0,3.3,1.1,4.1,2.4,3.2,5.1,2.8,19,5.8,20.3,1.3.6,1.9,1.4,1.9,2.2,0,1.3-1.3,2.5-3,2.5s-1.2-.1-1.9-.4h0Z"/>
        <path class="st0" d="M1251.6,131.3c-.5,0-.9-.1-.9-.6h0c0-.4,0-.6,0-.8,0-1.3-.8-1.9-1.7-1.9s-.5,0-.8.2c-1.7.8-2.9,1.8-5.2,2.6-.4.1-.7.6-.7,1.1s.1.9.4,1.2c4.3,4.2,6.8,6.3,10.4,10.8.9,1.1,1.3,2.3,1.3,3.5s-.6,2.7-1.7,3.8c-2.1,1.9-8.7,4.8-13,4.8s-2.1-.2-2.7-.6c-1.5-.9-2.1-2.1-2.1-3s1-2.2,2.4-2.2.9,0,1.4.3c.8.4,1.7.5,2.4.5,1.8,0,3.7-.7,5.5-1.8.9-.5,1.2-1.1,1.2-1.7,0-.9-.7-1.9-1.4-3-5-6.9-9.9-7-11.2-10.8-.3-.8-.4-1.6-.4-2.4,0-1.8.9-3.3,2.6-4.1,3.6-1.6,9.4-5,12.5-5s.7,0,.9,0c3.6,1,4.8,2.7,4.8,4.9s0,1.1-.2,1.8c-.3,1.2-2.6,2.5-3.9,2.5h0Z"/>
      </g>
      <g>
        <path class="st0" d="M503,86.7c-.9-5-.5-7.5-1.4-12.8-.1-.7-.5-1.2-1.1-1.2h-8c-2.5,0-4.6,1.2-5.1,3.6-1.1,5.1-.6,6.9-4,12.8-1,1.7-2.4,2.4-3.6,2.4s-3-1.2-3-3.4,0-.9.2-1.5c1.5-5.8,2.2-5.4,3.9-10.4,0-.2.1-.4.1-.7,0-1.1-1-1.7-1.9-2.8-.4-.4-.5-.9-.5-1.4,0-1.6,1.4-3.5,3.1-3.6,1.5-.1,2.2-.1,3.2-2.3,4.6-10.5,4-13.4,8.4-23.3.8-1.9,2.1-2.7,3.3-2.7s3,1.2,3.7,3.3c2.9,7.8,3.6,15.2,4.6,23.6.6,5.5,1.4,11.3,3.1,18.1.1.7.5,1.7.5,2.5,0,1.6-1.1,2.3-2.2,2.3s-3-.9-3.2-2.6h0ZM499,52.8c-.1-1.3-1.1-2-2.1-2s-1.7.6-2.1,1.9c-1.1,4.1-1.9,6.3-3.2,10.1-.2.7-.8,2-.8,2.4s.4,1.2,1.1,1.3c1.2.3,2.5.3,3.7.3h3.6c.6,0,1.1-.4,1.1-1s0-1.4-.1-2c-.3-3.8-.8-6.6-1.3-11h0Z"/>
        <path class="st0" d="M536.7,85.5c-6-2.7-3.2-12.5-5.4-16.2-.9-1.6-1.6-2.2-2.2-2.2s-.9.4-1.3.9c-2.7,3.4-2.4,7.6-5.6,9.7-.9.7-1.8.9-2.5.9-2.6,0-3.6-3.5-3.6-4.9v-1.2c0-5.2-1.4-9.9-3.5-12.9-.1-.2-.2-.5-.2-.9,0-1.7,2.1-4.2,4.4-4.2s.9,0,1.4.4c2.2,1.2,1.4,6.8,2.6,11.4.3,1.3.9,1.9,1.5,1.9s1.2-.4,1.7-1c2.5-2.4,2.6-3.9,4.1-7.8.3-.7.8-.9,1.5-.9,1.4,0,3.3,1.2,4.1,2.5,3.2,5.1,2.8,19,5.8,20.3,1.3.6,1.9,1.4,1.9,2.2,0,1.3-1.3,2.5-3,2.5s-1.2-.1-1.9-.4h0Z"/>
        <path class="st0" d="M568.6,85.5c-6-2.7-3.2-12.5-5.4-16.2-.9-1.6-1.6-2.2-2.2-2.2s-.9.4-1.3.9c-2.7,3.4-2.4,7.6-5.6,9.7-.9.7-1.8.9-2.5.9-2.6,0-3.6-3.5-3.6-4.9v-1.2c0-5.2-1.4-9.9-3.5-12.9-.1-.2-.2-.5-.2-.9,0-1.7,2.1-4.2,4.4-4.2s.9,0,1.4.4c2.2,1.2,1.4,6.8,2.6,11.4.3,1.3.9,1.9,1.5,1.9s1.2-.4,1.7-1c2.5-2.4,2.6-3.9,4.1-7.8.3-.7.8-.9,1.5-.9,1.4,0,3.3,1.2,4.1,2.5,3.2,5.1,2.8,19,5.8,20.3,1.3.6,1.9,1.4,1.9,2.2,0,1.3-1.3,2.5-3,2.5s-1.2-.1-1.9-.4h0Z"/>
        <path class="st0" d="M589.1,83.3c-3.3,0-6.5-1.5-8.9-4.2-1.9-2.2-3-4.9-3-7.3,0-5.5,2.9-8.9,7.3-11.7,2.7-1.7,4.2-2.4,6.3-4.5,1.2-1.3,2.5-1.8,3.7-1.8s3,1,3.5,2.5c1.4,3.9,4,7.5,4,11.9s-.6,4.1-1.2,5.7c-2.1,5.3-6.1,9.6-11.5,9.6h0ZM595.6,63.2c-.7,0-1.3,1.4-2.6,1.4s-1.1-.2-1.7-.7-1-.9-1.8-.9-1.4.4-2.9,1.3c-2.3,1.6-3.7,3.3-3.7,6.3s.5,4.5,2.1,5.8c1.2,1.1,3.3,1.6,4.8,1.6,3,0,5-1.7,6.7-4.4.9-1.4,1.2-2.9,1.2-4.4s-.7-4.1-1.6-5.5c-.2-.4-.4-.5-.6-.5h0Z"/>
        <path class="st0" d="M623,66.9c-1.7,0-3.4-.1-4.6-.1h0c-1.1,0-2.2.7-2.1,1.8h0c.4,10.3,2.8,10.3,3.2,13.3v.3c0,1.4-1.4,2.6-3,2.6s-1.8-.4-2.6-1.4c-2.7-3.5-1.3-11.7-2.6-14.7-.5-1.2-.4-2.3-1.5-2.8-1.4-.7-2.4-.9-4.1-2.2-.6-.4-.9-1.2-.9-1.9,0-1.3.7-2.6,1.7-2.8.5,0,.9,0,1.4,0s1,0,1.7,0c.9,0,2.1-.7,1.9-1.5-1-6.1-2.2-8.1-2.2-13.4s1-2,2.2-2c2.1,0,5,1.7,5,3.9s0,.4,0,.7c-.6,2.2-.8,4-.8,5.8s.3,4,.6,6.5c.1,1.2,1,1.9,2.2,2,2.3,0,4.1.1,5.6.1,6.2,0,6.3-.7,7.8-1.7.4-.3.8-.4,1.2-.4.9,0,1.5,1,1.5,2.1s-.3,1.7-.9,2.4c-2.8,2.9-6.9,3.4-10.5,3.4h0Z"/>
        <path class="st0" d="M672.1,84.3c-4.4-3.7-5.8-7.4-7.2-13-.4-1.7-1.3-2.4-2.1-2.4s-1.6.5-2.1,1.1c-4.2,4.5-7.1,7.5-12.7,10.7-1.9,1.1-3.7,1.6-5.2,1.6-4.4,0-7.1-3.9-7.1-7.7s.4-2.8,1.2-4c4.4-6.6,10.2-9.7,16-12.4,1.6-.7,3.2-1.3,4.7-1.3s2.2.3,3.1,1.2c.8.7,1.4,1.2,2.1,1.2s1.2-.4,1.9-1.4c.4-.5.9-.8,1.5-.8,1.3,0,2.7,1.2,3.2,2.4,2.3,5.2-.7,17.5,6,19.4.6.1.8.7.8,1.3,0,1.7-1.7,4.4-3.3,4.4s-.7,0-.9-.4h0ZM653.5,63.9c-5,2.7-7.8,4.6-11.4,8.9-.4.4-.5.9-.5,1.5,0,1.2.9,2.5,2.9,2.5h0c3.4,0,6.2-5,11.2-6.6.4-.1.8-1.4.8-2.9s-.6-3.8-2-3.8-.7.1-1.1.4h0Z"/>
        <path class="st0" d="M695.6,66.9c-1.7,0-3.4-.1-4.6-.1h0c-1.1,0-2.2.7-2.1,1.8h0c.4,10.3,2.8,10.3,3.2,13.3v.3c0,1.4-1.4,2.6-3,2.6s-1.8-.4-2.6-1.4c-2.7-3.5-1.3-11.7-2.6-14.7-.5-1.2-.4-2.3-1.5-2.8-1.4-.7-2.4-.9-4.1-2.2-.6-.4-.9-1.2-.9-1.9,0-1.3.7-2.6,1.7-2.8.5,0,.9,0,1.4,0s1,0,1.7,0c.9,0,2.1-.7,1.9-1.5-1-6.1-2.2-8.1-2.2-13.4s1-2,2.2-2c2.1,0,5,1.7,5,3.9s0,.4,0,.7c-.6,2.2-.8,4-.8,5.8s.3,4,.6,6.5c.1,1.2,1,1.9,2.2,2,2.3,0,4.1.1,5.6.1,6.2,0,6.3-.7,7.8-1.7.4-.3.8-.4,1.2-.4.9,0,1.5,1,1.5,2.1s-.3,1.7-.9,2.4c-2.8,2.9-6.9,3.4-10.5,3.4h0Z"/>
        <path class="st0" d="M729.3,85.8c-2.9,0-5.7-.4-7.8-1.1-6.2-2-12.7-5.2-12.7-11.4s0-1.2.1-1.8c1.3-6.9,5.1-10,10.7-13.5,3.7-2.3,7.3-3.9,11-3.9s4,.5,6.1,1.6c2.1,1.1,3.1,3,3.1,4.9s-.7,3.2-2.1,4.6c-4.3,4.2-8.3,3.7-13.7,6.1-2.2.9-3.9,1.4-5.3,1.4s-2.6-.5-3.1-1.2c-.1-.2-.5-.5-.8-.5-.7,0-.7,1.2-.7,1.8,0,4.7,5.8,6.6,10.3,7.8,2.6.7,4.7.9,6.8.9s5-.4,8.1-.9c.1,0,.3,0,.4,0,1.1,0,1.6.9,1.6,1.7s-.2.9-.6,1.2c-2.9,1.9-7.4,2.7-11.7,2.7h0ZM715.8,66.4c-.4.4-.7,1-.7,1.4s.2.7.7.7.5,0,.9-.2c3.9-1.6,11.2-1.4,17-5.8.7-.4.9-1,.9-1.6,0-1.1-1-2.2-2.2-2.2-5.5.3-12.7,3.5-16.6,7.6h0Z"/>
        <path class="st0" d="M782,81.1c-1.2,0-2.3-.4-3.2-1.3-2.7-2.7-2.9-5.3-4.6-8.8-.3-.6-1.2-1.2-2.2-1.2s-1.2.3-1.6.9c-3.3,5.2-5.8,8.4-11.4,10.9-2.5,1.2-4.5,1.6-6.3,1.6-4.5,0-6.9-2.9-6.9-5.8s.4-2.3,1.2-3.2c6-7.6,14.4-11.7,21.2-15.5.9-.5,1.9-1.1,1.9-2.1h0c-.1-4.2-.7-8.1-1.6-12.6v-.3c0-.9.8-1.7,1.9-1.7s1.2.2,1.7.7c2.5,2.1,4.7,5.5,4.8,9.8.1,6.3.5,21.9,7.9,25.2.9.4,1.2.9,1.2,1.3,0,.7-.9,1.4-1.8,1.7-.7.3-1.5.4-2.2.4h0ZM767.6,63.8c-4.5,2.6-11.4,6.3-15.7,11.2-.4.4-.5.9-.5,1.4,0,1.2.7,2.2,2.5,2.2s1.4-.1,2.2-.5c6.5-2.6,9.7-8.1,13.2-12.2.4-.5.6-.9.6-1.3,0-.7-.7-1.1-1.4-1.1s-.7,0-.9.2h0Z"/>
      </g>
      <path class="st0" d="M456.4,139.8c67.7,3.9,135.6,4,203.3.3,32.9-1.8,65.9-4,98.6-8.1,21.5-2.7,46.3-7.9,60.3-26.1,7.7-10,12.2-25.1,4.9-36.6-6.1-9.7-20.3-12.9-29-4.9-.7.7-1.1,1.9-.8,2.9,3.8,11.2,17.4,10.6,26.9,8.3,13.9-3.4,27.4-8.7,40.1-15.3,25.5-13.3,47.5-32.7,64.1-56.1,2.2-3.2-3-6.2-5.2-3-14.5,20.4-33.5,37.6-55.1,50.2-10.6,6.2-21.8,11.2-33.5,15-7,2.3-27.8,10.3-31.5-.6l-.8,2.9c4.1-3.8,10-3.5,14.7-.9,6,3.3,8.1,10.4,7.7,16.9-.8,11.4-8.8,21.4-18,27.5-19,12.5-43.6,13.9-65.6,16-59.6,5.8-119.5,8.7-179.4,8.6-33.9,0-67.8-1.1-101.6-3-3.9-.2-3.9,5.8,0,6h0Z"/>
    </g>
  </g>
</svg>