<?xml version="1.0" encoding="UTF-8"?>
<svg id="Layer_2" data-name="Layer 2" xmlns="http://www.w3.org/2000/svg" viewBox="0 0 1256.15 134.14">
  <defs>
    <style>
      .cls-1 {
        stroke: #f9f6ee;
        stroke-miterlimit: 10;
      }

      .cls-1, .cls-2 {
        fill: #f9f6ee;
      }
    </style>
  </defs>
  <g id="Layer_1-2" data-name="Layer 1">
    <g>
      <g>
        <path class="cls-1" d="M23.68,62.77c3.22,0,5.95.47,8.21,1.4,2.26.94,4.09,2.17,5.51,3.71,1.42,1.54,2.45,3.29,3.1,5.26.65,1.97.97,4.01.97,6.12s-.32,4.09-.97,6.08c-.65,1.99-1.68,3.76-3.1,5.29-1.42,1.54-3.25,2.77-5.51,3.71-2.26.94-4.99,1.4-8.21,1.4h-11.88v18.43H.5v-51.41h23.18ZM20.59,86.96c1.3,0,2.54-.1,3.74-.29,1.2-.19,2.26-.56,3.17-1.12.91-.55,1.64-1.33,2.2-2.34.55-1.01.83-2.33.83-3.96s-.28-2.95-.83-3.96c-.55-1.01-1.28-1.79-2.2-2.34-.91-.55-1.97-.92-3.17-1.12-1.2-.19-2.45-.29-3.74-.29h-8.78v15.41h8.78Z"/>
        <path class="cls-1" d="M47.01,88.4c.14-2.4.74-4.39,1.8-5.98,1.06-1.58,2.4-2.86,4.03-3.82,1.63-.96,3.47-1.64,5.51-2.05,2.04-.41,4.09-.61,6.16-.61,1.87,0,3.77.13,5.69.4,1.92.26,3.67.78,5.26,1.55,1.58.77,2.88,1.84,3.89,3.2,1.01,1.37,1.51,3.18,1.51,5.44v19.37c0,1.68.1,3.29.29,4.82.19,1.54.53,2.69,1.01,3.46h-10.37c-.19-.58-.35-1.16-.47-1.76-.12-.6-.2-1.21-.25-1.84-1.63,1.68-3.55,2.86-5.76,3.53-2.21.67-4.46,1.01-6.77,1.01-1.78,0-3.43-.22-4.97-.65-1.54-.43-2.88-1.1-4.03-2.02-1.15-.91-2.05-2.06-2.7-3.46-.65-1.39-.97-3.05-.97-4.97,0-2.11.37-3.85,1.12-5.22.74-1.37,1.7-2.46,2.88-3.28,1.18-.82,2.52-1.43,4.03-1.84,1.51-.41,3.04-.73,4.57-.97,1.54-.24,3.05-.43,4.54-.58,1.49-.14,2.81-.36,3.96-.65,1.15-.29,2.06-.71,2.74-1.26.67-.55.98-1.36.94-2.41,0-1.1-.18-1.98-.54-2.63-.36-.65-.84-1.15-1.44-1.51-.6-.36-1.3-.6-2.09-.72-.79-.12-1.64-.18-2.56-.18-2.02,0-3.6.43-4.75,1.3-1.15.86-1.82,2.3-2.02,4.32h-10.22ZM70.63,95.96c-.43.38-.97.68-1.62.9-.65.22-1.34.4-2.09.54-.74.14-1.52.26-2.34.36-.82.1-1.63.22-2.45.36-.77.14-1.52.34-2.27.58-.74.24-1.39.56-1.94.97-.55.41-1,.92-1.33,1.55-.34.62-.5,1.42-.5,2.38s.17,1.68.5,2.3c.33.62.79,1.12,1.37,1.48.58.36,1.25.61,2.02.76.77.14,1.56.22,2.38.22,2.02,0,3.58-.34,4.68-1.01,1.1-.67,1.92-1.48,2.45-2.41.53-.94.85-1.88.97-2.84.12-.96.18-1.73.18-2.3v-3.82Z"/>
        <path class="cls-1" d="M113.97,114.18v-5.18h-.22c-1.3,2.16-2.98,3.72-5.04,4.68-2.06.96-4.18,1.44-6.34,1.44-2.74,0-4.98-.36-6.73-1.08-1.75-.72-3.13-1.74-4.14-3.06-1.01-1.32-1.72-2.93-2.12-4.82-.41-1.9-.61-4-.61-6.3v-22.9h10.22v21.02c0,3.07.48,5.36,1.44,6.88.96,1.51,2.66,2.27,5.11,2.27,2.78,0,4.8-.83,6.05-2.48,1.25-1.66,1.87-4.38,1.87-8.17v-19.51h10.22v37.22h-9.72Z"/>
        <path class="cls-1" d="M141.98,62.77v51.41h-10.22v-51.41h10.22Z"/>
        <path class="cls-1" d="M167.11,72.27v-9.5h42.12v9.5h-15.41v41.9h-11.3v-41.9h-15.41Z"/>
        <path class="cls-1" d="M224.27,62.77v19.37h.22c1.3-2.16,2.95-3.73,4.97-4.72,2.02-.98,3.98-1.48,5.9-1.48,2.74,0,4.98.37,6.73,1.12,1.75.75,3.13,1.78,4.14,3.1,1.01,1.32,1.72,2.93,2.12,4.82.41,1.9.61,4,.61,6.3v22.9h-10.22v-21.02c0-3.07-.48-5.36-1.44-6.88-.96-1.51-2.66-2.27-5.11-2.27-2.78,0-4.8.83-6.05,2.48-1.25,1.66-1.87,4.38-1.87,8.17v19.51h-10.22v-51.41h10.22Z"/>
        <path class="cls-1" d="M256.96,87.5c.91-2.42,2.21-4.49,3.89-6.19,1.68-1.7,3.7-3.02,6.05-3.96,2.35-.94,4.99-1.4,7.92-1.4s5.58.47,7.96,1.4,4.4,2.26,6.08,3.96c1.68,1.7,2.98,3.77,3.89,6.19.91,2.42,1.37,5.12,1.37,8.1s-.46,5.66-1.37,8.06c-.91,2.4-2.21,4.45-3.89,6.16-1.68,1.7-3.71,3.01-6.08,3.92-2.38.91-5.03,1.37-7.96,1.37s-5.57-.46-7.92-1.37c-2.35-.91-4.37-2.22-6.05-3.92-1.68-1.7-2.98-3.76-3.89-6.16-.91-2.4-1.37-5.09-1.37-8.06s.46-5.68,1.37-8.1ZM266.25,99.96c.29,1.42.78,2.69,1.48,3.82.7,1.13,1.62,2.03,2.77,2.7,1.15.67,2.59,1.01,4.32,1.01s3.18-.34,4.36-1.01c1.18-.67,2.11-1.57,2.81-2.7.7-1.13,1.19-2.4,1.48-3.82.29-1.42.43-2.87.43-4.36s-.14-2.95-.43-4.39c-.29-1.44-.78-2.71-1.48-3.82-.7-1.1-1.63-2-2.81-2.7-1.18-.7-2.63-1.04-4.36-1.04s-3.17.35-4.32,1.04c-1.15.7-2.08,1.6-2.77,2.7-.7,1.1-1.19,2.38-1.48,3.82-.29,1.44-.43,2.9-.43,4.39s.14,2.94.43,4.36Z"/>
        <path class="cls-1" d="M310.67,76.95v5.04h.14c1.34-1.92,2.96-3.41,4.86-4.46,1.9-1.06,4.07-1.58,6.52-1.58s4.5.46,6.44,1.37c1.94.91,3.42,2.52,4.43,4.82,1.1-1.63,2.6-3.07,4.5-4.32,1.9-1.25,4.14-1.87,6.73-1.87,1.97,0,3.79.24,5.47.72,1.68.48,3.12,1.25,4.32,2.3,1.2,1.06,2.14,2.44,2.81,4.14.67,1.7,1.01,3.76,1.01,6.16v24.91h-10.22v-21.1c0-1.25-.05-2.42-.14-3.53-.1-1.1-.36-2.06-.79-2.88-.43-.82-1.07-1.46-1.91-1.94-.84-.48-1.98-.72-3.42-.72s-2.6.28-3.49.83c-.89.55-1.58,1.27-2.09,2.16-.5.89-.84,1.9-1.01,3.02-.17,1.13-.25,2.27-.25,3.42v20.74h-10.22v-20.88c0-1.1-.02-2.2-.07-3.28-.05-1.08-.25-2.08-.61-2.99-.36-.91-.96-1.64-1.8-2.2-.84-.55-2.08-.83-3.71-.83-.48,0-1.12.11-1.91.32-.79.22-1.56.62-2.3,1.22-.74.6-1.38,1.46-1.91,2.59-.53,1.13-.79,2.6-.79,4.43v21.6h-10.22v-37.22h9.65Z"/>
        <path class="cls-1" d="M365.54,88.4c.14-2.4.74-4.39,1.8-5.98,1.06-1.58,2.4-2.86,4.03-3.82,1.63-.96,3.47-1.64,5.51-2.05,2.04-.41,4.09-.61,6.16-.61,1.87,0,3.77.13,5.69.4,1.92.26,3.67.78,5.26,1.55,1.58.77,2.88,1.84,3.89,3.2,1.01,1.37,1.51,3.18,1.51,5.44v19.37c0,1.68.1,3.29.29,4.82.19,1.54.53,2.69,1.01,3.46h-10.37c-.19-.58-.35-1.16-.47-1.76-.12-.6-.2-1.21-.25-1.84-1.63,1.68-3.55,2.86-5.76,3.53-2.21.67-4.46,1.01-6.77,1.01-1.78,0-3.43-.22-4.97-.65-1.54-.43-2.88-1.1-4.03-2.02-1.15-.91-2.05-2.06-2.7-3.46-.65-1.39-.97-3.05-.97-4.97,0-2.11.37-3.85,1.12-5.22.74-1.37,1.7-2.46,2.88-3.28,1.18-.82,2.52-1.43,4.03-1.84,1.51-.41,3.04-.73,4.57-.97,1.54-.24,3.05-.43,4.54-.58,1.49-.14,2.81-.36,3.96-.65,1.15-.29,2.06-.71,2.74-1.26.67-.55.98-1.36.94-2.41,0-1.1-.18-1.98-.54-2.63-.36-.65-.84-1.15-1.44-1.51-.6-.36-1.3-.6-2.09-.72-.79-.12-1.64-.18-2.56-.18-2.02,0-3.6.43-4.75,1.3-1.15.86-1.82,2.3-2.02,4.32h-10.22ZM389.15,95.96c-.43.38-.97.68-1.62.9-.65.22-1.34.4-2.09.54-.74.14-1.52.26-2.34.36-.82.1-1.63.22-2.45.36-.77.14-1.52.34-2.27.58-.74.24-1.39.56-1.94.97-.55.41-1,.92-1.33,1.55-.34.62-.5,1.42-.5,2.38s.17,1.68.5,2.3c.33.62.79,1.12,1.37,1.48.58.36,1.25.61,2.02.76.77.14,1.56.22,2.38.22,2.02,0,3.58-.34,4.68-1.01,1.1-.67,1.92-1.48,2.45-2.41.53-.94.85-1.88.97-2.84.12-.96.18-1.73.18-2.3v-3.82Z"/>
        <path class="cls-1" d="M415.9,104.92c.46.79,1.04,1.44,1.76,1.94.72.5,1.55.88,2.48,1.12.94.24,1.91.36,2.92.36.72,0,1.48-.08,2.27-.25.79-.17,1.51-.43,2.16-.79s1.19-.84,1.62-1.44c.43-.6.65-1.36.65-2.27,0-1.54-1.02-2.69-3.06-3.46-2.04-.77-4.88-1.54-8.53-2.3-1.49-.33-2.94-.73-4.36-1.19-1.42-.46-2.68-1.06-3.78-1.8-1.1-.74-1.99-1.68-2.66-2.81-.67-1.13-1.01-2.51-1.01-4.14,0-2.4.47-4.37,1.4-5.9.94-1.54,2.17-2.75,3.71-3.64,1.54-.89,3.26-1.51,5.18-1.87,1.92-.36,3.89-.54,5.9-.54s3.97.19,5.87.58c1.9.38,3.59,1.03,5.08,1.94,1.49.91,2.72,2.12,3.71,3.64.98,1.51,1.57,3.42,1.76,5.72h-9.72c-.14-1.97-.89-3.3-2.23-4-1.34-.7-2.93-1.04-4.75-1.04-.58,0-1.2.04-1.87.11-.67.07-1.29.23-1.84.47-.55.24-1.02.59-1.4,1.04-.38.46-.58,1.07-.58,1.84,0,.91.34,1.66,1.01,2.23.67.58,1.55,1.04,2.63,1.4,1.08.36,2.32.68,3.71.97,1.39.29,2.81.6,4.25.94,1.49.34,2.94.74,4.36,1.22,1.42.48,2.68,1.12,3.78,1.91,1.1.79,1.99,1.78,2.66,2.95.67,1.18,1.01,2.63,1.01,4.36,0,2.45-.49,4.5-1.48,6.16-.98,1.66-2.27,2.99-3.85,4-1.58,1.01-3.4,1.72-5.44,2.12-2.04.41-4.12.61-6.23.61s-4.27-.22-6.34-.65c-2.06-.43-3.9-1.15-5.51-2.16-1.61-1.01-2.93-2.34-3.96-4-1.03-1.66-1.6-3.73-1.69-6.23h9.72c0,1.1.23,2.05.68,2.84Z"/>
        <path class="cls-1" d="M492.69,62.77l19.22,51.41h-11.74l-3.89-11.45h-19.22l-4.03,11.45h-11.38l19.44-51.41h11.59ZM493.33,94.3l-6.48-18.86h-.14l-6.7,18.86h13.32Z"/>
        <path class="cls-1" d="M525.01,76.95v5.18h.22c1.3-2.16,2.98-3.73,5.04-4.72,2.06-.98,4.18-1.48,6.34-1.48,2.74,0,4.98.37,6.73,1.12,1.75.75,3.13,1.78,4.14,3.1,1.01,1.32,1.72,2.93,2.12,4.82.41,1.9.61,4,.61,6.3v22.9h-10.22v-21.02c0-3.07-.48-5.36-1.44-6.88-.96-1.51-2.66-2.27-5.11-2.27-2.78,0-4.8.83-6.05,2.48-1.25,1.66-1.87,4.38-1.87,8.17v19.51h-10.22v-37.22h9.72Z"/>
        <path class="cls-1" d="M584.41,109.42c-1.2,2.02-2.77,3.47-4.72,4.36-1.94.89-4.14,1.33-6.59,1.33-2.78,0-5.23-.54-7.34-1.62-2.11-1.08-3.85-2.54-5.22-4.39-1.37-1.85-2.4-3.97-3.1-6.37-.7-2.4-1.04-4.9-1.04-7.49s.35-4.91,1.04-7.24c.7-2.33,1.73-4.38,3.1-6.16,1.37-1.77,3.08-3.2,5.15-4.28,2.06-1.08,4.46-1.62,7.2-1.62,2.21,0,4.31.47,6.3,1.4,1.99.94,3.56,2.32,4.72,4.14h.14v-18.72h10.22v51.41h-9.72v-4.75h-.14ZM583.98,91.03c-.29-1.42-.78-2.66-1.48-3.74-.7-1.08-1.6-1.96-2.7-2.63-1.1-.67-2.5-1.01-4.18-1.01s-3.1.34-4.25,1.01c-1.15.67-2.08,1.56-2.77,2.66-.7,1.1-1.2,2.36-1.51,3.78-.31,1.42-.47,2.89-.47,4.43,0,1.44.17,2.88.5,4.32.33,1.44.88,2.73,1.62,3.85.74,1.13,1.68,2.04,2.81,2.74,1.13.7,2.48,1.04,4.07,1.04,1.68,0,3.08-.34,4.21-1.01,1.13-.67,2.03-1.57,2.7-2.7.67-1.13,1.15-2.41,1.44-3.85s.43-2.93.43-4.46-.14-3.01-.43-4.43Z"/>
        <path class="cls-1" d="M612.92,105.25c1.54,1.49,3.74,2.23,6.62,2.23,2.06,0,3.84-.52,5.33-1.55,1.49-1.03,2.4-2.12,2.73-3.28h9c-1.44,4.46-3.65,7.66-6.62,9.58-2.98,1.92-6.58,2.88-10.8,2.88-2.93,0-5.57-.47-7.92-1.4-2.35-.94-4.34-2.27-5.97-4-1.63-1.73-2.89-3.79-3.78-6.19-.89-2.4-1.33-5.04-1.33-7.92s.46-5.38,1.37-7.78c.91-2.4,2.21-4.48,3.89-6.23,1.68-1.75,3.68-3.13,6.01-4.14,2.33-1.01,4.91-1.51,7.74-1.51,3.17,0,5.93.61,8.28,1.84,2.35,1.22,4.28,2.87,5.79,4.93,1.51,2.06,2.6,4.42,3.28,7.06.67,2.64.91,5.4.72,8.28h-26.86c.14,3.31.98,5.71,2.52,7.2ZM624.48,85.66c-1.22-1.34-3.08-2.02-5.58-2.02-1.63,0-2.99.28-4.07.83-1.08.55-1.94,1.24-2.59,2.05-.65.82-1.11,1.68-1.37,2.59-.27.91-.42,1.73-.47,2.45h16.63c-.48-2.59-1.33-4.56-2.56-5.9Z"/>
        <path class="cls-1" d="M653.03,76.95v6.91h.14c.48-1.15,1.13-2.22,1.94-3.2.82-.98,1.75-1.82,2.81-2.52,1.06-.7,2.18-1.24,3.38-1.62,1.2-.38,2.45-.58,3.74-.58.67,0,1.42.12,2.23.36v9.5c-.48-.1-1.06-.18-1.73-.25-.67-.07-1.32-.11-1.94-.11-1.87,0-3.46.31-4.75.94-1.3.62-2.34,1.48-3.13,2.56s-1.36,2.34-1.69,3.78c-.34,1.44-.5,3-.5,4.68v16.78h-10.22v-37.22h9.72Z"/>
        <path class="cls-1" d="M679.92,104.92c.46.79,1.04,1.44,1.76,1.94s1.55.88,2.48,1.12c.94.24,1.91.36,2.92.36.72,0,1.48-.08,2.27-.25.79-.17,1.51-.43,2.16-.79s1.19-.84,1.62-1.44c.43-.6.65-1.36.65-2.27,0-1.54-1.02-2.69-3.06-3.46-2.04-.77-4.88-1.54-8.53-2.3-1.49-.33-2.94-.73-4.36-1.19-1.42-.46-2.68-1.06-3.78-1.8-1.1-.74-1.99-1.68-2.66-2.81-.67-1.13-1.01-2.51-1.01-4.14,0-2.4.47-4.37,1.4-5.9.94-1.54,2.17-2.75,3.71-3.64,1.54-.89,3.26-1.51,5.18-1.87,1.92-.36,3.89-.54,5.9-.54s3.97.19,5.87.58c1.9.38,3.59,1.03,5.08,1.94,1.49.91,2.72,2.12,3.71,3.64.98,1.51,1.57,3.42,1.76,5.72h-9.72c-.14-1.97-.89-3.3-2.23-4-1.34-.7-2.93-1.04-4.75-1.04-.58,0-1.2.04-1.87.11-.67.07-1.29.23-1.84.47-.55.24-1.02.59-1.4,1.04-.38.46-.58,1.07-.58,1.84,0,.91.34,1.66,1.01,2.23.67.58,1.55,1.04,2.63,1.4,1.08.36,2.32.68,3.71.97s2.81.6,4.25.94c1.49.34,2.94.74,4.36,1.22,1.42.48,2.67,1.12,3.78,1.91,1.1.79,1.99,1.78,2.66,2.95.67,1.18,1.01,2.63,1.01,4.36,0,2.45-.49,4.5-1.48,6.16-.98,1.66-2.27,2.99-3.85,4-1.58,1.01-3.4,1.72-5.44,2.12s-4.12.61-6.23.61-4.27-.22-6.34-.65c-2.06-.43-3.9-1.15-5.51-2.16-1.61-1.01-2.93-2.34-3.96-4-1.03-1.66-1.6-3.73-1.69-6.23h9.72c0,1.1.23,2.05.68,2.84Z"/>
        <path class="cls-1" d="M710.19,87.5c.91-2.42,2.21-4.49,3.89-6.19,1.68-1.7,3.7-3.02,6.05-3.96,2.35-.94,4.99-1.4,7.92-1.4s5.58.47,7.96,1.4,4.4,2.26,6.08,3.96c1.68,1.7,2.98,3.77,3.89,6.19.91,2.42,1.37,5.12,1.37,8.1s-.46,5.66-1.37,8.06c-.91,2.4-2.21,4.45-3.89,6.16-1.68,1.7-3.71,3.01-6.08,3.92-2.38.91-5.03,1.37-7.96,1.37s-5.57-.46-7.92-1.37c-2.35-.91-4.37-2.22-6.05-3.92-1.68-1.7-2.98-3.76-3.89-6.16-.91-2.4-1.37-5.09-1.37-8.06s.46-5.68,1.37-8.1ZM719.48,99.96c.29,1.42.78,2.69,1.48,3.82.7,1.13,1.62,2.03,2.77,2.7,1.15.67,2.59,1.01,4.32,1.01s3.18-.34,4.36-1.01c1.17-.67,2.11-1.57,2.81-2.7.7-1.13,1.19-2.4,1.48-3.82.29-1.42.43-2.87.43-4.36s-.14-2.95-.43-4.39c-.29-1.44-.78-2.71-1.48-3.82-.7-1.1-1.63-2-2.81-2.7-1.18-.7-2.63-1.04-4.36-1.04s-3.17.35-4.32,1.04c-1.15.7-2.08,1.6-2.77,2.7-.7,1.1-1.19,2.38-1.48,3.82-.29,1.44-.43,2.9-.43,4.39s.14,2.94.43,4.36Z"/>
        <path class="cls-1" d="M763.69,76.95v5.18h.22c1.3-2.16,2.98-3.73,5.04-4.72,2.06-.98,4.18-1.48,6.34-1.48,2.74,0,4.98.37,6.73,1.12,1.75.75,3.13,1.78,4.14,3.1,1.01,1.32,1.72,2.93,2.12,4.82.41,1.9.61,4,.61,6.3v22.9h-10.22v-21.02c0-3.07-.48-5.36-1.44-6.88-.96-1.51-2.66-2.27-5.11-2.27-2.78,0-4.8.83-6.05,2.48-1.25,1.66-1.87,4.38-1.87,8.17v19.51h-10.22v-37.22h9.72Z"/>
      </g>
      <g>
        <path class="cls-1" d="M827.33,96.2c-.22,0-.5,0-.79-.14-2.38-.94-4.1-2.09-4.54-4.54-.07-.29-.07-.58-.07-.86,0-1.94,1.37-3.17,3.31-3.17.86,0,1.8.29,2.81.79,1.37.72,3.67,1.37,3.67,2.74,0,.36-.22.86-.65,1.37-1.3,1.51-2.09,3.82-3.74,3.82ZM823.08,107.94c0-3.02,2.02-4.18,3.74-4.18.86,0,2.45.43,3.53,1.15,1.22.86,2.02,2.38,2.02,3.89,0,2.02-2.45,3.02-4.54,3.02-2.38,0-4.75-.14-4.75-3.89Z"/>
        <path class="cls-1" d="M865.42,110.6c-.07,1.94-2.88,2.95-5.18,2.95-1.73,0-3.17-.58-3.17-1.8.07-9.58,1.58-17.93,1.58-27.87,0-3.02-.29-6.19-.43-9.58v-.07c-.07-.94,1.58-2.3,3.02-2.3.72,0,1.37.36,1.73,1.22.58,1.3.72,4.54.72,8.71,0,6.77-.43,15.99-.43,23.62v.94c0,2.09,2.23,2.38,2.16,4.03v.14Z"/>
        <path class="cls-1" d="M894.72,115.93c-6.05-2.74-3.24-12.46-5.4-16.2-.87-1.58-1.58-2.23-2.16-2.23-.43,0-.87.36-1.3.94-2.66,3.38-2.38,7.56-5.62,9.72-.94.65-1.8.86-2.45.86-2.59,0-3.6-3.46-3.6-4.9v-1.22c0-5.18-1.37-9.94-3.46-12.89-.14-.22-.22-.5-.22-.86,0-1.66,2.09-4.25,4.39-4.25.43,0,.94.07,1.44.36,2.16,1.15,1.44,6.84,2.59,11.45.29,1.3.86,1.87,1.51,1.87.5,0,1.15-.43,1.73-1.01,2.45-2.45,2.59-3.89,4.1-7.78.29-.65.79-.94,1.51-.94,1.37,0,3.31,1.15,4.1,2.45,3.17,5.11,2.81,19.01,5.83,20.31,1.3.58,1.87,1.44,1.87,2.23,0,1.3-1.3,2.52-3.03,2.52-.58,0-1.22-.14-1.87-.43Z"/>
        <path class="cls-1" d="M938.71,97.28c-1.73,0-3.38-.14-4.61-.14h-.07c-1.08,0-2.16.72-2.09,1.8v.14c.36,10.15,2.81,10.15,3.24,13.18v.29c0,1.37-1.44,2.59-3.02,2.59-.86,0-1.8-.36-2.59-1.37-2.74-3.53-1.3-11.74-2.59-14.69-.5-1.15-.43-2.3-1.51-2.81-1.37-.65-2.38-.94-4.1-2.16-.58-.43-.86-1.15-.86-1.94,0-1.3.65-2.59,1.73-2.81.5-.07.94-.07,1.37-.07.5,0,1.01.07,1.66.07.94,0,2.09-.65,1.95-1.51-1.01-6.12-2.16-8.14-2.16-13.39,0-1.37,1.01-1.94,2.23-1.94,2.09,0,4.97,1.66,4.97,3.89,0,.22,0,.43-.07.65-.58,2.23-.79,3.96-.79,5.76,0,2.02.29,4.03.58,6.55.14,1.22,1.01,1.87,2.16,1.94,2.3.07,4.1.14,5.62.14,6.19,0,6.26-.72,7.78-1.66.43-.29.79-.36,1.15-.36.94,0,1.51,1.01,1.51,2.09,0,.86-.29,1.73-.94,2.38-2.81,2.88-6.91,3.38-10.51,3.38Z"/>
        <path class="cls-1" d="M979.82,113.55c-.72-4.54-1.58-6.84-3.46-10.37-1.51-2.88-.94-4.54-2.38-7.99-.29-.65-.94-1.15-1.66-1.15-.5,0-1.01.22-1.37.94-1.15,2.23-2.95,5.11-5.62,7.99-2.59,2.81-2.38,5.62-5.18,8.42-.65.65-1.73,1.01-2.66,1.01-1.08,0-2.02-.43-2.09-1.44-.43-8.78-2.66-23.76-2.66-35.5,0-2.16.07-4.25.29-6.19.07-1.08.94-1.51,2.02-1.51,1.8,0,4.1,1.37,4.1,3.02,0,.22,0,.43-.07.65-.58,1.66-.79,6.91-.79,12.67,0,5.33.21,11.02.58,14.76.14,1.66.86,2.88,1.58,2.88.21,0,.36-.07.58-.29,3.89-4.39,5.69-8.93,10.15-14.04.94-1.08,1.87-1.66,2.74-1.66.94,0,1.73.72,2.45,2.09,2.02,4.03,4.03,13.9,8.43,22.03.29.58.43,1.08.43,1.51,0,2.02-2.23,3.17-3.82,3.17-.79,0-1.44-.29-1.58-1.01Z"/>
        <path class="cls-1" d="M1009.85,116.15c-2.88,0-5.69-.36-7.78-1.08-6.19-2.02-12.67-5.18-12.67-11.45,0-.58,0-1.15.14-1.8,1.3-6.91,5.11-10.01,10.66-13.54,3.67-2.3,7.34-3.89,11.02-3.89,2.02,0,4.03.5,6.12,1.58s3.1,2.95,3.1,4.9c0,1.58-.65,3.24-2.09,4.61-4.32,4.25-8.35,3.67-13.68,6.05-2.16.94-3.89,1.37-5.26,1.37-1.51,0-2.59-.5-3.1-1.22-.14-.22-.5-.5-.79-.5-.65,0-.72,1.22-.72,1.8,0,4.68,5.83,6.62,10.3,7.78,2.59.65,4.68.94,6.84.94,2.52,0,4.97-.36,8.14-.94.14,0,.29-.07.43-.07,1.08,0,1.58.86,1.58,1.66,0,.5-.22.94-.58,1.15-2.88,1.87-7.42,2.66-11.67,2.66ZM996.31,96.78c-.43.43-.65,1.01-.65,1.37,0,.43.21.72.65.72.22,0,.5-.07.86-.22,3.89-1.58,11.23-1.44,16.99-5.76.65-.43.86-1.01.86-1.58,0-1.08-1.01-2.16-2.16-2.16-5.54.29-12.67,3.46-16.56,7.63Z"/>
        <path class="cls-1" d="M1079.11,113.34c-3.67-4.68-3.82-12.82-6.19-21.17-.22-.86-.58-2.23-1.22-2.23-.29,0-.72.36-1.22,1.37-1.94,3.74-2.81,6.05-5.9,8.93-1.15,1.08-2.3,1.94-3.6,1.94-.94,0-1.95-.5-3.03-1.8-1.51-1.87-2.23-3.24-3.89-5.04-.43-.5-.79-.79-1.08-.79-.36,0-.58.5-.65,1.8-.07.79-.07,1.58-.07,2.38,0,3.1.29,6.12.29,8.64,0,1.58-.14,2.95-.5,3.96-.43,1.15-1.94,2.23-3.1,2.23-.86,0-1.51-.5-1.51-1.94,0-4.82.14-8.86.14-12.67,0-6.48-.36-12.31-2.02-20.16-.07-.22-.07-.36-.07-.5,0-1.3,1.08-1.94,2.23-1.94.86,0,1.73.36,2.16,1.3,3.1,6.91,5.33,11.3,10.37,16.42.65.65,1.37,1.15,2.09,1.15.65,0,1.3-.43,1.95-1.44,2.88-4.68,3.31-7.99,6.48-12.53.58-.79,1.37-1.15,2.16-1.15,1.15,0,2.23.72,2.74,2.16,3.67,11.02,4.03,17.93,7.92,28.66.07.22.14.58.14.86,0,1.44-.79,3.24-2.16,3.24-.65,0-1.51-.43-2.45-1.66Z"/>
        <path class="cls-1" d="M1123.82,114.71c-4.39-3.74-5.76-7.42-7.2-12.96-.43-1.73-1.3-2.38-2.09-2.38s-1.58.5-2.09,1.08c-4.18,4.54-7.13,7.49-12.67,10.66-1.94,1.08-3.67,1.58-5.18,1.58-4.39,0-7.06-3.89-7.06-7.7,0-1.37.36-2.81,1.15-3.96,4.39-6.55,10.15-9.65,15.98-12.39,1.58-.72,3.17-1.3,4.68-1.3,1.08,0,2.16.29,3.1,1.15.79.72,1.44,1.22,2.09,1.22.58,0,1.15-.36,1.94-1.37.43-.5.94-.79,1.51-.79,1.29,0,2.66,1.15,3.24,2.38,2.3,5.18-.72,17.5,6.05,19.44.58.14.79.65.79,1.3,0,1.66-1.66,4.39-3.31,4.39-.29,0-.65-.07-.94-.36ZM1105.24,94.26c-4.97,2.66-7.78,4.61-11.38,8.93-.36.43-.5.94-.5,1.51,0,1.22.86,2.52,2.88,2.52h.07c3.38-.07,6.19-5.04,11.23-6.62.43-.14.79-1.44.79-2.88,0-1.8-.58-3.82-2.02-3.82-.29,0-.65.14-1.08.36Z"/>
        <path class="cls-1" d="M1149.31,94.54c-.72-.29-1.44-.5-2.09-.5-.79,0-1.51.29-2.23,1.37-3.17,4.75-1.94,8.79-4.1,14.04-.5,1.15-1.58,1.73-2.66,1.73s-2.16-.65-2.52-1.94c-.86-3.46-1.51-5.26-2.59-8.64-1.22-3.74-4.03-6.55-4.03-9.5,0-.36.07-.72.14-1.08.29-1.01,1.37-1.58,2.45-1.58.58,0,1.22.14,1.66.5,3.82,2.88,3.02,3.82,3.89,7.99.14.58.65,1.08,1.29,1.08.43,0,.94-.29,1.3-1.08,1.58-3.46.29-7.42,4.97-8.42.72-.14,1.44-.22,2.09-.22,1.8,0,3.38.5,4.61,1.73.43.43.65,1.15.65,1.94,0,1.37-.65,2.74-2.02,2.74-.22,0-.5,0-.79-.14Z"/>
        <path class="cls-1" d="M1165.87,133.64c-2.66,0-5.4-1.15-7.85-3.24-2.45-2.09-4.68-6.91-4.68-9.94,0-1.51.58-2.59,2.09-2.59h.43c3.31.43-.86,8.78,5.83,10.37.86.22,1.73.29,2.52.29,8.57,0,13.11-10.87,13.11-17.86,0-.43-.07-.86-.07-1.22-.29-3.46.07-3.17-.65-8.86-.07-.65-.36-1.66-1.08-1.66-.29,0-.65.22-1.08.58-1.51,1.3-5.47,8.64-10.37,8.64-.43,0-.86-.07-1.3-.22-3.67-1.01-6.41-3.82-6.41-7.42,0-2.95,1.8-6.55,6.12-10.23,3.02-2.59,7.71-5.11,11.59-5.11,2.16,0,4.1.79,5.33,2.88,1.44,2.45,1.8,4.18,1.8,5.9,0,1.51-.36,3.02-.36,4.97,0,.36.07.79.07,1.22.22,2.95.43,5.83.43,8.64,0,6.77-1.15,13.18-6.05,19.44-2.88,3.67-6.19,5.4-9.43,5.4ZM1171.91,91.02c-1.44,0-4.1,1.73-6.77,3.1-2.23,1.08-3.67,3.89-3.67,6.05,0,.86.22,1.58.65,2.16.5.65,1.22.94,1.94.94,1.8,0,3.89-1.58,4.97-3.31,2.16-3.38,4.1-5.98,4.1-7.56,0-.43-.14-.79-.43-1.08-.22-.14-.43-.29-.79-.29Z"/>
        <path class="cls-1" d="M1192,78.13c-3.31,0-5.47-2.02-6.91-4.32-.22-.36-.29-.65-.29-1.01,0-.94.79-1.87,2.59-1.87.22,0,.43.07.72.07,2.95.36,4.9,1.15,7.13,2.81.65.43.86,1.01.86,1.58,0,1.15-1.15,2.3-2.38,2.52-.65.14-1.22.22-1.73.22ZM1192.65,111.83c-2.38-2.59-3.75-5.33-3.89-8.21-.14-3.1-.14-5.47-.14-7.92v-2.59c0-1.58-.07-3.31-.07-5.26v-.07c0-1.22.79-1.73,1.73-1.73,1.73,0,4.18,1.58,4.1,3.6v.14c-.07,3.53-.94,6.34-.94,9.14,0,1.73.29,3.38,1.15,5.33,1.08,2.38,2.23,3.46,3.89,5.4.29.36.43.72.43,1.01,0,1.15-2.02,1.87-3.89,1.87-1.01,0-1.94-.22-2.38-.72Z"/>
        <path class="cls-1" d="M1226.42,115.93c-6.05-2.74-3.24-12.46-5.4-16.2-.87-1.58-1.58-2.23-2.16-2.23-.43,0-.87.36-1.3.94-2.66,3.38-2.38,7.56-5.62,9.72-.94.65-1.8.86-2.45.86-2.59,0-3.6-3.46-3.6-4.9v-1.22c0-5.18-1.37-9.94-3.46-12.89-.14-.22-.22-.5-.22-.86,0-1.66,2.09-4.25,4.39-4.25.43,0,.94.07,1.44.36,2.16,1.15,1.44,6.84,2.59,11.45.29,1.3.86,1.87,1.51,1.87.5,0,1.15-.43,1.73-1.01,2.45-2.45,2.59-3.89,4.1-7.78.29-.65.79-.94,1.51-.94,1.37,0,3.31,1.15,4.1,2.45,3.17,5.11,2.81,19.01,5.83,20.31,1.3.58,1.87,1.44,1.87,2.23,0,1.3-1.3,2.52-3.03,2.52-.58,0-1.22-.14-1.87-.43Z"/>
        <path class="cls-1" d="M1251.55,92.31c-.5,0-.87-.14-.87-.65v-.14c0-.22.07-.43.07-.65,0-1.3-.79-1.94-1.66-1.94-.22,0-.5.07-.79.22-1.66.79-2.95,1.8-5.19,2.59-.43.14-.65.65-.65,1.15,0,.43.14.94.43,1.22,4.32,4.18,6.77,6.26,10.37,10.8.86,1.15,1.3,2.3,1.3,3.53,0,1.44-.58,2.74-1.73,3.82-2.09,1.94-8.71,4.75-13.03,4.75-1.08,0-2.09-.22-2.74-.65-1.51-.94-2.09-2.09-2.09-3.02,0-1.22,1.01-2.23,2.45-2.23.43,0,.86.07,1.37.29.79.36,1.66.5,2.45.5,1.8,0,3.67-.72,5.54-1.8.86-.5,1.22-1.08,1.22-1.73,0-.94-.65-1.94-1.44-3.02-5.04-6.91-9.94-6.98-11.23-10.8-.29-.79-.43-1.58-.43-2.38,0-1.8.87-3.31,2.59-4.1,3.6-1.58,9.36-5.04,12.53-5.04.36,0,.65,0,.86.07,3.6,1.01,4.75,2.66,4.75,4.9,0,.58-.07,1.15-.22,1.8-.29,1.22-2.59,2.52-3.89,2.52Z"/>
      </g>
      <g>
        <path class="cls-1" d="M503.05,47.66c-.94-4.97-.5-7.49-1.44-12.82-.14-.65-.5-1.15-1.15-1.15h-7.99c-2.45,0-4.61,1.22-5.11,3.6-1.08,5.11-.58,6.91-4.03,12.82-1.01,1.66-2.38,2.45-3.6,2.45-1.58,0-2.95-1.22-2.95-3.38,0-.43.07-.94.22-1.51,1.51-5.76,2.16-5.4,3.89-10.37.07-.22.14-.43.14-.65,0-1.08-1.01-1.73-1.87-2.81-.36-.43-.5-.86-.5-1.44,0-1.58,1.44-3.46,3.1-3.6,1.51-.14,2.23-.14,3.17-2.3,4.61-10.51,4.03-13.39,8.35-23.26.79-1.87,2.09-2.74,3.31-2.74,1.51,0,2.95,1.22,3.74,3.31,2.88,7.78,3.6,15.19,4.61,23.55.65,5.47,1.44,11.31,3.1,18.07.14.72.5,1.66.5,2.52,0,1.58-1.08,2.3-2.23,2.3-1.37,0-2.95-.94-3.24-2.59ZM499.01,13.82c-.14-1.3-1.08-2.02-2.09-2.02-.86,0-1.73.58-2.09,1.87-1.15,4.1-1.87,6.34-3.17,10.08-.22.65-.79,2.02-.79,2.45,0,.58.43,1.15,1.08,1.3,1.22.29,2.45.29,3.74.29h3.6c.65,0,1.15-.36,1.15-1.01,0-.36-.07-1.37-.14-1.94-.29-3.82-.79-6.62-1.3-11.02Z"/>
        <path class="cls-1" d="M536.67,46.51c-6.05-2.74-3.24-12.46-5.4-16.2-.86-1.58-1.58-2.23-2.16-2.23-.43,0-.86.36-1.3.94-2.66,3.38-2.38,7.56-5.62,9.72-.94.65-1.8.86-2.45.86-2.59,0-3.6-3.46-3.6-4.9v-1.22c0-5.18-1.37-9.94-3.46-12.89-.14-.22-.22-.5-.22-.86,0-1.66,2.09-4.25,4.39-4.25.43,0,.94.07,1.44.36,2.16,1.15,1.44,6.84,2.59,11.45.29,1.3.86,1.87,1.51,1.87.5,0,1.15-.43,1.73-1.01,2.45-2.45,2.59-3.89,4.1-7.78.29-.65.79-.94,1.51-.94,1.37,0,3.31,1.15,4.1,2.45,3.17,5.11,2.81,19.01,5.83,20.31,1.3.58,1.87,1.44,1.87,2.23,0,1.3-1.3,2.52-3.02,2.52-.58,0-1.22-.14-1.87-.43Z"/>
        <path class="cls-1" d="M568.56,46.51c-6.05-2.74-3.24-12.46-5.4-16.2-.86-1.58-1.58-2.23-2.16-2.23-.43,0-.86.36-1.3.94-2.66,3.38-2.38,7.56-5.62,9.72-.94.65-1.8.86-2.45.86-2.59,0-3.6-3.46-3.6-4.9v-1.22c0-5.18-1.37-9.94-3.46-12.89-.14-.22-.22-.5-.22-.86,0-1.66,2.09-4.25,4.39-4.25.43,0,.94.07,1.44.36,2.16,1.15,1.44,6.84,2.59,11.45.29,1.3.86,1.87,1.51,1.87.5,0,1.15-.43,1.73-1.01,2.45-2.45,2.59-3.89,4.1-7.78.29-.65.79-.94,1.51-.94,1.37,0,3.31,1.15,4.1,2.45,3.17,5.11,2.81,19.01,5.83,20.31,1.3.58,1.87,1.44,1.87,2.23,0,1.3-1.3,2.52-3.02,2.52-.58,0-1.22-.14-1.87-.43Z"/>
        <path class="cls-1" d="M589.08,44.28c-3.31,0-6.48-1.51-8.93-4.25-1.94-2.16-3.02-4.9-3.02-7.27,0-5.54,2.88-8.93,7.34-11.74,2.66-1.66,4.18-2.38,6.26-4.54,1.22-1.3,2.52-1.8,3.67-1.8,1.58,0,2.95,1.01,3.46,2.45,1.37,3.89,3.96,7.49,3.96,11.88,0,2.09-.58,4.1-1.22,5.69-2.09,5.33-6.12,9.58-11.52,9.58ZM595.56,24.19c-.65,0-1.3,1.44-2.59,1.44-.58,0-1.08-.22-1.66-.65s-1.01-.94-1.8-.94c-.58,0-1.44.36-2.88,1.3-2.3,1.58-3.67,3.31-3.67,6.34,0,2.66.5,4.46,2.09,5.76,1.22,1.08,3.31,1.58,4.82,1.58,2.95,0,5.04-1.66,6.7-4.39.86-1.37,1.15-2.88,1.15-4.39,0-2.09-.65-4.1-1.58-5.54-.22-.36-.43-.5-.58-.5Z"/>
        <path class="cls-1" d="M622.99,27.86c-1.73,0-3.38-.14-4.61-.14h-.07c-1.08,0-2.16.72-2.09,1.8v.14c.36,10.15,2.81,10.15,3.24,13.18v.29c0,1.37-1.44,2.59-3.02,2.59-.86,0-1.8-.36-2.59-1.37-2.74-3.53-1.3-11.74-2.59-14.69-.5-1.15-.43-2.3-1.51-2.81-1.37-.65-2.38-.94-4.1-2.16-.58-.43-.86-1.15-.86-1.94,0-1.3.65-2.59,1.73-2.81.5-.07.94-.07,1.37-.07.5,0,1.01.07,1.66.07.94,0,2.09-.65,1.94-1.51-1.01-6.12-2.16-8.14-2.16-13.39,0-1.37,1.01-1.94,2.23-1.94,2.09,0,4.97,1.66,4.97,3.89,0,.22,0,.43-.07.65-.58,2.23-.79,3.96-.79,5.76,0,2.02.29,4.03.58,6.55.14,1.22,1.01,1.87,2.16,1.94,2.3.07,4.1.14,5.62.14,6.19,0,6.26-.72,7.78-1.66.43-.29.79-.36,1.15-.36.94,0,1.51,1.01,1.51,2.09,0,.86-.29,1.73-.94,2.38-2.81,2.88-6.91,3.38-10.51,3.38Z"/>
        <path class="cls-1" d="M672.1,45.29c-4.39-3.74-5.76-7.42-7.2-12.96-.43-1.73-1.3-2.38-2.09-2.38s-1.58.5-2.09,1.08c-4.18,4.54-7.13,7.49-12.67,10.66-1.94,1.08-3.67,1.58-5.18,1.58-4.39,0-7.06-3.89-7.06-7.7,0-1.37.36-2.81,1.15-3.96,4.39-6.55,10.15-9.65,15.99-12.39,1.58-.72,3.17-1.3,4.68-1.3,1.08,0,2.16.29,3.1,1.15.79.72,1.44,1.22,2.09,1.22.58,0,1.15-.36,1.94-1.37.43-.5.94-.79,1.51-.79,1.3,0,2.66,1.15,3.24,2.38,2.3,5.18-.72,17.5,6.05,19.44.58.14.79.65.79,1.3,0,1.66-1.66,4.39-3.31,4.39-.29,0-.65-.07-.94-.36ZM653.52,24.84c-4.97,2.66-7.78,4.61-11.38,8.93-.36.43-.5.94-.5,1.51,0,1.22.86,2.52,2.88,2.52h.07c3.38-.07,6.19-5.04,11.23-6.62.43-.14.79-1.44.79-2.88,0-1.8-.58-3.82-2.02-3.82-.29,0-.65.14-1.08.36Z"/>
        <path class="cls-1" d="M695.64,27.86c-1.73,0-3.38-.14-4.61-.14h-.07c-1.08,0-2.16.72-2.09,1.8v.14c.36,10.15,2.81,10.15,3.24,13.18v.29c0,1.37-1.44,2.59-3.02,2.59-.86,0-1.8-.36-2.59-1.37-2.74-3.53-1.3-11.74-2.59-14.69-.5-1.15-.43-2.3-1.51-2.81-1.37-.65-2.38-.94-4.1-2.16-.58-.43-.86-1.15-.86-1.94,0-1.3.65-2.59,1.73-2.81.5-.07.94-.07,1.37-.07.5,0,1.01.07,1.66.07.94,0,2.09-.65,1.94-1.51-1.01-6.12-2.16-8.14-2.16-13.39,0-1.37,1.01-1.94,2.23-1.94,2.09,0,4.97,1.66,4.97,3.89,0,.22,0,.43-.07.65-.58,2.23-.79,3.96-.79,5.76,0,2.02.29,4.03.58,6.55.14,1.22,1.01,1.87,2.16,1.94,2.3.07,4.1.14,5.62.14,6.19,0,6.26-.72,7.78-1.66.43-.29.79-.36,1.15-.36.94,0,1.51,1.01,1.51,2.09,0,.86-.29,1.73-.94,2.38-2.81,2.88-6.91,3.38-10.51,3.38Z"/>
        <path class="cls-1" d="M729.34,46.73c-2.88,0-5.69-.36-7.78-1.08-6.19-2.02-12.67-5.18-12.67-11.45,0-.58,0-1.15.14-1.8,1.3-6.91,5.11-10.01,10.66-13.54,3.67-2.3,7.34-3.89,11.02-3.89,2.02,0,4.03.5,6.12,1.58,2.09,1.08,3.1,2.95,3.1,4.9,0,1.58-.65,3.24-2.09,4.61-4.32,4.25-8.35,3.67-13.68,6.05-2.16.94-3.89,1.37-5.26,1.37-1.51,0-2.59-.5-3.1-1.22-.14-.22-.5-.5-.79-.5-.65,0-.72,1.22-.72,1.8,0,4.68,5.83,6.62,10.3,7.78,2.59.65,4.68.94,6.84.94,2.52,0,4.97-.36,8.14-.94.14,0,.29-.07.43-.07,1.08,0,1.58.86,1.58,1.66,0,.5-.22.94-.58,1.15-2.88,1.87-7.42,2.66-11.67,2.66ZM715.8,27.36c-.43.43-.65,1.01-.65,1.37,0,.43.22.72.65.72.22,0,.5-.07.86-.22,3.89-1.58,11.23-1.44,16.99-5.76.65-.43.86-1.01.86-1.58,0-1.08-1.01-2.16-2.16-2.16-5.54.29-12.67,3.46-16.56,7.63Z"/>
        <path class="cls-1" d="M781.97,42.05c-1.22,0-2.3-.43-3.17-1.3-2.74-2.74-2.88-5.33-4.61-8.79-.29-.58-1.22-1.22-2.16-1.22-.58,0-1.15.29-1.58.94-3.31,5.18-5.83,8.42-11.38,10.94-2.45,1.15-4.54,1.58-6.34,1.58-4.54,0-6.91-2.88-6.91-5.83,0-1.15.36-2.3,1.15-3.24,5.98-7.56,14.4-11.67,21.17-15.55.86-.5,1.87-1.08,1.87-2.09v-.07c-.14-4.18-.72-8.06-1.58-12.53v-.29c0-.94.79-1.73,1.87-1.73.5,0,1.15.22,1.73.72,2.45,2.09,4.68,5.54,4.75,9.79.14,6.34.5,21.89,7.92,25.2.86.43,1.22.86,1.22,1.3,0,.72-.86,1.37-1.8,1.73-.72.29-1.51.43-2.16.43ZM767.57,24.77c-4.54,2.59-11.38,6.26-15.7,11.23-.36.43-.5.94-.5,1.44,0,1.15.72,2.23,2.45,2.23.58,0,1.37-.14,2.23-.5,6.55-2.59,9.72-8.06,13.25-12.24.43-.5.58-.94.58-1.3,0-.72-.65-1.08-1.37-1.08-.29,0-.65.07-.94.22Z"/>
      </g>
      <g>
        <g>
          <path class="cls-2" d="M472.19,106.14c63.78-20.93,132.24-20.71,199.36-22.03,44.03-.86,88.05-2.47,132.03-4.81"/>
          <path class="cls-2" d="M472.59,107.59c20.03-6.56,40.67-11.09,61.5-14.19s42.08-4.8,63.23-5.82,42.45-1.37,63.68-1.76c22.29-.4,44.58-.95,66.87-1.7s44.84-1.72,67.25-2.86c2.82-.14,5.64-.29,8.46-.44,1.92-.1,1.93-3.1,0-3-22.57,1.2-45.15,2.21-67.74,3.03s-45.04,1.42-67.57,1.85c-21.23.4-42.46.69-63.67,1.56s-42.45,2.35-63.51,5.16-41.55,6.84-61.71,12.91c-2.54.76-5.07,1.56-7.59,2.38-1.83.6-1.04,3.5.8,2.89h0Z"/>
        </g>
        <g>
          <path class="cls-2" d="M467.22,64.28c99.19,7.37,197.82,22.42,294.7,44.97"/>
          <path class="cls-2" d="M467.22,65.78c19.32,1.44,38.62,3.16,57.88,5.18s38.56,4.33,57.79,6.93c19.2,2.6,38.36,5.49,57.47,8.66,19.11,3.18,38.17,6.64,57.18,10.39s37.96,7.78,56.84,12.1c2.38.54,4.76,1.09,7.14,1.65,1.88.44,2.68-2.45.8-2.89-18.95-4.41-37.96-8.53-57.03-12.37-19.07-3.83-38.2-7.38-57.38-10.64s-38.41-6.22-57.68-8.9-38.52-5.06-57.83-7.16c-19.26-2.09-38.55-3.89-57.86-5.4-2.43-.19-4.87-.38-7.3-.56-1.93-.14-1.92,2.86,0,3h0Z"/>
        </g>
      </g>
    </g>
  </g>
</svg>