<?xml version="1.0" encoding="UTF-8"?>
<svg id="Layer_2" data-name="Layer 2" xmlns="http://www.w3.org/2000/svg" viewBox="0 0 205.02 221.99">
  <defs>
    <style>
      .cls-1 {
        fill: none;
      }

      .cls-2 {
        fill: #f6f3eb;
      }
    </style>
  </defs>
  <g id="Layer_1-2" data-name="Layer 1">
    <rect class="cls-1" x=".1" width="204.82" height="221.99"/>
    <path class="cls-2" d="M205.02,211.53c-.03-1.52-.91-2.86-2.23-3.29,0,0,0,0,0,0-.05-.01-.09-.03-.14-.04-.02,0-.04-.01-.07-.02-1.61-.43-3.28-.46-4.93-.58-1.7-.13-3.39-.25-5.09-.37-3.26-.23-6.53-.44-9.79-.63-6.53-.38-13.07-.7-19.61-.95-13.08-.5-26.16-.72-39.25-.68-26.05.09-52.1,1.3-78.07,3.6-14.71,1.3-29.39,2.94-44.03,4.9-1.29.17-2.05,1.9-1.76,3.13.35,1.5,1.62,2.03,2.92,1.87,25.78-3.17,51.68-5.25,77.61-6.27,25.89-1.02,51.82-1.05,77.71,0,7.19.29,14.38.67,21.56,1.12,3.66.23,7.31.49,10.97.76,1.83.14,3.65.28,5.48.43,1.8.15,3.69.5,5.48.29,1.63-.19,3.26-1.31,3.22-3.28h0Z"/>
  </g>
</svg>