<?xml version="1.0" encoding="UTF-8"?>
<svg id="Layer_2" xmlns="http://www.w3.org/2000/svg" version="1.1" viewBox="0 0 821.3 61.1">
  <!-- Generator: Adobe Illustrator 29.5.1, SVG Export Plug-In . SVG Version: 2.1.0 Build 141)  -->
  <defs>
    <style>
      .st0 {
        fill: #fff;
        stroke: #fff;
        stroke-miterlimit: 10;
      }
    </style>
  </defs>
  <g id="Layer_1-2">
    <g>
      <g>
        <path class="st0" d="M23.7.8c3.2,0,6,.5,8.2,1.4,2.3.9,4.1,2.2,5.5,3.7,1.4,1.5,2.5,3.3,3.1,5.3.7,2,1,4,1,6.1s-.3,4.1-1,6.1-1.7,3.8-3.1,5.3c-1.4,1.5-3.2,2.8-5.5,3.7s-5,1.4-8.2,1.4h-11.9v18.4H.5V.8h23.2ZM20.6,25c1.3,0,2.5-.1,3.7-.3,1.2-.2,2.3-.6,3.2-1.1.9-.5,1.6-1.3,2.2-2.3.5-1,.8-2.3.8-4s-.3-2.9-.8-4-1.3-1.8-2.2-2.3c-.9-.6-2-.9-3.2-1.1-1.2-.2-2.5-.3-3.7-.3h-8.8v15.4h8.8Z"/>
        <path class="st0" d="M47,26.5c.1-2.4.7-4.4,1.8-6,1.1-1.6,2.4-2.9,4-3.8,1.6-1,3.5-1.6,5.5-2.1s4.1-.6,6.2-.6,3.8.1,5.7.4c1.9.3,3.7.8,5.3,1.6,1.6.8,2.9,1.8,3.9,3.2,1,1.4,1.5,3.2,1.5,5.4v19.4c0,1.7,0,3.3.3,4.8.2,1.5.5,2.7,1,3.5h-10.4c-.2-.6-.3-1.2-.5-1.8s-.2-1.2-.2-1.8c-1.6,1.7-3.6,2.9-5.8,3.5s-4.5,1-6.8,1-3.4-.2-5-.7-2.9-1.1-4-2c-1.2-.9-2-2.1-2.7-3.5-.7-1.4-1-3-1-5s.4-3.8,1.1-5.2c.7-1.4,1.7-2.5,2.9-3.3s2.5-1.4,4-1.8,3-.7,4.6-1c1.5-.2,3-.4,4.5-.6,1.5-.1,2.8-.4,4-.6,1.2-.3,2.1-.7,2.7-1.3.7-.5,1-1.4.9-2.4,0-1.1-.2-2-.5-2.6-.4-.6-.8-1.1-1.4-1.5-.6-.4-1.3-.6-2.1-.7-.8-.1-1.6-.2-2.6-.2-2,0-3.6.4-4.8,1.3-1.2.9-1.8,2.3-2,4.3h-10.2ZM70.6,34c-.4.4-1,.7-1.6.9s-1.3.4-2.1.5c-.7.1-1.5.3-2.3.4-.8,0-1.6.2-2.5.4-.8.1-1.5.3-2.3.6-.7.2-1.4.6-1.9,1s-1,.9-1.3,1.5c-.3.6-.5,1.4-.5,2.4s.2,1.7.5,2.3.8,1.1,1.4,1.5c.6.4,1.2.6,2,.8.8.1,1.6.2,2.4.2,2,0,3.6-.3,4.7-1s1.9-1.5,2.4-2.4c.5-.9.8-1.9,1-2.8s.2-1.7.2-2.3v-3.8h0Z"/>
        <path class="st0" d="M114,52.2v-5.2h-.2c-1.3,2.2-3,3.7-5,4.7s-4.2,1.4-6.3,1.4-5-.4-6.7-1.1-3.1-1.7-4.1-3.1-1.7-2.9-2.1-4.8c-.4-1.9-.6-4-.6-6.3V15h10.2v21c0,3.1.5,5.4,1.4,6.9,1,1.5,2.7,2.3,5.1,2.3s4.8-.8,6.1-2.5c1.2-1.7,1.9-4.4,1.9-8.2V15h10.2v37.2h-9.7,0Z"/>
        <path class="st0" d="M142,.8v51.4h-10.2V.8h10.2Z"/>
        <path class="st0" d="M167.1,10.3V.8h42.1v9.5h-15.4v41.9h-11.3V10.3h-15.4,0Z"/>
        <path class="st0" d="M224.3.8v19.4h.2c1.3-2.2,2.9-3.7,5-4.7,2-1,4-1.5,5.9-1.5,2.7,0,5,.4,6.7,1.1s3.1,1.8,4.1,3.1,1.7,2.9,2.1,4.8c.4,1.9.6,4,.6,6.3v22.9h-10.2v-21c0-3.1-.5-5.4-1.4-6.9-1-1.5-2.7-2.3-5.1-2.3s-4.8.8-6.1,2.5c-1.2,1.7-1.9,4.4-1.9,8.2v19.5h-10.2V.8h10.2Z"/>
        <path class="st0" d="M257,25.6c.9-2.4,2.2-4.5,3.9-6.2,1.7-1.7,3.7-3,6-4,2.4-.9,5-1.4,7.9-1.4s5.6.5,8,1.4,4.4,2.3,6.1,4,3,3.8,3.9,6.2,1.4,5.1,1.4,8.1-.5,5.7-1.4,8.1-2.2,4.5-3.9,6.2c-1.7,1.7-3.7,3-6.1,3.9-2.4.9-5,1.4-8,1.4s-5.6-.5-7.9-1.4-4.4-2.2-6-3.9c-1.7-1.7-3-3.8-3.9-6.2s-1.4-5.1-1.4-8.1.5-5.7,1.4-8.1ZM266.2,38c.3,1.4.8,2.7,1.5,3.8s1.6,2,2.8,2.7c1.1.7,2.6,1,4.3,1s3.2-.3,4.4-1,2.1-1.6,2.8-2.7,1.2-2.4,1.5-3.8.4-2.9.4-4.4-.1-3-.4-4.4c-.3-1.4-.8-2.7-1.5-3.8-.7-1.1-1.6-2-2.8-2.7s-2.6-1-4.4-1-3.2.4-4.3,1c-1.1.7-2.1,1.6-2.8,2.7-.7,1.1-1.2,2.4-1.5,3.8-.3,1.4-.4,2.9-.4,4.4s.1,2.9.4,4.4Z"/>
        <path class="st0" d="M310.7,15v5h.1c1.3-1.9,3-3.4,4.9-4.5,1.9-1.1,4.1-1.6,6.5-1.6s4.5.5,6.4,1.4,3.4,2.5,4.4,4.8c1.1-1.6,2.6-3.1,4.5-4.3s4.1-1.9,6.7-1.9,3.8.2,5.5.7c1.7.5,3.1,1.2,4.3,2.3,1.2,1.1,2.1,2.4,2.8,4.1.7,1.7,1,3.8,1,6.2v24.9h-10.2v-21.1c0-1.2,0-2.4-.1-3.5-.1-1.1-.4-2.1-.8-2.9-.4-.8-1.1-1.5-1.9-1.9-.8-.5-2-.7-3.4-.7s-2.6.3-3.5.8c-.9.5-1.6,1.3-2.1,2.2-.5.9-.8,1.9-1,3-.2,1.1-.2,2.3-.2,3.4v20.7h-10.2v-20.9c0-1.1,0-2.2,0-3.3,0-1.1-.2-2.1-.6-3s-1-1.6-1.8-2.2c-.8-.5-2.1-.8-3.7-.8s-1.1.1-1.9.3c-.8.2-1.6.6-2.3,1.2-.7.6-1.4,1.5-1.9,2.6s-.8,2.6-.8,4.4v21.6h-10.2V15h9.6,0Z"/>
        <path class="st0" d="M365.5,26.5c.1-2.4.7-4.4,1.8-6,1.1-1.6,2.4-2.9,4-3.8,1.6-1,3.5-1.6,5.5-2.1s4.1-.6,6.2-.6,3.8.1,5.7.4c1.9.3,3.7.8,5.3,1.6,1.6.8,2.9,1.8,3.9,3.2,1,1.4,1.5,3.2,1.5,5.4v19.4c0,1.7.1,3.3.3,4.8.2,1.5.5,2.7,1,3.5h-10.4c-.2-.6-.4-1.2-.5-1.8s-.2-1.2-.2-1.8c-1.6,1.7-3.5,2.9-5.8,3.5-2.2.7-4.5,1-6.8,1s-3.4-.2-5-.7-2.9-1.1-4-2c-1.1-.9-2-2.1-2.7-3.5-.6-1.4-1-3-1-5s.4-3.8,1.1-5.2c.7-1.4,1.7-2.5,2.9-3.3s2.5-1.4,4-1.8,3-.7,4.6-1c1.5-.2,3-.4,4.5-.6,1.5-.1,2.8-.4,4-.6,1.1-.3,2.1-.7,2.7-1.3.7-.5,1-1.4.9-2.4,0-1.1-.2-2-.5-2.6-.4-.6-.8-1.1-1.4-1.5s-1.3-.6-2.1-.7c-.8-.1-1.6-.2-2.6-.2-2,0-3.6.4-4.8,1.3-1.1.9-1.8,2.3-2,4.3h-10.2ZM389.1,34c-.4.4-1,.7-1.6.9s-1.3.4-2.1.5c-.7.1-1.5.3-2.3.4-.8,0-1.6.2-2.5.4-.8.1-1.5.3-2.3.6-.7.2-1.4.6-1.9,1s-1,.9-1.3,1.5c-.3.6-.5,1.4-.5,2.4s.2,1.7.5,2.3.8,1.1,1.4,1.5,1.2.6,2,.8c.8.1,1.6.2,2.4.2,2,0,3.6-.3,4.7-1s1.9-1.5,2.5-2.4c.5-.9.9-1.9,1-2.8s.2-1.7.2-2.3v-3.8h0Z"/>
        <path class="st0" d="M415.9,43c.5.8,1,1.4,1.8,1.9s1.5.9,2.5,1.1c.9.2,1.9.4,2.9.4s1.5,0,2.3-.2c.8-.2,1.5-.4,2.2-.8s1.2-.8,1.6-1.4.6-1.4.6-2.3c0-1.5-1-2.7-3.1-3.5s-4.9-1.5-8.5-2.3c-1.5-.3-2.9-.7-4.4-1.2-1.4-.5-2.7-1.1-3.8-1.8-1.1-.7-2-1.7-2.7-2.8s-1-2.5-1-4.1c0-2.4.5-4.4,1.4-5.9.9-1.5,2.2-2.8,3.7-3.6,1.5-.9,3.3-1.5,5.2-1.9,1.9-.4,3.9-.5,5.9-.5s4,.2,5.9.6c1.9.4,3.6,1,5.1,1.9,1.5.9,2.7,2.1,3.7,3.6,1,1.5,1.6,3.4,1.8,5.7h-9.7c-.1-2-.9-3.3-2.2-4s-2.9-1-4.8-1-1.2,0-1.9.1c-.7,0-1.3.2-1.8.5s-1,.6-1.4,1c-.4.5-.6,1.1-.6,1.8s.3,1.7,1,2.2c.7.6,1.5,1,2.6,1.4,1.1.4,2.3.7,3.7,1,1.4.3,2.8.6,4.2.9,1.5.3,2.9.7,4.4,1.2,1.4.5,2.7,1.1,3.8,1.9s2,1.8,2.7,3c.7,1.2,1,2.6,1,4.4,0,2.5-.5,4.5-1.5,6.2-1,1.7-2.3,3-3.9,4-1.6,1-3.4,1.7-5.4,2.1-2,.4-4.1.6-6.2.6s-4.3-.2-6.3-.7c-2.1-.4-3.9-1.2-5.5-2.2-1.6-1-2.9-2.3-4-4s-1.6-3.7-1.7-6.2h9.7c0,1.1.2,2,.7,2.8h0Z"/>
      </g>
      <g>
        <path class="st0" d="M494.4,54.9c-1.1-5.7-.6-8.6-1.7-14.8-.2-.8-.6-1.3-1.3-1.3h-9.2c-2.8,0-5.3,1.4-5.9,4.2-1.2,5.9-.7,8-4.6,14.8-1.2,1.9-2.7,2.8-4.1,2.8s-3.4-1.4-3.4-3.9,0-1.1.2-1.7c1.7-6.7,2.5-6.2,4.5-12,0-.2.2-.5.2-.8,0-1.2-1.2-2-2.2-3.2-.4-.5-.6-1-.6-1.7,0-1.8,1.7-4,3.6-4.2,1.7-.2,2.6-.2,3.7-2.7,5.3-12.1,4.6-15.4,9.6-26.8.9-2.2,2.4-3.2,3.8-3.2s3.4,1.4,4.3,3.8c3.3,9,4.1,17.5,5.3,27.2.8,6.3,1.7,13,3.6,20.9.2.8.6,1.9.6,2.9,0,1.8-1.2,2.7-2.6,2.7s-3.4-1.1-3.7-3h0ZM489.8,15.9c-.2-1.5-1.2-2.3-2.4-2.3s-2,.7-2.4,2.2c-1.3,4.7-2.2,7.3-3.6,11.6-.2.8-.9,2.3-.9,2.8s.5,1.3,1.2,1.5c1.4.3,2.8.3,4.3.3h4.1c.8,0,1.3-.4,1.3-1.2s0-1.6-.2-2.2c-.3-4.4-.9-7.6-1.5-12.7h0Z"/>
        <path class="st0" d="M533.2,53.6c-7-3.2-3.7-14.4-6.2-18.7-1-1.8-1.8-2.6-2.5-2.6s-1,.4-1.5,1.1c-3.1,3.9-2.7,8.7-6.5,11.2-1.1.8-2.1,1-2.8,1-3,0-4.1-4-4.1-5.7v-1.4c0-6-1.6-11.5-4-14.9-.2-.2-.2-.6-.2-1,0-1.9,2.4-4.9,5.1-4.9s1.1,0,1.7.4c2.5,1.3,1.7,7.9,3,13.2.3,1.5,1,2.2,1.7,2.2s1.3-.5,2-1.2c2.8-2.8,3-4.5,4.7-9,.3-.8.9-1.1,1.7-1.1,1.6,0,3.8,1.3,4.7,2.8,3.7,5.9,3.2,21.9,6.7,23.4,1.5.7,2.2,1.7,2.2,2.6,0,1.5-1.5,2.9-3.5,2.9s-1.4-.2-2.2-.5h0Z"/>
        <path class="st0" d="M570,53.6c-7-3.2-3.7-14.4-6.2-18.7-1-1.8-1.8-2.6-2.5-2.6s-1,.4-1.5,1.1c-3.1,3.9-2.7,8.7-6.5,11.2-1.1.8-2.1,1-2.8,1-3,0-4.2-4-4.2-5.7v-1.4c0-6-1.6-11.5-4-14.9-.2-.2-.2-.6-.2-1,0-1.9,2.4-4.9,5.1-4.9s1.1,0,1.7.4c2.5,1.3,1.7,7.9,3,13.2.3,1.5,1,2.2,1.7,2.2s1.3-.5,2-1.2c2.8-2.8,3-4.5,4.7-9,.3-.8.9-1.1,1.7-1.1,1.6,0,3.8,1.3,4.7,2.8,3.7,5.9,3.2,21.9,6.7,23.4,1.5.7,2.2,1.7,2.2,2.6,0,1.5-1.5,2.9-3.5,2.9s-1.4-.2-2.2-.5h0Z"/>
        <path class="st0" d="M593.7,51c-3.8,0-7.5-1.7-10.3-4.9-2.2-2.5-3.5-5.7-3.5-8.4,0-6.4,3.3-10.3,8.5-13.5,3.1-1.9,4.8-2.7,7.2-5.2,1.4-1.5,2.9-2.1,4.2-2.1s3.4,1.2,4,2.8c1.6,4.5,4.6,8.6,4.6,13.7s-.7,4.7-1.4,6.6c-2.4,6.2-7.1,11-13.3,11h0ZM601.2,27.8c-.8,0-1.5,1.7-3,1.7s-1.2-.2-1.9-.8-1.2-1.1-2.1-1.1-1.7.4-3.3,1.5c-2.7,1.8-4.2,3.8-4.2,7.3s.6,5.2,2.4,6.7c1.4,1.2,3.8,1.8,5.6,1.8,3.4,0,5.8-1.9,7.7-5.1,1-1.6,1.3-3.3,1.3-5.1s-.8-4.7-1.8-6.4c-.2-.4-.5-.6-.7-.6h0Z"/>
        <path class="st0" d="M632.8,32.1c-2,0-3.9-.2-5.3-.2h0c-1.2,0-2.5.8-2.4,2.1v.2c.4,11.7,3.2,11.7,3.7,15.2v.3c0,1.6-1.7,3-3.5,3s-2.1-.4-3-1.6c-3.2-4.1-1.5-13.5-3-17-.6-1.3-.5-2.7-1.8-3.2-1.6-.8-2.7-1.1-4.7-2.5-.7-.5-1-1.3-1-2.2,0-1.5.8-3,2-3.2.6,0,1.1,0,1.6,0s1.2,0,1.9,0c1.1,0,2.4-.8,2.2-1.7-1.2-7.1-2.5-9.4-2.5-15.4s1.2-2.2,2.6-2.2c2.4,0,5.7,1.9,5.7,4.5s0,.5,0,.8c-.7,2.6-.9,4.6-.9,6.7s.3,4.6.7,7.6c.2,1.4,1.2,2.2,2.5,2.2,2.7,0,4.7.2,6.5.2,7.1,0,7.2-.8,9-1.9.5-.3.9-.4,1.3-.4,1.1,0,1.7,1.2,1.7,2.4s-.3,2-1.1,2.7c-3.2,3.3-8,3.9-12.1,3.9h0Z"/>
        <path class="st0" d="M689.5,52.2c-5.1-4.3-6.7-8.6-8.3-15-.5-2-1.5-2.7-2.4-2.7s-1.8.6-2.4,1.2c-4.8,5.2-8.2,8.6-14.6,12.3-2.2,1.2-4.2,1.8-6,1.8-5.1,0-8.1-4.5-8.1-8.9s.4-3.2,1.3-4.6c5.1-7.6,11.7-11.1,18.4-14.3,1.8-.8,3.7-1.5,5.4-1.5s2.5.3,3.6,1.3c.9.8,1.7,1.4,2.4,1.4s1.3-.4,2.2-1.6c.5-.6,1.1-.9,1.7-.9,1.5,0,3.1,1.3,3.7,2.7,2.7,6-.8,20.2,7,22.4.7.2.9.8.9,1.5,0,1.9-1.9,5.1-3.8,5.1s-.8,0-1.1-.4h0ZM668,28.6c-5.7,3.1-9,5.3-13.1,10.3-.4.5-.6,1.1-.6,1.7,0,1.4,1,2.9,3.3,2.9h0c3.9,0,7.1-5.8,13-7.6.5-.2.9-1.7.9-3.3s-.7-4.4-2.3-4.4-.8.2-1.2.4h0Z"/>
        <path class="st0" d="M716.6,32.1c-2,0-3.9-.2-5.3-.2h0c-1.2,0-2.5.8-2.4,2.1v.2c.4,11.7,3.2,11.7,3.7,15.2v.3c0,1.6-1.7,3-3.5,3s-2.1-.4-3-1.6c-3.2-4.1-1.5-13.5-3-17-.6-1.3-.5-2.7-1.7-3.2-1.6-.8-2.7-1.1-4.7-2.5-.7-.5-1-1.3-1-2.2,0-1.5.8-3,2-3.2.6,0,1.1,0,1.6,0s1.2,0,1.9,0c1.1,0,2.4-.8,2.2-1.7-1.2-7.1-2.5-9.4-2.5-15.4s1.2-2.2,2.6-2.2c2.4,0,5.7,1.9,5.7,4.5s0,.5,0,.8c-.7,2.6-.9,4.6-.9,6.7s.3,4.6.7,7.6c.2,1.4,1.2,2.2,2.5,2.2,2.7,0,4.7.2,6.5.2,7.1,0,7.2-.8,9-1.9.5-.3.9-.4,1.3-.4,1.1,0,1.7,1.2,1.7,2.4s-.3,2-1.1,2.7c-3.2,3.3-8,3.9-12.1,3.9h0Z"/>
        <path class="st0" d="M755.5,53.8c-3.3,0-6.6-.4-9-1.2-7.1-2.3-14.6-6-14.6-13.2s0-1.3.2-2.1c1.5-8,5.9-11.5,12.3-15.6,4.2-2.7,8.5-4.5,12.7-4.5s4.7.6,7.1,1.8,3.6,3.4,3.6,5.6-.8,3.7-2.4,5.3c-5,4.9-9.6,4.2-15.8,7-2.5,1.1-4.5,1.6-6.1,1.6s-3-.6-3.6-1.4c-.2-.2-.6-.6-.9-.6-.8,0-.8,1.4-.8,2.1,0,5.4,6.7,7.6,11.9,9,3,.8,5.4,1.1,7.9,1.1s5.7-.4,9.4-1.1c.2,0,.3,0,.5,0,1.2,0,1.8,1,1.8,1.9s-.2,1.1-.7,1.3c-3.3,2.2-8.6,3.1-13.5,3.1h0ZM739.9,31.5c-.5.5-.8,1.2-.8,1.6s.2.8.8.8.6,0,1-.2c4.5-1.8,13-1.7,19.6-6.6.8-.5,1-1.2,1-1.8,0-1.2-1.2-2.5-2.5-2.5-6.4.3-14.6,4-19.1,8.8Z"/>
        <path class="st0" d="M816.2,48.4c-1.4,0-2.7-.5-3.7-1.5-3.2-3.2-3.3-6.2-5.3-10.1-.3-.7-1.4-1.4-2.5-1.4s-1.3.3-1.8,1.1c-3.8,6-6.7,9.7-13.1,12.6-2.8,1.3-5.2,1.8-7.3,1.8-5.2,0-8-3.3-8-6.7s.4-2.7,1.3-3.7c6.9-8.7,16.6-13.5,24.4-17.9,1-.6,2.2-1.2,2.2-2.4h0c-.2-4.9-.8-9.4-1.8-14.5v-.3c0-1.1.9-2,2.2-2s1.3.2,2,.8c2.8,2.4,5.4,6.4,5.5,11.3.2,7.3.6,25.2,9.1,29.1,1,.5,1.4,1,1.4,1.5,0,.8-1,1.6-2.1,2-.8.3-1.8.5-2.5.5h0ZM799.6,28.5c-5.2,3-13.1,7.2-18.1,13-.4.5-.6,1.1-.6,1.7,0,1.3.8,2.6,2.8,2.6s1.6-.2,2.6-.6c7.6-3,11.2-9.3,15.3-14.1.5-.6.7-1.1.7-1.5,0-.8-.8-1.2-1.6-1.2s-.8,0-1.1.2h0Z"/>
      </g>
    </g>
  </g>
</svg>