<?xml version="1.0" encoding="UTF-8"?>
<svg id="Layer_2" data-name="Layer 2" xmlns="http://www.w3.org/2000/svg" viewBox="0 0 821.28 61.06">
  <defs>
    <style>
      .cls-1 {
        fill: #f9f6ee;
        stroke: #f9f6ee;
        stroke-miterlimit: 10;
      }
    </style>
  </defs>
  <g id="Layer_1-2" data-name="Layer 1">
    <g>
      <g>
        <path class="cls-1" d="M23.68.83c3.22,0,5.95.47,8.21,1.4,2.26.94,4.09,2.17,5.51,3.71,1.42,1.54,2.45,3.29,3.1,5.26.65,1.97.97,4.01.97,6.12s-.32,4.09-.97,6.08c-.65,1.99-1.68,3.76-3.1,5.29-1.42,1.54-3.25,2.77-5.51,3.71-2.26.94-4.99,1.4-8.21,1.4h-11.88v18.43H.5V.83h23.18ZM20.59,25.02c1.3,0,2.54-.1,3.74-.29,1.2-.19,2.26-.56,3.17-1.12.91-.55,1.64-1.33,2.2-2.34.55-1.01.83-2.33.83-3.96s-.28-2.95-.83-3.96c-.55-1.01-1.28-1.79-2.2-2.34-.91-.55-1.97-.92-3.17-1.12-1.2-.19-2.45-.29-3.74-.29h-8.78v15.41h8.78Z"/>
        <path class="cls-1" d="M47.01,26.46c.14-2.4.74-4.39,1.8-5.98,1.06-1.58,2.4-2.86,4.03-3.82,1.63-.96,3.47-1.64,5.51-2.05,2.04-.41,4.09-.61,6.16-.61,1.87,0,3.77.13,5.69.4,1.92.26,3.67.78,5.26,1.55,1.58.77,2.88,1.84,3.89,3.2,1.01,1.37,1.51,3.18,1.51,5.44v19.37c0,1.68.1,3.29.29,4.82.19,1.54.53,2.69,1.01,3.46h-10.37c-.19-.58-.35-1.16-.47-1.76-.12-.6-.2-1.21-.25-1.84-1.63,1.68-3.55,2.86-5.76,3.53-2.21.67-4.46,1.01-6.77,1.01-1.78,0-3.43-.22-4.97-.65-1.54-.43-2.88-1.1-4.03-2.02-1.15-.91-2.05-2.06-2.7-3.46-.65-1.39-.97-3.05-.97-4.97,0-2.11.37-3.85,1.12-5.22.74-1.37,1.7-2.46,2.88-3.28,1.18-.82,2.52-1.43,4.03-1.84,1.51-.41,3.04-.73,4.57-.97,1.54-.24,3.05-.43,4.54-.58,1.49-.14,2.81-.36,3.96-.65,1.15-.29,2.06-.71,2.74-1.26.67-.55.98-1.36.94-2.41,0-1.1-.18-1.98-.54-2.63-.36-.65-.84-1.15-1.44-1.51-.6-.36-1.3-.6-2.09-.72-.79-.12-1.64-.18-2.56-.18-2.02,0-3.6.43-4.75,1.3-1.15.86-1.82,2.3-2.02,4.32h-10.22ZM70.63,34.02c-.43.38-.97.68-1.62.9-.65.22-1.34.4-2.09.54-.74.14-1.52.26-2.34.36-.82.1-1.63.22-2.45.36-.77.14-1.52.34-2.27.58-.74.24-1.39.56-1.94.97-.55.41-1,.92-1.33,1.55-.34.62-.5,1.42-.5,2.38s.17,1.68.5,2.3c.33.62.79,1.12,1.37,1.48.58.36,1.25.61,2.02.76.77.14,1.56.22,2.38.22,2.02,0,3.58-.34,4.68-1.01,1.1-.67,1.92-1.48,2.45-2.41.53-.94.85-1.88.97-2.84.12-.96.18-1.73.18-2.3v-3.82Z"/>
        <path class="cls-1" d="M113.97,52.23v-5.18h-.22c-1.3,2.16-2.98,3.72-5.04,4.68-2.06.96-4.18,1.44-6.34,1.44-2.74,0-4.98-.36-6.73-1.08-1.75-.72-3.13-1.74-4.14-3.06-1.01-1.32-1.72-2.93-2.12-4.82-.41-1.9-.61-4-.61-6.3V15.01h10.22v21.02c0,3.07.48,5.36,1.44,6.88.96,1.51,2.66,2.27,5.11,2.27,2.78,0,4.8-.83,6.05-2.48,1.25-1.66,1.87-4.38,1.87-8.17V15.01h10.22v37.22h-9.72Z"/>
        <path class="cls-1" d="M141.98.83v51.41h-10.22V.83h10.22Z"/>
        <path class="cls-1" d="M167.11,10.33V.83h42.12v9.5h-15.41v41.9h-11.3V10.33h-15.41Z"/>
        <path class="cls-1" d="M224.27.83v19.37h.22c1.3-2.16,2.95-3.73,4.97-4.72,2.02-.98,3.98-1.48,5.9-1.48,2.74,0,4.98.37,6.73,1.12,1.75.75,3.13,1.78,4.14,3.1,1.01,1.32,1.72,2.93,2.12,4.82.41,1.9.61,4,.61,6.3v22.9h-10.22v-21.02c0-3.07-.48-5.36-1.44-6.88-.96-1.51-2.66-2.27-5.11-2.27-2.78,0-4.8.83-6.05,2.48-1.25,1.66-1.87,4.38-1.87,8.17v19.51h-10.22V.83h10.22Z"/>
        <path class="cls-1" d="M256.96,25.56c.91-2.42,2.21-4.49,3.89-6.19,1.68-1.7,3.7-3.02,6.05-3.96,2.35-.94,4.99-1.4,7.92-1.4s5.58.47,7.96,1.4,4.4,2.26,6.08,3.96c1.68,1.7,2.98,3.77,3.89,6.19.91,2.42,1.37,5.12,1.37,8.1s-.46,5.66-1.37,8.06c-.91,2.4-2.21,4.45-3.89,6.16-1.68,1.7-3.71,3.01-6.08,3.92-2.38.91-5.03,1.37-7.96,1.37s-5.57-.46-7.92-1.37c-2.35-.91-4.37-2.22-6.05-3.92-1.68-1.7-2.98-3.76-3.89-6.16-.91-2.4-1.37-5.09-1.37-8.06s.46-5.68,1.37-8.1ZM266.25,38.01c.29,1.42.78,2.69,1.48,3.82.7,1.13,1.62,2.03,2.77,2.7,1.15.67,2.59,1.01,4.32,1.01s3.18-.34,4.36-1.01c1.18-.67,2.11-1.57,2.81-2.7.7-1.13,1.19-2.4,1.48-3.82.29-1.42.43-2.87.43-4.36s-.14-2.95-.43-4.39c-.29-1.44-.78-2.71-1.48-3.82-.7-1.1-1.63-2-2.81-2.7-1.18-.7-2.63-1.04-4.36-1.04s-3.17.35-4.32,1.04c-1.15.7-2.08,1.6-2.77,2.7-.7,1.1-1.19,2.38-1.48,3.82-.29,1.44-.43,2.9-.43,4.39s.14,2.94.43,4.36Z"/>
        <path class="cls-1" d="M310.67,15.01v5.04h.14c1.34-1.92,2.96-3.41,4.86-4.46,1.9-1.06,4.07-1.58,6.52-1.58s4.5.46,6.44,1.37c1.94.91,3.42,2.52,4.43,4.82,1.1-1.63,2.6-3.07,4.5-4.32,1.9-1.25,4.14-1.87,6.73-1.87,1.97,0,3.79.24,5.47.72,1.68.48,3.12,1.25,4.32,2.3,1.2,1.06,2.14,2.44,2.81,4.14.67,1.7,1.01,3.76,1.01,6.16v24.91h-10.22v-21.1c0-1.25-.05-2.42-.14-3.53-.1-1.1-.36-2.06-.79-2.88-.43-.82-1.07-1.46-1.91-1.94-.84-.48-1.98-.72-3.42-.72s-2.6.28-3.49.83c-.89.55-1.58,1.27-2.09,2.16-.5.89-.84,1.9-1.01,3.02-.17,1.13-.25,2.27-.25,3.42v20.74h-10.22v-20.88c0-1.1-.02-2.2-.07-3.28-.05-1.08-.25-2.08-.61-2.99-.36-.91-.96-1.64-1.8-2.2-.84-.55-2.08-.83-3.71-.83-.48,0-1.12.11-1.91.32-.79.22-1.56.62-2.3,1.22-.74.6-1.38,1.46-1.91,2.59-.53,1.13-.79,2.6-.79,4.43v21.6h-10.22V15.01h9.65Z"/>
        <path class="cls-1" d="M365.54,26.46c.14-2.4.74-4.39,1.8-5.98,1.06-1.58,2.4-2.86,4.03-3.82,1.63-.96,3.47-1.64,5.51-2.05,2.04-.41,4.09-.61,6.16-.61,1.87,0,3.77.13,5.69.4,1.92.26,3.67.78,5.26,1.55,1.58.77,2.88,1.84,3.89,3.2,1.01,1.37,1.51,3.18,1.51,5.44v19.37c0,1.68.1,3.29.29,4.82.19,1.54.53,2.69,1.01,3.46h-10.37c-.19-.58-.35-1.16-.47-1.76-.12-.6-.2-1.21-.25-1.84-1.63,1.68-3.55,2.86-5.76,3.53-2.21.67-4.46,1.01-6.77,1.01-1.78,0-3.43-.22-4.97-.65-1.54-.43-2.88-1.1-4.03-2.02-1.15-.91-2.05-2.06-2.7-3.46-.65-1.39-.97-3.05-.97-4.97,0-2.11.37-3.85,1.12-5.22.74-1.37,1.7-2.46,2.88-3.28,1.18-.82,2.52-1.43,4.03-1.84,1.51-.41,3.04-.73,4.57-.97,1.54-.24,3.05-.43,4.54-.58,1.49-.14,2.81-.36,3.96-.65,1.15-.29,2.06-.71,2.74-1.26.67-.55.98-1.36.94-2.41,0-1.1-.18-1.98-.54-2.63-.36-.65-.84-1.15-1.44-1.51-.6-.36-1.3-.6-2.09-.72-.79-.12-1.64-.18-2.56-.18-2.02,0-3.6.43-4.75,1.3-1.15.86-1.82,2.3-2.02,4.32h-10.22ZM389.15,34.02c-.43.38-.97.68-1.62.9-.65.22-1.34.4-2.09.54-.74.14-1.52.26-2.34.36-.82.1-1.63.22-2.45.36-.77.14-1.52.34-2.27.58-.74.24-1.39.56-1.94.97-.55.41-1,.92-1.33,1.55-.34.62-.5,1.42-.5,2.38s.17,1.68.5,2.3c.33.62.79,1.12,1.37,1.48.58.36,1.25.61,2.02.76.77.14,1.56.22,2.38.22,2.02,0,3.58-.34,4.68-1.01,1.1-.67,1.92-1.48,2.45-2.41.53-.94.85-1.88.97-2.84.12-.96.18-1.73.18-2.3v-3.82Z"/>
        <path class="cls-1" d="M415.9,42.98c.46.79,1.04,1.44,1.76,1.94.72.5,1.55.88,2.48,1.12.94.24,1.91.36,2.92.36.72,0,1.48-.08,2.27-.25.79-.17,1.51-.43,2.16-.79s1.19-.84,1.62-1.44c.43-.6.65-1.36.65-2.27,0-1.54-1.02-2.69-3.06-3.46-2.04-.77-4.88-1.54-8.53-2.3-1.49-.33-2.94-.73-4.36-1.19-1.42-.46-2.68-1.06-3.78-1.8-1.1-.74-1.99-1.68-2.66-2.81-.67-1.13-1.01-2.51-1.01-4.14,0-2.4.47-4.37,1.4-5.9.94-1.54,2.17-2.75,3.71-3.64,1.54-.89,3.26-1.51,5.18-1.87,1.92-.36,3.89-.54,5.9-.54s3.97.19,5.87.58c1.9.38,3.59,1.03,5.08,1.94,1.49.91,2.72,2.12,3.71,3.64.98,1.51,1.57,3.42,1.76,5.72h-9.72c-.14-1.97-.89-3.3-2.23-4-1.34-.7-2.93-1.04-4.75-1.04-.58,0-1.2.04-1.87.11-.67.07-1.29.23-1.84.47-.55.24-1.02.59-1.4,1.04-.38.46-.58,1.07-.58,1.84,0,.91.34,1.66,1.01,2.23.67.58,1.55,1.04,2.63,1.4,1.08.36,2.32.68,3.71.97,1.39.29,2.81.6,4.25.94,1.49.34,2.94.74,4.36,1.22,1.42.48,2.68,1.12,3.78,1.91,1.1.79,1.99,1.78,2.66,2.95.67,1.18,1.01,2.63,1.01,4.36,0,2.45-.49,4.5-1.48,6.16-.98,1.66-2.27,2.99-3.85,4-1.58,1.01-3.4,1.72-5.44,2.12-2.04.41-4.12.61-6.23.61s-4.27-.22-6.34-.65c-2.06-.43-3.9-1.15-5.51-2.16-1.61-1.01-2.93-2.34-3.96-4-1.03-1.66-1.6-3.73-1.69-6.23h9.72c0,1.1.23,2.05.68,2.84Z"/>
      </g>
      <g>
        <path class="cls-1" d="M494.43,54.91c-1.08-5.73-.58-8.64-1.66-14.79-.17-.75-.58-1.33-1.33-1.33h-9.22c-2.82,0-5.32,1.41-5.9,4.15-1.25,5.9-.66,7.97-4.65,14.79-1.16,1.91-2.74,2.82-4.15,2.82-1.83,0-3.41-1.41-3.41-3.9,0-.5.08-1.08.25-1.74,1.74-6.65,2.49-6.23,4.49-11.96.08-.25.17-.5.17-.75,0-1.25-1.16-1.99-2.16-3.24-.42-.5-.58-1-.58-1.66,0-1.83,1.66-3.99,3.57-4.15,1.74-.17,2.57-.17,3.66-2.66,5.32-12.13,4.65-15.45,9.64-26.83.91-2.16,2.41-3.16,3.82-3.16,1.74,0,3.41,1.41,4.32,3.82,3.32,8.97,4.15,17.53,5.32,27.16.75,6.31,1.66,13.04,3.57,20.85.17.83.58,1.91.58,2.91,0,1.83-1.25,2.66-2.57,2.66-1.58,0-3.41-1.08-3.74-2.99ZM489.78,15.87c-.17-1.5-1.25-2.33-2.41-2.33-1,0-1.99.66-2.41,2.16-1.33,4.74-2.16,7.31-3.65,11.63-.25.75-.91,2.33-.91,2.82,0,.66.5,1.33,1.25,1.5,1.41.33,2.82.33,4.32.33h4.15c.75,0,1.33-.42,1.33-1.16,0-.42-.08-1.58-.17-2.24-.33-4.4-.91-7.64-1.5-12.71Z"/>
        <path class="cls-1" d="M533.22,53.58c-6.98-3.16-3.74-14.37-6.23-18.69-1-1.83-1.83-2.58-2.49-2.58-.5,0-1,.42-1.5,1.08-3.07,3.9-2.74,8.72-6.48,11.21-1.08.75-2.08,1-2.82,1-2.99,0-4.15-3.99-4.15-5.65v-1.41c0-5.98-1.58-11.46-3.99-14.87-.17-.25-.25-.58-.25-1,0-1.91,2.41-4.9,5.07-4.9.5,0,1.08.08,1.66.42,2.49,1.33,1.66,7.89,2.99,13.21.33,1.5,1,2.16,1.74,2.16.58,0,1.33-.5,1.99-1.16,2.82-2.82,2.99-4.49,4.74-8.97.33-.75.91-1.08,1.74-1.08,1.58,0,3.82,1.33,4.73,2.82,3.66,5.9,3.24,21.93,6.73,23.43,1.5.66,2.16,1.66,2.16,2.57,0,1.5-1.5,2.91-3.49,2.91-.66,0-1.41-.17-2.16-.5Z"/>
        <path class="cls-1" d="M570.01,53.58c-6.98-3.16-3.74-14.37-6.23-18.69-1-1.83-1.83-2.58-2.49-2.58-.5,0-1,.42-1.5,1.08-3.07,3.9-2.74,8.72-6.48,11.21-1.08.75-2.08,1-2.82,1-2.99,0-4.15-3.99-4.15-5.65v-1.41c0-5.98-1.58-11.46-3.99-14.87-.17-.25-.25-.58-.25-1,0-1.91,2.41-4.9,5.07-4.9.5,0,1.08.08,1.66.42,2.49,1.33,1.66,7.89,2.99,13.21.33,1.5,1,2.16,1.74,2.16.58,0,1.33-.5,1.99-1.16,2.82-2.82,2.99-4.49,4.74-8.97.33-.75.91-1.08,1.74-1.08,1.58,0,3.82,1.33,4.73,2.82,3.66,5.9,3.24,21.93,6.73,23.43,1.5.66,2.16,1.66,2.16,2.57,0,1.5-1.5,2.91-3.49,2.91-.66,0-1.41-.17-2.16-.5Z"/>
        <path class="cls-1" d="M593.69,51.01c-3.82,0-7.48-1.74-10.3-4.9-2.24-2.49-3.49-5.65-3.49-8.39,0-6.4,3.32-10.3,8.47-13.54,3.07-1.91,4.82-2.74,7.23-5.23,1.41-1.5,2.91-2.08,4.24-2.08,1.83,0,3.41,1.16,3.99,2.82,1.58,4.49,4.57,8.64,4.57,13.71,0,2.41-.66,4.74-1.41,6.56-2.41,6.15-7.06,11.05-13.29,11.05ZM601.16,27.83c-.75,0-1.5,1.66-2.99,1.66-.66,0-1.25-.25-1.91-.75s-1.16-1.08-2.08-1.08c-.66,0-1.66.42-3.32,1.5-2.66,1.83-4.24,3.82-4.24,7.31,0,3.07.58,5.15,2.41,6.65,1.41,1.25,3.82,1.83,5.57,1.83,3.41,0,5.82-1.91,7.73-5.07,1-1.58,1.33-3.32,1.33-5.07,0-2.41-.75-4.74-1.83-6.4-.25-.42-.5-.58-.66-.58Z"/>
        <path class="cls-1" d="M632.81,32.07c-1.99,0-3.9-.17-5.32-.17h-.08c-1.25,0-2.49.83-2.41,2.08v.17c.42,11.71,3.24,11.71,3.74,15.2v.33c0,1.58-1.66,2.99-3.49,2.99-1,0-2.08-.42-2.99-1.58-3.16-4.07-1.5-13.54-2.99-16.95-.58-1.33-.5-2.66-1.75-3.24-1.58-.75-2.74-1.08-4.74-2.49-.66-.5-1-1.33-1-2.24,0-1.5.75-2.99,1.99-3.24.58-.08,1.08-.08,1.58-.08.58,0,1.16.08,1.91.08,1.08,0,2.41-.75,2.24-1.74-1.16-7.06-2.49-9.39-2.49-15.45,0-1.58,1.16-2.24,2.58-2.24,2.41,0,5.73,1.91,5.73,4.49,0,.25,0,.5-.08.75-.66,2.57-.91,4.57-.91,6.65,0,2.33.33,4.65.66,7.56.17,1.41,1.16,2.16,2.49,2.24,2.66.08,4.74.17,6.48.17,7.14,0,7.23-.83,8.97-1.91.5-.33.91-.42,1.33-.42,1.08,0,1.74,1.16,1.74,2.41,0,1-.33,1.99-1.08,2.74-3.24,3.32-7.98,3.9-12.13,3.9Z"/>
        <path class="cls-1" d="M689.46,52.17c-5.07-4.32-6.65-8.56-8.31-14.95-.5-1.99-1.5-2.74-2.41-2.74s-1.83.58-2.41,1.25c-4.82,5.23-8.22,8.64-14.62,12.29-2.24,1.25-4.24,1.83-5.98,1.83-5.07,0-8.14-4.49-8.14-8.89,0-1.58.42-3.24,1.33-4.57,5.07-7.56,11.71-11.13,18.44-14.29,1.83-.83,3.66-1.5,5.4-1.5,1.25,0,2.49.33,3.57,1.33.91.83,1.66,1.41,2.41,1.41.66,0,1.33-.42,2.24-1.58.5-.58,1.08-.91,1.74-.91,1.5,0,3.07,1.33,3.74,2.74,2.66,5.98-.83,20.19,6.98,22.43.66.17.91.75.91,1.5,0,1.91-1.91,5.07-3.82,5.07-.33,0-.75-.08-1.08-.42ZM668.03,28.58c-5.73,3.07-8.97,5.32-13.13,10.3-.42.5-.58,1.08-.58,1.74,0,1.41,1,2.91,3.32,2.91h.08c3.9-.08,7.14-5.81,12.96-7.64.5-.17.91-1.66.91-3.32,0-2.08-.66-4.4-2.33-4.4-.33,0-.75.17-1.25.42Z"/>
        <path class="cls-1" d="M716.62,32.07c-1.99,0-3.9-.17-5.32-.17h-.08c-1.25,0-2.49.83-2.41,2.08v.17c.41,11.71,3.24,11.71,3.74,15.2v.33c0,1.58-1.66,2.99-3.49,2.99-1,0-2.08-.42-2.99-1.58-3.16-4.07-1.5-13.54-2.99-16.95-.58-1.33-.5-2.66-1.74-3.24-1.58-.75-2.74-1.08-4.74-2.49-.66-.5-1-1.33-1-2.24,0-1.5.75-2.99,1.99-3.24.58-.08,1.08-.08,1.58-.08.58,0,1.16.08,1.91.08,1.08,0,2.41-.75,2.24-1.74-1.16-7.06-2.49-9.39-2.49-15.45,0-1.58,1.16-2.24,2.58-2.24,2.41,0,5.73,1.91,5.73,4.49,0,.25,0,.5-.08.75-.66,2.57-.91,4.57-.91,6.65,0,2.33.33,4.65.66,7.56.17,1.41,1.16,2.16,2.49,2.24,2.66.08,4.73.17,6.48.17,7.14,0,7.23-.83,8.97-1.91.5-.33.91-.42,1.33-.42,1.08,0,1.74,1.16,1.74,2.41,0,1-.33,1.99-1.08,2.74-3.24,3.32-7.98,3.9-12.13,3.9Z"/>
        <path class="cls-1" d="M755.49,53.83c-3.32,0-6.56-.42-8.97-1.25-7.14-2.33-14.62-5.98-14.62-13.21,0-.66,0-1.33.17-2.08,1.5-7.97,5.9-11.55,12.29-15.62,4.24-2.66,8.47-4.49,12.71-4.49,2.33,0,4.65.58,7.06,1.83,2.41,1.25,3.57,3.41,3.57,5.65,0,1.83-.75,3.74-2.41,5.32-4.98,4.9-9.64,4.24-15.78,6.98-2.49,1.08-4.49,1.58-6.06,1.58-1.75,0-2.99-.58-3.57-1.41-.17-.25-.58-.58-.91-.58-.75,0-.83,1.41-.83,2.08,0,5.4,6.73,7.64,11.88,8.97,2.99.75,5.4,1.08,7.89,1.08,2.91,0,5.73-.42,9.39-1.08.17,0,.33-.08.5-.08,1.25,0,1.83,1,1.83,1.91,0,.58-.25,1.08-.66,1.33-3.32,2.16-8.56,3.07-13.46,3.07ZM739.87,31.49c-.5.5-.75,1.16-.75,1.58,0,.5.25.83.75.83.25,0,.58-.08,1-.25,4.49-1.83,12.96-1.66,19.6-6.65.75-.5,1-1.16,1-1.83,0-1.25-1.16-2.49-2.49-2.49-6.4.33-14.62,3.99-19.11,8.81Z"/>
        <path class="cls-1" d="M816.21,48.43c-1.41,0-2.66-.5-3.66-1.5-3.16-3.16-3.32-6.15-5.32-10.14-.33-.66-1.41-1.41-2.49-1.41-.66,0-1.33.33-1.83,1.08-3.82,5.98-6.73,9.72-13.13,12.63-2.82,1.33-5.23,1.83-7.31,1.83-5.23,0-7.98-3.32-7.98-6.73,0-1.33.42-2.66,1.33-3.74,6.89-8.72,16.61-13.46,24.42-17.94,1-.58,2.16-1.25,2.16-2.41v-.08c-.17-4.82-.83-9.3-1.83-14.45v-.33c0-1.08.91-1.99,2.16-1.99.58,0,1.33.25,1.99.83,2.82,2.41,5.4,6.4,5.48,11.3.17,7.31.58,25.25,9.14,29.07,1,.5,1.41,1,1.41,1.5,0,.83-1,1.58-2.08,1.99-.83.33-1.75.5-2.49.5ZM799.6,28.49c-5.23,2.99-13.13,7.23-18.11,12.96-.42.5-.58,1.08-.58,1.66,0,1.33.83,2.58,2.82,2.58.66,0,1.58-.17,2.57-.58,7.56-2.99,11.21-9.3,15.28-14.12.5-.58.66-1.08.66-1.5,0-.83-.75-1.25-1.58-1.25-.33,0-.75.08-1.08.25Z"/>
      </g>
    </g>
  </g>
</svg>