<?xml version="1.0" encoding="UTF-8"?>
<svg id="Layer_2" data-name="Layer 2" xmlns="http://www.w3.org/2000/svg" viewBox="0 0 484.96 72">
  <defs>
    <style>
      .cls-1 {
        fill: #f0ede5;
      }
    </style>
  </defs>
  <g id="Layer_1-2" data-name="Layer 1">
    <g>
      <path class="cls-1" d="M90.45,65.89c-.28,3.23-1.44,4.56-4.12,4.68-4.56.21-3.35-5.35-5.86-12.65-4.13-12.01-7.93-23.58-13.11-35.31l.05,42.41c0,1.97,1.45,3.59-.99,4.86-1.36.71-4.57.16-4.61-2.52-.29-17.43-.57-34.57.18-52.11.09-2.08,1.63-5.53,3.72-5.63,7.17-.35,15.05,36.12,19.54,48.27,2.32-15.89,1.49-30.61,1.95-45.81.05-1.56,1.51-2.01,2.52-1.96,1.21.06,2.79.72,2.82,2.58.26,17.74-.52,35.15-2.09,53.19Z"/>
      <path class="cls-1" d="M318.19,65.53c-.24,2.61-.65,4.26-2.66,4.74-1.17.27-3.96.89-4.43-1.1l-1.86-7.84c-4.41-13.49-8.83-26.51-14.42-39.49l.07,43.04c0,1.14,1.36,3.18.2,4.37-.71.72-2.5,1.16-3.75.66-.91-.36-1.96-1.77-1.97-3.39l-.18-36.88,1.02-16.49c.1-1.65,2.03-3.61,3.2-3.66,5-.23,10.71,18.95,13.51,28.17l6.26,20.63c1.64-15.9,1.63-30.88,1.9-46.45.03-1.51,1.74-1.86,2.74-1.7.94.15,2.63,1.13,2.62,2.87-.11,17.45-.61,34.63-2.25,52.54Z"/>
      <path class="cls-1" d="M195.13,69.06c-1.98-1.47.31-4.35.53-5.8,1.89-12.69-2.03-27.72-1.01-43.35.58-8.82-3.3-14.61-1.13-17.46,1.56-2.05,15.66-4.95,21.36,7.73,3.14,6.97,3.15,14.17,3.41,21.91.42,12.68-2.59,24.89-11.12,34.53-2.81,3.18-8.28,5.23-12.04,2.44ZM210.08,15.88c-1.97-4.89-5.43-8.48-10.82-8.83-.03,18.65,2.48,37.32,2.05,56.83,12-8.54,14.05-34.89,8.77-48Z"/>
      <path class="cls-1" d="M133.66,70.05c-4.26.81-4.32-8.21-4.18-16.11l.37-20.34-.56-20.2c-.06-2.14.82-3.75,2.86-3.9,5.79-.43,2.68,16.46,2.97,27.72,2.43,1.01,5.13.96,7.95.44l-1.44-25.04c-.1-1.68.68-2.92,1.49-3.56s4.37-.44,4.4.71l.62,21.44,1.45,35.66c.08,1.96-1.54,3.19-2.86,3.34-5.85.64-3.99-17.11-4.1-27.55l-7.06-.9.35,25.17c.02,1.69-1.02,2.9-2.26,3.14Z"/>
      <path class="cls-1" d="M355.9,70.9c-5.95,6.97-13.36-20.89-15.17-32.59-2.55,4.98-2.84,10.6-2.94,16.45l-.27,15.93c-.02,1.12-2.4,1.12-3.13.83-.94-.38-2.24-1.31-2.23-3.02l.12-30.77,1.59-24.32c.11-1.68.37-3.01,1.56-3.6s2.71-.46,3.68.32,1.43,2.37.75,3.83c-.55,5.04-1.26,9.71-.31,15.5l9.37-17.14c.76-1.4,2.01-2.05,3.1-2.17s4.18,1.09,3.41,2.48l-9.19,16.44c-2.81,5.02,3.5,26.01,7.76,34.05,1.08,2.03,4.28,5,1.89,7.79Z"/>
      <path class="cls-1" d="M426.63,33.71c.07,14.68,2.09,38.57-12.61,38.19-13.33-.35-12.75-33.86-11.15-48.99.45-4.29.99-10.45,4.28-13.46,6.06-2.84,13.35,1.7,16.08,7.22s3.37,10.93,3.4,17.03ZM420.96,39.34l-.97-16.95c-.19-3.34-2.16-6.48-5.04-7.79-1.54-.7-3.11-.53-4.26.33-2.92,2.17-2.05,9.42-2.38,14.7-.72,11.51-.18,37.08,5.71,37.53,6.33.48,7.54-17.26,6.94-27.82Z"/>
      <path class="cls-1" d="M26.63,11.55c-.02-1.75,2.78-1.93,3.34-1.26.53.63,1.69,1.66,1.71,3.07l.34,28.42,1.44,19.68c.11,1.54,1.45,2.79,2.26,3.33,1.14.75,3.62,1.03,4.44-.51,5.34-9.95,4.2-39.06,4.62-54.74.04-1.6,2.88-1.77,3.83-1.29s2.32,1.87,2.15,3.69c-.87,9.2-1.01,18.08-1.28,27.4-.34,12.13-1.78,31.99-11.94,32.32-8.03.26-10.33-10.2-10.44-19.72l-.48-40.38Z"/>
      <path class="cls-1" d="M254.41,14.22c-.03-2.1-.03-3.75,1.62-4.21,1.39-.39,3.4,1.04,3.43,2.85l.37,27.3,1.65,21.6c.12,1.57,1.56,2.6,2.35,3.13,9.8,6.52,8.73-41.06,8.92-55.42.02-1.42,2.54-1.65,3.43-1.37,1.29.4,2.45,1.75,2.35,3.68l-.92,17.02c-.73,13.4.83,44.34-13.37,42.79-7.66-.84-9.17-12.28-9.31-21.71l-.52-35.66Z"/>
      <path class="cls-1" d="M442.98,68.52c.23-16.64-5.47-38.71-10.27-55.4-.46-1.59.04-3.14,1.04-3.61,5.16-2.43,7.99,12.48,9.63,21.98l3.93,22.77,7.62-45.97c.15-.93,2.89-.7,3.6-.26,4.14,2.6-2.5,17.47-3.24,24.21l-2.42,21.87c-.84,7.59-3.33,17.94-7.74,17.23-1.12-.18-2.16-1.35-2.14-2.82Z"/>
      <path class="cls-1" d="M474.68,38.51l-.13,27.52,7.5.03c1.57,0,2.67.91,2.88,2.21.55,3.51-6.28,3.84-13.06,2.99-2.32-.29-2.55-2.49-2.63-4.33-.56-13.97-.34-27.37.06-41.33l-.31-11.36c-.09-3.1,2.34-4.97,5.41-4.46s6.7.74,9.29,2.83c1.22.98.54,2.69-.2,3.44-2.54,2.6-4.77-.09-8.8-.24l-.11,17.09,4.85.18c1.58.06,2.45,1.05,2.74,1.88.42,1.18.05,2.83-1.23,3.27-1.76.61-3.46.27-6.27.27Z"/>
      <path class="cls-1" d="M108.87,44.21c0,7.78-1,17.11,4.2,20.58,3.36,2.24,10.73-1.32,8.79,4.03-1.54,4.24-10.24,2.95-13.64.31-2.99-2.33-4.55-6.54-4.94-10.47-1.26-12.62-1.46-25.39.8-37.65,1.53-8.29,8.77-13.41,16.66-11.16,1.38.39.97,2.61.55,3.39-1.74,3.21-8.2-1.19-10.11,5.9-2.19,8.14-2.32,16.51-2.32,25.08Z"/>
      <path class="cls-1" d="M394.42,70.14c-3.25.18-5.86-.27-8.66.85-1.31.53-2.98-.16-3.53-.88-.83-1.07-.45-2.54-.39-4,.57-12.61-.48-24.69-.8-37.28l-.69-26.71c-.05-1.79,2.18-2.36,3.21-2.04,1.78.55,2.29,1.57,2.34,3.63l1.48,60.63,5.83.11c1.74.03,2.56,1.16,2.97,2.34.31.89.17,3.24-1.76,3.35Z"/>
      <path class="cls-1" d="M163.56,41c-1.23-.06-2.02-1.44-2.15-2.22-.61-3.7,10.63-4.78,18.31-4.4,1.11.05,2.04,1.6,2.14,2.3.54,3.79-10.34,4.73-18.3,4.32Z"/>
      <path class="cls-1" d="M7.84,67.7c.04,1.87-1.45,2.97-2.88,3.03-1.58.07-2.84-1.09-2.82-3.05l.27-36.43c.07-10.05-.63-19.61-2.41-29.43C3.91-.79,8.54.23,12.03,2.82c10.14,7.52,8.75,28.77-4.85,35.91l.67,28.97ZM11.77,11.56c-1.03-2.41-3.61-3.88-5.66-4.91l1.07,26.19c5.6-5.83,7.72-13.91,4.58-21.28Z"/>
      <path class="cls-1" d="M245.96,71.59c-6.55,3.11-8.63-21.82-12.15-31.55-.81,9.79-.14,18.95,1.38,28.42.27,1.69-1.24,2.44-2.06,2.57s-3.2-.04-3.23-1.25l-.99-35.28-.53-22.02c-.03-1.13.68-2.26,1.2-2.7,1.54-1.28,7.59-.76,11.22,2.52,4.08,3.69,3.75,17.67-1.97,24.65l2.59,13.96c2.14,11.55,8.16,18.97,4.54,20.69ZM233.56,13.55l.85,20.48c4.66-7.24,5.41-20.89-.85-20.48Z"/>
    </g>
  </g>
</svg>