<?xml version="1.0" encoding="UTF-8"?>
<svg id="Layer_2" data-name="Layer 2" xmlns="http://www.w3.org/2000/svg" viewBox="0 0 425.55 72">
  <defs>
    <style>
      .cls-1 {
        fill: #f6f3eb;
      }
    </style>
  </defs>
  <g id="Layer_1-2" data-name="Layer 1">
    <g>
      <path class="cls-1" d="M260.85,56.24c1.28-8.3,2.02-16.4-.13-24.9-.88,7.32-2.67,14.19-6.77,20.37-4.39,6.61-11.53,9.63-19.26,7.29-5.78-1.75-9.66-6.93-8.99-13.23.62-5.77,4.66-10.92,10.35-12.49-.15,2.19-.43,4.3,1.2,5.27,6.16,3.67,17.96-9.6,16.49-21.29-.36-2.86-5.8-3.3-7.42-1.96-1.23,1.02-1.81,2.28-1.48,3.37.45,1.51,1.91,2.12,4.29,1.8-1.4,5.16-7.01,7.57-12.36,6.64s-8.84-4.57-9.17-9.96c-.4-6.62,3.15-12.24,9.52-14.85,8.17-3.35,18.02-3.05,26.02,1.04,6.51,3.33,9.64,9.37,12.36,16.44,1.24-4.75,1.8-8.84,4.41-12.58,2.9-4.16,8.39-5.87,12.99-3.45,2.07,1.09,2.69,3.36,3.87,5.93.64-3.74,3.04-6.69,6.49-7.69,3.69-1.06,8.04-.66,10.38,2.6,2.04,2.84,1.39,6.68-.41,9.24-2.02,2.87-5.08,4.24-8.94,4.07s-6.96-2.51-7.56-6.31c-.52,5.61-2.07,10.26-6.07,13.95-.75-1.59-1.1-2.82-1.88-3.11-7.44-2.78-9.95,23.06-9.59,33.84l-18.34-.03Z"/>
      <path class="cls-1" d="M188.75,13.27c-3.44,5.76-11.63,5.83-14.94,2.3-1.67-1.78-2.19-4.17-1.65-6.79.73-3.57,3.66-6.14,6.52-6.87,3.71-.95,7.72-.48,9.98,2.46,2.1,2.73,1.63,6.32.09,8.9Z"/>
      <path class="cls-1" d="M185.55,46.91c-1.79,4.67-4.33,8.97-9.36,10.19-2.84.69-5.92.26-7.82-1.55s-2.87-4.9-2.32-7.84l5.27-28.43,15.63.03-3.97,20.64c-.19,1,.39,1.94.97,1.97,2.94.17.14-13.31,12.02-21.05,3.73-2.43,8.43-3.42,12.5-1.6,4.36,1.96,5.64,6.74,5.04,11.17-.74,5.5-4.15,9.2-10.02,10.58,3.93,3.2,7.61,1.54,11.45-1.33-.13,4.81-1.96,9.16-4.98,12.68-4.32,5.02-11.47,6.35-17.45,3.7-3.58-1.82-5.13-4.8-6.96-9.16ZM202.28,36.56c2.78-1.5,3.77-3.4,2.97-5.81-2.17,1.34-2.94,3.75-2.97,5.81Z"/>
      <path class="cls-1" d="M162.14,55.6c-2.24,11.35-12.44,19.09-21.42,15.51-2.74-1.09-4.54-3.32-5.05-5.83-.86-4.24,2.31-7.55,6.28-10.3-5.21.59-9.36-2.34-10.55-7.45-2.71-11.62,3.81-28.13,14.3-29.13,3.06-.29,5.66.86,6.96,3.43.78-.94.87-1.58,1.22-2.56l15.42.03-7.15,36.29ZM150.97,31.32c-3.7-.8-4.9,10.55-2.95,10.49,1.55-.04,2.81-5.82,2.95-10.49ZM145.22,58.03c1.66-2.15,1.73-3.64,1.82-5.62-1.4.48-2.24,1.06-2.44,1.9-.26,1.12-.92,2.89.61,3.72Z"/>
      <path class="cls-1" d="M125.76,49.75c-5.39,7.42-15.07,9.84-22.85,5.47-5.02-2.82-6.96-8.39-7.1-13.91-.32-12.1,7.66-23,19.82-22.93,6.57.04,12.13,3.94,13.94,10.34,2,7.09.73,14.8-3.8,21.04ZM114.53,31.03c-2.34-.44-4.86,10.88-1.98,10.72,2.26-.12,4.41-10.27,1.98-10.72Z"/>
      <path class="cls-1" d="M60.37,43.02c-1.21,4.93-2.97,9.8-7.74,12.54-6.89,3.97-15.51,3.29-21.8-2.3-8.12,8.99-26,8.89-30-1.42-2.71-6.99,1.54-14.44,8.59-17.15.57,1.46.91,2.81,1.77,3.29,1.18.66,2.65,1.01,4.11.56,3.86-1.19,6.73-4.93,7.24-9.05-5.13,5.22-14.16,5.59-18.24-.65s-1.49-13.66,3.58-18.57C19.09-.57,42.12-3.72,52.87,5.17c3.51,2.9,5.05,6.84,4.29,11.47-.59,3.56-3.61,6.65-8.07,8.61,6.44,2.23,10.21,7.38,11.41,13.87,1.35-10.16,6.77-18.67,16.4-20.47,4.63-.87,9.12.03,12.83,2.82,7.75,5.84,7.45,21.1-.19,29.72-5.57,6.28-14.6,8.12-21.92,3.92-4.29-2.46-5.67-6.76-7.25-12.1ZM35.9,12.03c-7.46-.74-15.94,4.95-16.18,11.61-.07,1.85.97,2.98,2.45,3.09,3.82.28,3.74-10.04,13.74-14.7ZM38.17,22.48c3.39-1.32,4.95-4.8,3.06-7.97-1.85,2.15-2.81,4.8-3.06,7.97ZM37.34,29c-.75,5.33-.54,10.38-1.99,15.4,5.54.42,7.45-11,1.99-15.4ZM79.36,31.08c-2.31-.22-4.58,10.4-2.01,10.68,2.31.26,4.66-10.43,2.01-10.68Z"/>
      <path class="cls-1" d="M399.73,41.87c2.43.7,2.98-4.07,5.47-3.62-.76,1.59-1.23,5.03.62,5.67,4.99,1.74-1.08-11.14,2.67-19.03,2.91-6.12,11.23-8.43,16.69-4.89-.57,1.61-1.94,1.82-2.82,2.46-.52,7.55,4.47,12.35,2.87,23-1.05,7.01-6.16,11.94-13.49,11.96-4.92.01-9.19-2.62-10.89-7.4-2.9,5.32-7.56,8.03-13.07,7.24-3.71-.53-5.26-3.57-6.13-7.5-2.87,6.4-9.22,9.54-15.07,6.46-2.91-1.53-3.94-5.4-3.27-8.43l3.28-15.01c.08-.38-.02-1.21-.12-1.48-.09-.22-.35-.37-.79-.3-2.38.38-4.53,17.06-6.35,25.06l-15.67.2,10.47-53.59,15.53-.08-3.49,19.14c4.13-3.07,8.57-4.49,12.84-2.55,3,1.37,4.53,5.29,3.87,8.35l-2.68,12.41c-.2.91.39,1.85,1.09,1.97.5.09,1.41-.59,1.59-1.41l2.01-9.08c.14-.65-.75-1.58-1.12-2.12l1.98-9.4c.12-.58,1.66-.95,1.89-2.11l.95-4.94,16.02-3.75-1.61,9.43c.36.64,1.74.94,2.86.85l-2.03,10.58-3.13.34-1.91,9.76c-.17.85.44,1.66.92,1.8Z"/>
      <path class="cls-1" d="M310.6,46.19c-1.35,3.44-2.67,6.91-5.87,9.16s-7.54,3-10.76.79-3.46-6.22-2.98-9.83l5.13-26.96,15.56-.06-3.91,20.78c-.13.7.14,1.3.44,1.57,3.19,2.88.83-9.84,8.94-18.82,2.51-2.78,5.59-4.59,9.45-4.44,2.54.1,4.51,1.32,5.59,3.47.79-.95.88-1.6,1.22-2.57l15.41.03-7.15,36.3c-2.24,11.38-12.48,19.1-21.43,15.51-2.73-1.1-4.55-3.3-5.05-5.84-.54-2.76.65-5.66,3.02-7.52.92-1.31,1.99-1.78,3.3-2.78-5.9.7-9.85-2.97-10.94-8.79ZM330.54,31.34c0-.59-1.7-.14-2.09.73-2.31,5.15-2.3,9.79-.89,9.75s3.01-6.14,2.97-10.48ZM324.78,58.04c1.6-2.18,1.72-3.65,1.82-5.63-1.41.47-2.25,1.06-2.44,1.88-.28,1.19-.93,2.89.62,3.74Z"/>
    </g>
  </g>
</svg>