<?xml version="1.0" encoding="UTF-8"?>
<svg id="Layer_2" data-name="Layer 2" xmlns="http://www.w3.org/2000/svg" viewBox="0 0 706.56 72">
  <defs>
    <style>
      .cls-1 {
        fill: #f8f4ec;
      }

      .cls-2 {
        fill: #f9f5ed;
      }

      .cls-3 {
        fill: #f8f4ed;
      }

      .cls-4 {
        fill: #f8f5ed;
      }
    </style>
  </defs>
  <g id="Layer_1-2" data-name="Layer 1">
    <g>
      <path class="cls-4" d="M609.95,55.45c8.13.61,14.8-3.05,21.09-7.48l8.85,11.19c-11.16,10.07-26.04,15-41.01,11.74-12.53-2.73-20.59-13.26-20-26.33,1.23-27.42,26.6-47.96,53.91-44.12,8.3,1.17,14.52,5.87,19.34,12.26l-14.91,11.29c-5.11-6.51-12.83-8.97-20.87-6.93-10.86,2.75-18.63,12.43-19.44,23.6-.57,7.86,4.67,14.14,13.05,14.77ZM604.45,58.87c-7.64-1.83-12.59-8.05-12.76-15.62-.4-18.55,16.23-32.95,34.73-30.67,4.63.57,8.33,2.41,11.81,5.36l7.05-5.42c-4.4-5.6-11.28-8.44-19.26-8.47-21.59-.1-40.09,17.13-41.95,38.52-1.04,12.01,6.31,22.08,17.69,24.5s22.21-.79,31.46-7.56c-.94-2.1-2.08-3.83-4.14-5.42-7.39,4.46-15.74,6.92-24.63,4.8Z"/>
      <path class="cls-4" d="M536.88,2.16l18.36.1-46.66,68.6c-.63.92-1.38,1.04-1.86,1.11-.74.11-1.47-.09-1.96-1.08l-12.14-68.43,18.03-.17,5.41,30.6,20.82-30.73ZM539.55,6.72l-26.28,37.94-7.37-38.48-7.44-.02,10.16,56.08,38.33-55.86c-2.07-.52-4.87-.89-7.39.34Z"/>
      <path class="cls-1" d="M561.31,69.35l-17.49.13,16.81-67.25,17.5-.07-16.82,67.18ZM557.19,65.12l14.78-58.9c-2.44-.34-4.76-.52-7.23.32l-14.77,58.85c2.65.57,4.87.76,7.22-.27Z"/>
      <path class="cls-4" d="M694.36,43.67l-25.9.13-2.58,10.99,28.68.04-3.48,14.78-46.53-.02,16.9-67.44,45.12-.03-3.6,15.46-27.76.07-2.89,11.16,25.65-.06-3.59,14.92ZM690.13,39.73l1.69-7.01-25.62-.13,4.7-19.07h27.72c1.08-2.57,1.73-4.78,1.68-7.51l-34.72.08-14.91,59.59h36.18c.94-2.58,1.49-4.53,1.44-6.96l-28.58-.04,4.59-18.87,25.82-.1Z"/>
      <path class="cls-2" d="M87.87,69.26l-18.07.39-15.72-37.7-9.57,37.41-17.51.15L43.84,2.34l18.18-.16,15.65,37.92L87.36,2.19h17.22s-16.72,67.07-16.72,67.07ZM83.64,65.37l14.8-59.13c-2.71-.4-4.65-.38-7.01,0l-11.69,46.45c-1.8.36-2.87-.33-3.27-1.32L58,6.26c-3.38-.43-6.27-.41-9.89-.02l-14.96,59.21c2.49.5,4.5.47,7.12-.04l11.81-46.4c.24-.52,2.52-.22,2.73.3l19.06,46.3c3.54.17,6.13.44,9.78-.24Z"/>
      <path class="cls-2" d="M395.33,69.36l-18.13.18-15.58-37.95-9.65,37.92-17.41-.04L351.41,2.21l18.01-.09,15.65,38.05,9.73-37.85,17.35-.14-16.83,67.18ZM391.18,65.21l14.8-59.03h-6.99s-11.33,44.99-11.33,44.99c-.27,1.09-1.08,1.85-3.01,1.73l-19.28-46.73-9.86.11-14.79,59.1c2.89.65,4.92.53,7.15-.05l11.6-46.14c.18-.72,2.57-.55,2.98.45l18.83,45.77c3.45.47,6.53.78,9.89-.21Z"/>
      <path class="cls-2" d="M157.75,69.23l-17.51.38,6.43-26.09-25.23.05-6.48,25.96-17.42-.05L114.4,2.22l17.27-.04-6.36,26.07,25.28.14,6.62-26.22,17.26.04-16.72,67.03ZM153.68,64.8l14.63-58.61c-2.57-.33-4.54-.3-6.98.01l-6.66,26.25-35.47-.16,6.35-26.03c-2.82-.44-4.79-.42-7.05.07l-14.78,59.05c2.9.65,4.9.51,7.18-.02l6.44-25.86,35.49-.05-6.42,26.01c2.45.43,5.05.86,7.27-.66Z"/>
      <path class="cls-3" d="M330.57,43.75l-25.74-.03-2.84,11.06,29.04.03-3.75,14.8-46.51-.02L297.64,2.16l45.41-.05-3.92,15.48-27.76.08-2.91,11.03,25.78.06-3.67,14.99ZM326.32,39.76l1.66-7.09-25.64-.18,4.8-18.89,27.84-.05,1.86-7.53-35.02.17-14.93,59.49h36.13s1.81-6.94,1.81-6.94l-28.91-.08,4.78-18.95,25.62.04Z"/>
      <path class="cls-3" d="M217.11,43.65l-25.8.17-2.92,10.92,28.98.09-3.48,14.76-46.68.03L184.2,2.13h45.18s-3.71,15.39-3.71,15.39l-27.78.06-2.85,11.11,25.64.06-3.57,14.89ZM212.96,39.73l1.39-7.01-25.44-.3,4.87-18.9,27.75-.04,1.73-7.45-34.89.03-15,59.61,36.38-.04,1.49-6.9-28.94-.04,4.75-18.89,25.91-.08Z"/>
      <path class="cls-2" d="M276.3,69.5l-21.77.02-9.99-23.13-6.16,23.17-17.37-.05L237.87,2.23l32.82.25c10.19.08,17.01,9.13,14.93,18.82-1.36,11.61-8.99,20.6-21.01,23.45l11.69,24.75ZM259,65.87l9.52-.38-10.78-23.81c14.83-.47,25.48-12.66,22.25-26.55-1.3-5.57-7.49-8.8-12.85-8.85l-24.99-.21-15,59.39c2.5.47,4.5.43,7.09-.03l6-23.38c3.06-.49,5.64-.55,8.39.24l10.36,23.56Z"/>
      <path class="cls-1" d="M434.27,69.37l-17.46.13,12.89-51.77-14.84-.35,3.68-15.25,47.71-.02-3.67,15.34-15.37.29-12.95,51.62ZM430.15,65.18l12.9-51.49,15.01-.13c1.08-2.62,1.86-5.2,1.8-7.6l-37.18.16-1.63,7.32,14.9.27-13.01,51.74c2.74.5,4.84.68,7.22-.26Z"/>
      <path class="cls-1" d="M17.63,69.1l-17.63.4L16.83,2.35l17.51-.16-16.72,66.91ZM13.4,65.17L28.21,6.12l-7.1.11-14.96,59.22c2.48.48,4.59.66,7.25-.28Z"/>
      <path class="cls-1" d="M272.95,17.83c2.45,7.96-3.66,16.92-11.62,16.98l-19.33.14,5.46-21.92,17.82-.04c2.82,0,6.57,1.3,7.66,4.84ZM268.37,21.58c-.02-2.97-2.25-4.51-4.28-4.51h-12.56s-3.44,13.87-3.44,13.87l13.19-.17c3.93-.05,7.12-4.95,7.09-9.2Z"/>
    </g>
  </g>
</svg>