<?xml version="1.0" encoding="UTF-8"?>
<svg id="Layer_2" data-name="Layer 2" xmlns="http://www.w3.org/2000/svg" viewBox="0 0 447.37 158.72">
  <defs>
    <style>
      .cls-1 {
        fill: #f9f5ed;
      }
    </style>
  </defs>
  <g id="Layer_1-2" data-name="Layer 1">
    <g>
      <g>
        <path class="cls-1" d="M278.71,63.75c-12.64,2.37-29.72.3-41.07-6.9l-1.95,10.08c-.61,3.15-2.96,4.8-6.13,5.05-8.16.65-6.1-12.18-2.43-21.61,4.03-10.33,7.62-20.78,9.8-31.69-1.35-.73-2.73-1.14-3.21-1.88-.81-1.25-2.3-9.94,3.77-11.72,13.31-3.9,27.42-4.63,40.86-.81,4.52,1.29,9.19,3.6,11.15,8.02,2.59,5.81.87,13.73-4.03,17.83-5.58,4.67-11.91,7.68-18.63,10.08l-16.16,5.76c9.91,4.6,20.38,4.75,30.34,2.2,2.51-.64,3.69,2.7,3.78,4.71.21,4.33-1.21,9.96-6.1,10.88ZM245.04,32.94c11.4-2.7,22.87-6.43,32.65-13.43-9.57-3.47-19.25-3.48-28.52-1.74l-4.13,15.18Z"/>
        <path class="cls-1" d="M174.62,67.22c-6.74,2.11-13.19,2.35-19.55.46s-10.42-8.46-8.97-15.5C149.68,34.79,193.44-.39,201.77,0c6.3.3,12.53,3.65,17.17,7.77,7.5,6.68,7.28,22.16,1.21,31.38-4.25,6.46-9.88,11.67-16.72,15.51-9.16,5.14-18.47,9.3-28.81,12.55ZM210.52,20.61c-2.84-2.76-6.36-4.32-10.47-5.15-16.13,9.17-31.26,21.38-41.04,37.25,17.22,5.34,64.87-19.1,51.51-32.1Z"/>
        <path class="cls-1" d="M92.88,53.63c1,5.95,26.53-1.03,38.54-8.36,2.8-1.71,5.64-2.92,8.48-.79,1.82,1.36,3.63,4.96,2.24,7.87-6.71,14.08-52.3,24.45-58.95,8.66-2.49-5.92-1.64-12.58.79-18.47,6.57-15.91,25.47-30.64,40.74-39.05,5.06-2.79,12.88-4.32,15.09.44,2.61,5.63,1.84,11.46.73,17.39-.58,3.11-.86,5.98-3.84,6.94-2.55.82-6.28.94-7.91-1.61-1.88-2.93-.81-6.28-.37-9.94-11.95,3.6-36.84,29.03-35.52,36.92Z"/>
        <g>
          <path class="cls-1" d="M400.57,53.5c-.26,5.87,23.7-.45,32.35-7.42,1.13-3.19,4.1-4.92,7.21-3.74,2.56,2.18,3.45,5.62,2.53,9.04-1.04,3.86-3.87,7.19-7.49,9.39-12.08,7.36-35.87,13.81-43.89,5.63-6.11-6.23-1.8-20.57,2.75-29.84,2.67-5.43,5.05-10.63,6.64-16.33-2.48-2.53-2.94-5.77-2.15-9.11,1.99-8.38,10.31-3.65,22.19-5.72l20.65-3.6c1.65-.29,4.71-.05,5.43,1.75,1.77,4.47-.66,10.43-5.2,12.18-7.63,2.94-19.45,1.55-28,5.26-1.48,1.07-1.8,4.17-2.13,5.62l15.75-3.16c4.24-.85,8.65-2.32,12.94-1.61,3.61.6,4.91,4.07,4.62,7.03-.33,3.44-2.87,5.61-6.48,6.46l-34.98,8.2c-1.27,3.36-2.59,6.51-2.75,10Z"/>
          <path class="cls-1" d="M332.57,53.63c1,5.95,26.53-1.03,38.54-8.36,2.8-1.71,5.64-2.92,8.48-.79,1.82,1.36,3.63,4.96,2.24,7.87-6.71,14.08-52.3,24.45-58.95,8.66-2.49-5.92-1.64-12.58.79-18.47,6.57-15.91,25.47-30.64,40.74-39.05,5.06-2.79,12.88-4.32,15.09.44,2.61,5.63,1.84,11.46.73,17.39-.58,3.11-.86,5.98-3.84,6.94-2.55.82-6.28.94-7.91-1.61-1.88-2.93-.81-6.28-.37-9.94-11.95,3.6-36.84,29.03-35.52,36.92Z"/>
        </g>
        <g>
          <path class="cls-1" d="M49.12,46.66c.2,9.24-28.97,18.81-41.42,21.05-3.85.69-6.92-1.15-7.42-4.73C-2.04,46.02,10.35,23.96,13.46,5.43c.29-1.73,1.31-3.04,2.62-3.72s2.81-.45,4.4.1c12.29,4.21-7.33,35.81-7.87,49.95,9.05-1.18,16.94-4.9,24.38-9.8,2.61-1.72,5.87-2.86,8.81-1.56,2.58,1.14,3.28,3.8,3.33,6.27Z"/>
          <path class="cls-1" d="M65.86,65.94c-1.85,2.55-5.01,3.14-7.57,1.9-6.33-3.08-.86-18.77,2.04-28.31,3.32-10.94,6.65-21.44,9.01-32.61.41-1.94,1.71-3.42,3.09-3.97,1.94-.78,3.87-.32,5.55,1.03,2.46,1.98,3.55,4.67,3.13,8.01-1.66,13.23-9.71,26.39-12.27,46.2-.35,2.75-1.19,5.3-2.97,7.76Z"/>
        </g>
        <path class="cls-1" d="M305.55,65.94c-1.85,2.55-5.01,3.14-7.57,1.9-6.33-3.08-.86-18.77,2.04-28.31,3.32-10.94,6.65-21.44,9.01-32.61.41-1.94,1.71-3.42,3.09-3.97,1.94-.78,3.87-.32,5.55,1.03,2.46,1.98,3.55,4.67,3.13,8.01-1.66,13.23-9.71,26.39-12.27,46.2-.35,2.75-1.19,5.3-2.97,7.76Z"/>
      </g>
      <g>
        <path class="cls-1" d="M72.82,156.83c-2.71-4.08-2.28-9.91-.69-14.25l7.28-19.84c1.65-4.49,2.91-9.17,3.08-13.91.1-2.98-5.73-11.3,2.27-14.62,13.39-5.56,28.85-5.8,42.13.58,6.59,3.17,11.76,11.07,9.55,18.11-1.63,5.16-6.34,9.05-10.46,12.28-11.42,8.94-25.32,13.46-39.56,14.5-4.76,8.69-.73,15.4-7.15,18.44-1.69.8-4.81,1.17-6.44-1.28ZM124.12,109.74c-.41-4.75-19.6-7.04-28.76-4.19-.36,7.23-1.87,13.35-4.6,19.84,10.72-.98,33.85-9.88,33.35-15.65Z"/>
        <path class="cls-1" d="M148.55,154.6c-1.85,2.55-5.01,3.14-7.57,1.9-6.57-3.19-.55-18.93,2.04-28.31l9.01-32.61c.53-1.9,1.71-3.42,3.09-3.97,1.94-.78,3.87-.32,5.55,1.03,2.46,1.98,3.55,4.67,3.13,8.01-1.66,13.23-9.71,26.39-12.27,46.2-.35,2.75-1.19,5.3-2.97,7.76Z"/>
        <path class="cls-1" d="M224.67,146.22c-5.25,6.58-29.85,9.58-41.07,9.93-6.14.19-12.18-.49-17.59-2.93-4.1-1.85-5.47-6.19-3.64-10.21,2.55-5.6,6.7-10.28,11.85-13.73l18.43-12.35,12.59-8.95c-3.69-.71-6.61.23-9.9.46-8.11.57-15.49-.94-16.52-7.95-.51-3.5,3.39-8.06,7.48-9.26,1.57-.46,4.26,3.52,16.42,2.59l24.91-1.91c3.5-.27,5.58,1.68,5.92,5.05.49,4.86-1.12,9.42-5.47,12.12l-34.8,21.56c-4.45,2.76-8.39,5.59-12.04,9.95,11.34.22,22.49-1.07,33.49-3.84l8.04-3.34c3.32,2.5,4.96,8.96,1.89,12.81Z"/>
        <path class="cls-1" d="M271.68,108.75c.55-.39,1.36-.58,1.65-1.4-1.29-.7-2.13.2-2.89.27l-7.52.76c-7.91.8-15.62-.76-16.78-7.54-.65-3.83,3.48-8.31,7.12-9.57,1.93-.67,4.46,3.45,16.38,2.56l25.66-1.91c2.68-.2,4.62,1.04,5.21,3.64,1.14,5.03-.3,10.51-4.9,13.35l-33.98,20.97c-4.53,3.22-9.08,5.75-13.05,10.6,10.49.54,20.65-1,30.84-3.03,6.28-1.25,10.64-6.45,12.63-2.05,1.35,3,2.21,7.43.23,10.46-4.47,6.83-30.19,9.92-41.76,10.3-5.78.19-11.3-.57-16.49-2.57-4.38-1.7-6.24-5.82-4.43-10.32,1.99-4.95,5.55-9.43,10.09-12.52l20.03-13.67,11.95-8.34Z"/>
        <path class="cls-1" d="M336.46,139.45c-8.36,1.26-16.42,2.56-24.14,5.83-5.72,2.43-2.13,14.22-11.89,13.26-2.03-.2-3.85-.93-5.03-2.18-1.31-1.39-1.99-3.79-1.36-5.96,5.8-19.88,23.84-42.68,39.35-56.47,3.33-2.96,6.98-4.24,11.29-3.46,9.66,1.74,11.3,13.02,9.53,23.29l-3.88,22.46c-.65,3.73-1.1,7.12.77,10.52s.59,6.97-2.7,8.8c-1.68.93-3.38,1.5-5.26,1.05-4.97-1.19-6.72-9.63-6.67-17.15ZM338.75,123.69c1.63-6.21,3.07-11.93,1.81-17.68-8.6,6.88-15.45,14.24-21.06,22.99l19.25-5.31Z"/>
      </g>
    </g>
  </g>
</svg>