<?xml version="1.0" encoding="UTF-8"?>
<svg id="Layer_2" data-name="Layer 2" xmlns="http://www.w3.org/2000/svg" viewBox="0 0 757.98 72">
  <defs>
    <style>
      .cls-1 {
        fill: #f4f0e9;
      }
    </style>
  </defs>
  <g id="Layer_1-2" data-name="Layer 1">
    <g>
      <path class="cls-1" d="M404.87,39.22l-4.48,22.71h33.21s1.97-11.43,1.97-11.43c.51-2.95,1.48-4.6,4.14-5.39,1.96-.58,7.14-.27,6.54,2.7l-4.57,22.68-61.68-.09c-2.19-2.16-1.14-7.87,1.84-8.08l8.17-.59,9.65-51.58c-3.26-.19-5.99.41-8.42-.85-1.85-.99-.82-6.6,1.54-7.66l60.46-.14-2.89,19.67c-.36,2.42-2.76,3.24-4.69,3.5-1.61.22-5.01.16-5.39-2.16-.69-4.2,1.35-8.17,1.78-12.47l-31.94.16-3.64,19.94c3.97.58,9.89,1.14,14.12-.14.72-2.26.83-5.73,2.33-7.17s7.61-1.83,8.57.17c.09,7.77-1.69,15.91-4,23.34-.89,2.85-7.39,2.8-8.84.76s-.46-4.55.48-7.44l-14.28-.43Z"/>
      <path class="cls-1" d="M670.6,70.11c-8.59.89-16.46.88-24.53,0-2.13-.23-1.66-5.51-.19-6.69,1.92-1.54,4.96-2.02,8.85-1.05l4.46-23.08-29.33-.03-4.13,22.48,7.24.72c2.54.25,1.76,7.72-1.16,7.73l-24.13.05c-2.44,0-1.96-4.42-1.12-5.88,1.2-2.05,4.7-3.2,8.53-2.18l9.93-52.12c-2.24-.07-4.59.51-6.71-.79-1.96-1.2-.78-7.39,2.17-7.57,8.11-.48,15.96-.97,23.99.22,2.63.39,1.66,7.45-1.13,7.65l-7.85.55-3.88,20.44,29.36-.07,3.91-19.95c-2.33-.84-4.58-.52-7.58-.8-1.97-1.51-1.49-7.88,1.71-7.91l23.96-.18c2.09-.02,1.83,4.96.92,6.37-1.29,2.02-4.38,2.51-8.34,1.8l-10.01,52c2.36.09,4.46-.26,6.61.85,1.84.96,1.21,7.13-1.55,7.42Z"/>
      <path class="cls-1" d="M583.67,59.26l2.28-12.05-16.72-.7c-2.6-.11-1.61-7.89,1.72-7.89l30.68-.05c2.03,0,1.79,4.82,1.06,6.2-.87,1.66-3.17,2.43-6.16,2.51l-3.87,18.17c-7.72,5.19-17.13,6.08-26.73,6.52-13.06.6-24.9-6.24-27.88-18.56-3.45-14.26.25-29.26,10.09-40.48,11.02-12.55,31.57-17.81,44.73-7.35.94-3.07,1.87-4.62,4-5.25,1.98-.58,7.4-.55,6.96,1.96l-3.61,20.37c-.63,3.55-9.5,3.51-9.49.54.01-6.29-1.23-11.07-8.15-12.76-11.01-2.68-22.48,2.01-28.33,11.34-5.05,8.05-7.78,17.32-6.34,26.46,1.48,9.39,9.34,14.93,19.2,14.12,5.61-.46,10.81-.54,16.56-3.1Z"/>
      <path class="cls-1" d="M738.13,62.36c2.81.1,2.06,7.92-1.09,7.91l-43.45-.18c-2.53-.36-1.38-7.98,2.1-8.03l15.35-.21,9.72-51.37c-5.05-.81-10.03-.58-15.27-.17l-4.04,19.37c-.61,2.92-9.59,2.84-9.18.13l3.82-24.89c.19-1.25,1.64-3.53,3.27-3.52l58.61.17-4.44,26.71c-.4,2.39-2.63,3.03-4.14,3.35-1.88.39-6.38.21-6-2.14l3.16-19.48-15.21.13-9.83,51.65,16.61.57Z"/>
      <path class="cls-1" d="M512.62,70.56l-48.64-.36c-2.37-.21-1.62-7.83,1.45-7.91l18.28-.45,9.75-51.39-18.05-.85c-2.44-.11-1.61-7.96,1.68-7.94l45.61.15c2.43.84,1.24,7.95-1.88,8.03l-16.94.45-9.77,51.6,19.44.71c2.27.08,1.9,5.93-.94,7.96Z"/>
      <path class="cls-1" d="M64.73,70.11c-8.58.89-16.46.88-24.53,0-2.12-.23-1.66-5.51-.17-6.71,1.84-1.47,4.92-1.99,8.83-1.03l4.46-23.08-29.33-.03-4.13,22.48c2.78.53,5.01-.1,7.24.72,2.47.91,1.76,7.72-1.16,7.73l-24.13.05c-2.43,0-1.97-4.42-1.1-5.9,1.15-1.96,4.68-3.17,8.51-2.15L19.14,10.06c-2.24-.07-4.59.51-6.71-.79-1.96-1.2-.78-7.39,2.18-7.57,8.11-.48,15.96-.97,23.99.22,2.63.39,1.66,7.45-1.13,7.65l-7.85.55-3.88,20.44,29.36-.07,3.91-19.95c-2.33-.84-4.58-.52-7.58-.8-1.97-1.51-1.49-7.88,1.71-7.91l23.96-.18c2.09-.02,1.83,4.96.92,6.37-1.29,2.02-4.38,2.51-8.34,1.8l-10.01,52c2.33.09,4.49-.25,6.61.85,1.83.96,1.21,7.13-1.55,7.42Z"/>
      <path class="cls-1" d="M177.99,41.53l-3.72,20.44c3.53.11,7-.81,10.05.74,2.28,1.15,1.16,7.69-1.84,7.65l-29.83-.35c-2.39-.68-1.04-7.73,2.03-7.85l9.22-.37,9.71-51.69c-3.54-.22-6.53.63-9.49-.75-2.38-1.11-1.07-7.76,2.22-7.76l36.87.04c6.42,0,13.13,3.33,15.89,8.66,3.02,5.84,2.49,12.8-1.31,18.68-2.81,4.34-8.31,7.83-15.82,9.99,9.94,10.42,6.57,22.72,17.55,23.45,1.99.13,1.76,3.89,1.33,5.33-.76,2.54-2.64,2.89-5.85,3.06-5.68.3-9.74-1.78-11.74-6.74l-5.34-13.26c-3.15-7.81-11.2-11-19.92-9.27ZM209.83,16.46c-3.59-7.69-15.22-6.46-25.89-6.3l-4.03,22.01c6.48.18,12.97.49,19.51-.88,7.35-1.54,11.97-7.54,10.41-14.83Z"/>
      <path class="cls-1" d="M127.6,49.24l-28.62-.19-7.39,12.62c3.37.69,5.78-.16,8.46.82,2.38.87,1.66,7.66-1.31,7.66h-25.95c-1.75-.42-1.29-4.57-.52-5.85,1.09-1.82,3.87-3.01,7.41-2.24l29.9-51.95c-4.39-.38-8.57.77-12.86-.68-2.21-.75-1.51-7.6,1.58-7.65l26.17-.37c2.71-.04,4.39,1.87,4.83,4.16l10.77,55.87,6.23,1.16c2.63.49,1.19,7.81-1.99,7.77l-26.49-.35c-2.43-.03-1.43-7.49,1.27-7.61l10.57-.5-2.06-12.68ZM126,40.11l-5.53-29.56-16.88,29.71,22.41-.15Z"/>
      <path class="cls-1" d="M229.21,70.18c-2.87-.02-2.07-7.66,1.06-7.85l8.9-.56,9.69-51.57-8.56-.62c-2.46-.18-1.6-7.83,1.62-7.85l33.21-.19c13.04-.07,23.08,9.05,24.71,20.99,3.24,23.64-12.51,48.07-35.05,47.91l-35.59-.26ZM289.11,24.12c-1.73-13-15.41-15.2-29.84-13.93l-9.73,51.65,11.79.07c18.58.11,30.23-19.32,27.77-37.78Z"/>
    </g>
  </g>
</svg>