<?xml version="1.0" encoding="UTF-8"?>
<svg id="Layer_2" data-name="Layer 2" xmlns="http://www.w3.org/2000/svg" viewBox="0 0 288.82 72">
  <defs>
    <style>
      .cls-1 {
        fill: #f5f1e9;
      }
    </style>
  </defs>
  <g id="Layer_1-2" data-name="Layer 1">
    <g>
      <path class="cls-1" d="M34.74,46.83c.02,2.84,5.78.92,4.31,5.48l-17.92.03c-.32-.95-.33-2.42.15-3.09,2.18-.42,3.79-1.99,3.77-4.43l-.12-12.71c-.01-1.4-.78-2.56-1.44-3.11-2-1.7-5.74-.27-8.77,2.27l.2,15.6c.02,1.58,2.39,2.33,3.79,2.19.51,1.22.45,2.06.15,3.32l-18.3-.19c-.75,0-.68-2.86.07-2.94,2.7-.29,4.24-1.67,4.27-4.35l.15-12.81c.03-2.92-2.18-2.93-4.19-4.25-.46-.3-.65-2.26-.12-2.44l13.71-4.56.53,6.12c3.34-2.15,6.53-4.03,10.4-4.8s7.4,1.15,8.78,5.36c3.56-2.3,6.99-4.43,11.11-5.34,14.52-3.21,7.3,22.52,9.9,25.71.63.77,1.91.95,3.25,1.4.79.27.87,1.98.49,3.05h-17.88c-.31-.89-.31-2.49.17-3,1.92-.59,3.37-1.81,3.56-4.02.68-8.18,1.19-18.02-3.72-17.11-2.36.44-4.49,1.6-6.36,3.15l.1,15.49Z"/>
      <path class="cls-1" d="M124.08,50.04c5.32,1.56,7.74,6.32,6.32,11.34-1.09,3.85-3.96,6.93-7.91,8.41-10.18,3.82-26.45,2.9-27.71-4.25-.48-2.73.58-4.73,2.83-6.32l3.6-2.54c-2.41-1.07-4.06-2.28-4.9-3.61-1.24-1.96-1.41-4.79.26-6.39l6.81-3.44c-4.23-1.5-6.97-4.52-7.55-8.6s1.17-7.99,5.12-10.19c6.26-3.49,14.15-3.34,20.42.26l10.28-2.29v8.26s-6.44-.96-6.44-.96c1.85,5.2-.28,9.86-4.66,12.25-6.11,3.33-11.94,1.15-16.04,5.61,4.69,3.42,12.02.26,19.58,2.48ZM115.53,37.27c1.02-2.85.71-5.99-.46-8.46-1.01-2.13-2.8-3.2-4.92-3.08-1.65.09-3.36,1.27-4.06,3.23-1.9,5.35.83,12.02,5.27,11.6,1.67-.16,3.4-1.12,4.17-3.28ZM121.37,65.72c1.94-1.41,2.53-3.53,1.76-5.19-.53-1.12-2.12-2.6-3.91-2.59l-13.29.09c-1.5.01-2.63,2.52-2.77,3.63-.65,4.99,11.17,9.2,18.22,4.06Z"/>
      <path class="cls-1" d="M158.12,45.28c.5-5.93.82-14.8-1.24-16.44s-5.79-.04-8.84,2.42l.02,14.29c0,2.33,1.73,3.34,3.95,3.68.81.12.83,2.93.1,2.94l-18.32.2c-.32-1.24-.27-2.16.07-3.3,2.79.13,4.5-1.71,4.52-4.34l.09-13.47c.01-2.23-3.72-2.5-4.52-3.9-.3-.52-.23-1.97.42-2.18l13.36-4.35.56,6.19c3.25-2.12,6.53-4.03,10.39-4.87,4.69-1.02,8.42,1.9,9.04,6.58,1.53,11.6-2.51,20.2,3.61,20.25,1.43.01,1.47,3.11.6,3.12l-17.5.24c-.34-.95-.33-2.51.15-3.04,1.94-.57,3.37-1.8,3.55-4.03Z"/>
      <path class="cls-1" d="M208.63,44.79c-5.54,9.92-20.32,10.52-27.44,5.12-5.07-3.85-7.04-10.54-5.14-16.76,1.72-5.64,7.18-9.87,13.61-10.85,7.02-1.07,14.18.55,18.32,6.5,3.33,4.79,3.46,10.95.65,15.99ZM196.19,28.39c-1.47-1.94-3.81-2.91-5.88-2.42-6.07,1.43-5.81,13.78-.57,20.84,1.57,2.12,3.92,2.82,6.42,2.22,5.47-1.32,5.19-13.83.03-20.63Z"/>
      <g>
        <path class="cls-1" d="M214.55,52.25c-.82,0-.69-2.94-.03-2.99,2.5-.18,4.31-1.5,4.32-4.14l.13-34.78c.01-3.56-3.96-3.52-4.59-4.65-.3-.54-.25-2.05.56-2.3l8.88-2.77c1.6-.5,3.12-.8,4.82-.48v46.07c0,3.71,5.46,1.51,4.32,6.03l-18.41.03Z"/>
        <path class="cls-1" d="M235.94,52.17c-.75,0-.62-3.03.28-3.16,2.32-.35,4.05-1.76,4.04-4.18l-.04-14.21c0-1.64-3.48-1.93-4.55-3.26-.38-.48-.36-2.17.31-2.38l13.73-4.19.14,24.1c.01,2.3,1.18,3.62,3.52,4.14,1.1.24,1.05,3.27.13,3.26l-17.56-.12Z"/>
        <path class="cls-1" d="M247.51,4.48c2.78.87,4.05,3.53,3.51,5.89-.62,2.69-3,4.1-5.91,4.17s-5.25-1.09-5.99-3.46c-.81-2.61.1-5.46,3-6.53,1.69-.62,3.67-.6,5.4-.06Z"/>
      </g>
      <path class="cls-1" d="M274.54,49.92c-2.49,2.51-5.07,3.16-8.25,3.29-4.38.18-7.85-2.16-8.69-6.11-2.16-10.24,10.67-9.69,16.12-14,1.63-1.29.85-5.28-.42-6.52-1.37-1.34-3.01-1.19-4.43-.65-1.17.44-1.25,2.55-1.39,3.97l-8.64,3.58c-1.9-4.45.92-7.94,4.81-9.59,10.86-4.59,20.3.39,20.34,6.04l.11,16.22c.02,2.59,3.42.03,4.38,1.51.73,1.13.29,2.01-.84,2.82-4.68,3.35-10.78,4.22-13.09-.57ZM274.36,45.46l.07-8.27-4.69,2.41c-3.07,1.58-3.81,7.14-.44,8.93,1.68.89,5.04-1.43,5.05-3.07Z"/>
      <path class="cls-1" d="M78.43,49.92c-2.49,2.51-5.07,3.16-8.25,3.29-4.38.18-7.85-2.16-8.69-6.11-2.16-10.24,10.67-9.69,16.12-14,1.63-1.29.85-5.28-.42-6.52-1.37-1.34-3-1.18-4.43-.65-1.17.43-1.25,2.56-1.39,3.97l-8.64,3.58c-1.9-4.45.92-7.94,4.81-9.59,10.86-4.59,20.3.39,20.34,6.04l.11,16.22c.02,2.59,3.42.03,4.38,1.51.73,1.13.29,2.01-.84,2.82-4.68,3.35-10.78,4.22-13.09-.57ZM78.25,45.46l.07-8.27-4.69,2.41c-3.07,1.58-3.81,7.14-.44,8.93,1.68.89,5.04-1.43,5.05-3.07Z"/>
    </g>
  </g>
</svg>