<?xml version="1.0" encoding="UTF-8"?>
<svg id="Layer_2" data-name="Layer 2" xmlns="http://www.w3.org/2000/svg" viewBox="0 0 484.56 72">
  <defs>
    <style>
      .cls-1 {
        fill: #f2eee7;
      }
    </style>
  </defs>
  <g id="Layer_1-2" data-name="Layer 1">
    <g>
      <path class="cls-1" d="M316.09,65.7c-3.74,3.55-8.38,5.95-13.92,6.18-6.66.28-10.52-4.17-10.81-10.38-.3-6.48,2.73-11.43,9.14-13.13l14.81-3.93c1.15-3.18.99-7.11-.35-10.31-1.05-2.5-4.02-2.89-6.11-3-7.95-.41-5.1,8.96-10.53,9.73-2.34.33-6.03-.11-6.15-3.39-.14-4.07,3.94-7.68,7.87-8.98,11.01-3.63,25.24-.7,25.37,9.45l.34,26.66c.02,1.27,1.95,1.88,2.77,1.41,2.4-1.37,2.04-4.42,4.19-4.88.7-.15,2.09-.24,2.56.82s-2.45,9.37-8.87,9.87c-4.49.35-8.43-.27-10.3-6.13ZM315.62,60.18c1.08-4.23.2-7.55.22-11.56l-10.69,3.48c-2.68.87-4.03,3.65-4.22,5.81-.21,2.39.27,4.69,2.88,6.14,3.49,1.93,10.66.59,11.81-3.87Z"/>
      <path class="cls-1" d="M142.08,64.11c6.73,6.01,15.97,2.53,20.15-4.21.54-.87,3.94.68,3.93,1.65-3.48,7.67-11.56,10.98-19.92,10.38-12.11-.87-19.54-11.01-18.93-22.91.41-8,3.56-15.41,9.99-19.11,6.77-3.89,15.98-4.03,22.1.86,5.21,4.16,7.02,10.73,6.63,17.57l-28.41.25c-.45,5.55.19,11.71,4.45,15.52ZM156.29,43.91c.07-3.72-.42-7.56-3.02-10-3.11-2.93-7.86-2.71-10.85-.58-3.14,2.24-4.74,6.33-4.52,10.61l18.39-.03Z"/>
      <path class="cls-1" d="M420.39,64.11c6.73,6.01,15.97,2.53,20.15-4.21.54-.87,3.94.68,3.93,1.65-3.48,7.67-11.56,10.98-19.92,10.38-12.11-.87-19.54-11.01-18.93-22.91.41-8,3.56-15.41,9.99-19.11,6.77-3.89,15.98-4.03,22.1.86,5.21,4.16,7.02,10.73,6.63,17.57l-28.41.25c-.45,5.55.19,11.71,4.45,15.52ZM434.6,43.91c.07-3.72-.42-7.56-3.02-10-3.11-2.93-7.86-2.71-10.85-.58-3.14,2.24-4.74,6.33-4.52,10.61l18.39-.03Z"/>
      <path class="cls-1" d="M362.92,69.85c-5.75,3.69-13.11,2.27-18.35-1.47-1.85,1.79-3.54,2.79-5.58,2.31l.05-14.07c0-1.04,1.39-1.26,1.98-1.2,2.84.29,2.4,11.18,12.92,11.67,3.34.15,5.84-1.56,6.52-4.12.72-2.73-.41-5.42-3.17-6.9l-11.48-6.13c-7.25-3.87-9.01-14.3-2.76-20.01,5.21-4.76,12.97-3.68,18.06,1.01.6-2.17,4.33-3.49,4.8-2.25l.18,13.77c-.34.72-3.11.69-3.32-.03-1.1-4.76-3.85-9.5-8.87-10.78-2.88-.74-5.59.63-6.7,2.94-.96,2.01-.1,5.25,2.41,6.55l10.86,5.61c4.45,2.3,7.1,6.16,7.7,10.51s-.72,9.69-5.25,12.6Z"/>
      <path class="cls-1" d="M387.87,58.9c0,2.95,1.41,5.22,3.1,5.81,5.22,1.83,7.25-5.47,10.01-2.91,2.83,2.62-7.05,12.35-16.63,8.66-3.86-1.49-5.75-5.38-5.83-9.53l-.54-28.23c-.12-.68-3.06-.97-3.65-.67-.82.41-1.64-2.78-.35-3.27,9.73-3.67,8.44-13.64,9.36-15.14.51-.83,2.4-1.04,4.34-.55l.2,14.51,10.69.14c.36,1.13.51,2.29.22,4.25l-11,.29.06,26.66Z"/>
      <path class="cls-1" d="M466.65,60.74c.02,7.89,8.91,3.75,7.26,10l-23.25.02c-.37-1.51-.29-2.68.03-4.02,4.24.11,6.33-2.45,6.34-6.3l.02-19.63c0-4.05-2.46-6.03-6.09-6.64-2.74-5.64,3.9-3.79,13.97-6.85,1.34,2.06,1.24,3.88,1.54,6.49,5.68-6.16,13.68-8.48,17.11-3.6,1.23,1.75,1.53,5.04-.42,6.63-3.26,2.67-5.55-.1-8.1-1.86-2.85-1.97-8.46,1.68-8.45,4.81l.04,20.93Z"/>
      <path class="cls-1" d="M262.88,60.47l-.34-44.14-22.64,53.56c-.51,1.21-2.55,1.21-3.6.8-.99-.38-1.42-1.23-2.05-2.75l-22.25-53.3.12,43.99c.01,4.46,2.41,7.63,7.17,7.81.98.06,2.26.34,2.64.85.56.76.33,3.45-.68,3.44l-23.79-.15c-.7,0-.87-2.99-.31-3.4,1.69-1.25,9.74-.27,9.74-8.8V12.91c.02-8.77-12.55-3-9.5-10.19l21.43.06,21.55,52.53,21.87-52.44,21.56-.02c3.28,7-9.72,1.2-9.73,10.14l-.03,47.39c0,9.22,12.18,3.41,9.96,10.34l-31.14.04c-.11-1.41-.28-2.65-.03-3.17.38-.77,2.32-1.11,3.43-1.02,3.84.14,6.65-2.31,6.62-6.1Z"/>
      <g>
        <path class="cls-1" d="M105.98,41.29c0-4.95-2.78-7.88-7.64-8.16-3.16-.18-9.47,1.42-10.61,4.92l-.25,22.79c-.08,7.45,8.85,3.95,6.44,9.84h-22.2c-.76-.85-.66-3.18.07-3.83,3.72-.14,6.17-2.51,6.17-6.43l-.1-47.45c0-3.31-2.29-5.54-5.51-6.06-1.53-.25-1.56-3.68-.6-3.87l15.45-3.04.09,32.06c5.47-3.87,11.01-5.45,17.49-4.78,6.29.65,10.44,5.11,10.52,11.46l.27,22.11c.09,7.63,8.67,3.81,6.49,9.86l-22.38.06c-.48-1.52-.4-2.7-.01-4.02,4.2.09,6.31-2.46,6.31-6.3v-19.15Z"/>
        <path class="cls-1" d="M48.86,70.55l-30.86.2c-.43-1.33-.38-2.73-.16-3.43.39-1.25,10.08.9,10.08-6.92V6.87c-5.62-.22-11.03-.64-16.26,1.26-7.5,2.72-5.2,14.34-11.67,11.66L1.94,2.7h63.03s1.46,16.58,1.46,16.58c.07.82-1.88,1.11-2.66.82-.99-.36-1.41-1.02-1.95-2.71-3.61-11.39-9.87-11.22-22.94-10.46l.03,53.5c0,3.98,2.8,6.29,6.79,6.13.71-.03,1.95.04,2.38.22.64.27,1.27,1.58.78,3.76Z"/>
      </g>
    </g>
  </g>
</svg>