<?xml version="1.0" encoding="UTF-8"?>
<svg id="Layer_2" data-name="Layer 2" xmlns="http://www.w3.org/2000/svg" viewBox="0 0 973.12 72">
  <defs>
    <style>
      .cls-1 {
        fill: #f2efe7;
      }
    </style>
  </defs>
  <g id="Layer_1-2" data-name="Layer 1">
    <g>
      <path class="cls-1" d="M504.56,64.55l-1.03-55.7-25.65,60.5c-.52,1.24-3.89,2.05-4.39.83l-24.4-59.63-1.96,54.43c-.06,1.67,3.54,2.57,4.42,2.28l2.14.45c.52.11.76,1.78.23,2.5l-18.08.02c-.78,0-.99-1.73-.6-2.14,1.12-1.16,7.29.29,7.48-5.19l1.92-56.73c-3.89-3.28-8.51-.46-6.87-4.56l17.37.03,22.87,55.98L501.69,1.72l16.28-.14c5.19,3.73-5.62,1.74-5.57,5.17l.82,55.59c.02,1.61.24,3.06,1.19,4.01.68.68,2.15,1.11,3.64,1.18l2.08.09c.69.03.84,2.49.26,2.49l-22.88.18c-1.28-4.38,7.12-1.53,7.05-5.74Z"/>
      <path class="cls-1" d="M127.85,70.13l-21.3.14c-.8,0-1.04-1.8-.65-2.23.46-.5,1.44-.64,2.36-.57,2.93.13,4.45-1.58,4.45-4.27v-26.77s-38.38,0-38.38,0v26.78c0,2.68,1.74,4.38,4.57,4.17.6.21,1.5.28,1.95.24.56-.04.79,2.34.22,2.59l-21.69.02c-1.04,0-.93-2.64.09-2.63,1.48.02,5.54-.21,6.08-1.95l.1-58.79c0-2.73-6.16-2.2-6.89-3.16-.39-.52-.18-2.12.61-2.12l21.63.09c.37.19.51,1.8.27,2.09-.36.43-1.43.64-2.37.62-2.8-.07-4.61,1.46-4.61,4.16l.03,24.18h38.38s-.06-24.04-.06-24.04c0-2.68-1.57-4.46-4.49-4.25-.63-.21-1.4-.29-1.93-.25-.64.05-.77-2.4-.19-2.47l21.64-.06c.89,0,1.09,2.48-.08,2.53-1.66.07-5.1.31-6.17,1.95l-.06,58.79c0,1.74,4.23,3.11,6.57,2.72.53-.09.7,2.48-.09,2.48Z"/>
      <path class="cls-1" d="M696.41,70.13l-21.3.14c-.8,0-1.04-1.8-.65-2.23.46-.5,1.44-.64,2.36-.57,2.93.13,4.45-1.58,4.45-4.27v-26.77s-38.38,0-38.38,0v26.78c0,2.68,1.74,4.38,4.57,4.17.61.21,1.5.27,1.95.24.56-.04.79,2.34.22,2.59l-21.69.02c-1.02,0-1.07-2.63.15-2.63,1.43,0,5.48-.21,6.03-1.95l.1-58.79c0-2.73-6.17-2.21-6.89-3.16-.39-.52-.18-2.12.61-2.12l21.63.09c.37.19.51,1.8.27,2.09-.36.43-1.43.64-2.37.62-2.8-.07-4.61,1.46-4.61,4.16l.03,24.18h38.38s-.06-24.04-.06-24.04c0-2.68-1.57-4.46-4.49-4.25-.63-.21-1.4-.29-1.93-.25-.64.05-.77-2.4-.19-2.47l21.64-.06c.89,0,1.09,2.48-.08,2.53-1.66.07-5.1.31-6.17,1.95l-.06,58.79c0,1.92,3.23,2.41,4.4,2.52l2.17.2c.52.05.69,2.48-.09,2.49Z"/>
      <path class="cls-1" d="M266.32,70.5l-45.34-58.09-.16,49.97c0,2.94,2.01,4.65,4.89,4.98l1.89.22c.61.07.76,2.49.18,2.56l-18.07.1c-.46-.02-.74-1.64-.42-1.97,1.17-1.22,4.4-.79,5.74-1.96.93-.81,1.32-2.39,1.32-3.97l-.04-52.93c0-3.27-2.02-4.45-5.19-4.96l-1.83-.3c-.65-.1-.76-2.3-.2-2.39l14.78-.19,42.62,54.65.06-48.57c0-2.18-3.99-3.21-5.38-3.07-1.18-.43-1.55-.37-2.12-.39-.68-.02-.7-2.42-.14-2.42l19.33-.18c1.43,5.08-7.02.45-7.02,7.82l-.07,60.9c-.72.29-3.88,1.29-4.82.17Z"/>
      <path class="cls-1" d="M921.91,70.33l-16.78-.11c-1.76-4.97,6.61-.22,6.6-7.17l-.02-53.45c0-1.43-.34-2.94-1-3.75-2.17-2.65-7.35.12-6.19-4.26h28.31c21.77,0,38.89,9.62,40.22,32.06.97,16.25-7.74,30.15-23.89,34.64-8.6,2.39-17.67,2.1-27.26,2.04ZM962.81,45.63c1.19-5.74,1.1-11.24.11-16.63-4.52-20.06-22.26-25.6-42.56-23.33l-.02,60.09c19.48,3.51,37.74-.36,42.48-20.13Z"/>
      <path class="cls-1" d="M740.53,43.49c-2.33-3.53-5.93-5.39-10.62-4.66l.26,26.15c.03,2.85,6.1,2.08,6.94,3.07.53.63.16,2.25-.65,2.25l-20.25.02c-.92,0-1.62-.18-1.93-.58-2.07-2.67,3.77-1.83,5.75-3.15.9-.6,1.3-2.05,1.3-3.55l-.04-54.18c0-7.03-8.54-2.2-7.16-7.33l28.28.27c5.58.05,11.23,2.67,14.47,7.16,3.64,5.04,3.68,11.82,1.06,17.72-2.11,4.75-7.34,8.22-13.46,10.25l5.23,5.22,13.27,19.72c5.62,8.36,12.33,3.49,10.7,8.32l-15.59-.04-17.57-26.67ZM746.6,30.28c5.52-5.9,5.22-16.42-.57-21.65-4.44-4.01-10.84-3.96-16.08-3.19l.05,29.26c5.91.66,12.19.31,16.6-4.41Z"/>
      <path class="cls-1" d="M423.96,36c0,19.88-16.22,36-36.22,36s-36.22-16.12-36.22-36S367.73,0,387.74,0s36.22,16.12,36.22,36ZM390.1,67.75c9.24-.68,16.59-5.53,20.14-13.62,4.96-11.3,4.85-24.26-.06-35.52-3.66-8.4-11.02-13.46-19.98-14.22-10.72-.91-20.38,4.12-24.8,14.02-5.24,11.73-5.14,25.28.92,36.62,4.69,8.77,13.39,13.49,23.78,12.73Z"/>
      <path class="cls-1" d="M811.49,37.7c-5.01-1.61-10.06-.69-15.41-.68l-.07,29.37c6.56.3,13.09.72,19.61-.74,3.01-.67,4.46-4.1,5.56-6.56l.99-2.22c.39-.88,2.48-1.08,2.98-.36l-2.03,13.53-42.64.23v-2.09c0-1.1,6.77-.22,6.77-3.18l.14-55.59c0-1.58-.2-3.14-1.2-4-1.75-1.51-5.21-.6-5.74-1.79-.18-.41-.18-1.95.62-1.95l40.1-.09,1.58,12.06c.05.38-1.85.58-2.11.31-2.01-2.08-2.15-8.49-9.18-8.47l-15.37.05-.05,27.29,12.78.02c2.91,0,4.2-2.06,4.82-4.86l.54-2.41c.14-.65,2.58-.54,2.58.15v18.58c0,.68-2.5,1.03-2.72-.24-.28-1.61-.31-5.65-2.55-6.37Z"/>
      <path class="cls-1" d="M20.71,67.51c1.35-.13,2.52.09,2.89.53.47.55.16,2.3-.67,2.29l-22.09-.1c-1.06,0-1.06-2.64.13-2.64,1.5,0,5.46-.18,6.09-1.89l.06-58.82c0-2.68-6.19-2.22-6.94-3.15C-.22,3.22.03,1.49.86,1.51l29.38.5c9.76.17,16.7,8.23,15.77,17.78.38,7.81-3.89,14.31-10.89,17.54-6.05,2.79-12.52,2.96-19.29,2.16v23.73c-.01,2.56,1.69,4.41,4.88,4.29ZM31.77,32.49c6.81-6.35,6.87-18.19.07-24.08-4.42-3.83-10.4-3.57-15.98-3.12v30.42c5.13,1.2,11.39.99,15.91-3.22Z"/>
      <path class="cls-1" d="M178.27,44.36l-22.56-.05-7.2,20.78c-.88,2.53,5.18,2,6.08,2.95.48.51.16,2.23-.67,2.22l-17.69-.03c-.81,0-1.07-1.69-.65-2.18.98-1.17,6.28.55,8.42-5.16L166.71,2.29c.44-1.16,4.22-1.86,4.72-.83l22.77,61.41c2.24,6.03,7.41,3.92,8.38,5.2.43.56.14,2.22-.61,2.22l-21.19-.04c-.83,0-1.09-1.7-.66-2.19.85-.96,3.41-.22,4.77-1.28.62-.49.82-1.6.47-2.58l-7.09-19.83ZM176.82,40.61l-9.94-26.91-9.87,26.91h19.81Z"/>
      <path class="cls-1" d="M326.81,70.24l-22.42.03c-1.55-5.12,7.15-.29,7.15-6.84l.03-58.07c-12.53-.16-19.45-2.32-22.03,7.75l-.48,1.87c-.13.52-2.15.83-2.72.27l1.32-13.72,56.37-.02,1.52,13.98c-1.54.31-2.71-.06-2.9-.58l-.82-2.21c-1.62-4.37-3.62-7.41-8.31-7.43l-13.3-.04-.03,57.99c0,1.33.27,2.64,1.07,3.28,1.76,1.4,5.22.54,6.11,1.58.33.39.15,2.16-.57,2.16Z"/>
      <path class="cls-1" d="M598.42,70.24l-22.42.03c-1.55-5.12,7.15-.29,7.15-6.84l.03-58.07c-12.52-.16-19.45-2.32-22.03,7.75l-.48,1.87c-.13.52-2.15.83-2.72.27l1.32-13.72,56.37-.02,1.52,13.98c-1.54.31-2.71-.05-2.9-.58l-.82-2.21c-1.62-4.37-3.62-7.41-8.31-7.43l-13.3-.04-.03,57.99c0,1.33.27,2.64,1.07,3.28,1.76,1.4,5.22.54,6.11,1.58.34.39.15,2.16-.57,2.16Z"/>
      <path class="cls-1" d="M872.51,44.39l-22.62-.08-7.2,20.74c-.9,2.6,5.21,2.03,6.09,3.05.34.4.15,2.14-.59,2.14h-18.13c-1.78-4.85,5.41-.26,8.11-7.48l22.47-60.01c.58-1.56,3.18-2.04,4.84-1.52l22.88,61.79c2.6,7.02,9.8,2.31,8.31,7.26h-21.61c-1.27,0-1.16-2.78.11-2.66,1.07.1,4.69-.47,4.5-1.7l-7.15-21.52ZM870.96,40.62l-10.05-27.2-9.75,27.19,19.8.02Z"/>
    </g>
  </g>
</svg>