<?xml version="1.0" encoding="UTF-8"?>
<svg id="Layer_2" data-name="Layer 2" xmlns="http://www.w3.org/2000/svg" viewBox="0 0 515.33 268.18">
  <defs>
    <style>
      .cls-1 {
        fill: #f5f1e9;
      }

      .cls-2 {
        fill: #f6f2ea;
      }
    </style>
  </defs>
  <g id="Layer_1-2" data-name="Layer 1">
    <g>
      <g>
        <polygon class="cls-2" points="230.14 267.8 211.93 268.08 193.21 230.47 192.99 268.14 177.2 268.1 177.21 196.28 197.32 196.34 213.68 230.68 214.17 196.26 230.07 196.3 230.14 267.8"/>
        <path class="cls-2" d="M515.33,268.07l-18.84.07-8.64-28.59c-1.81-.48-3.33-.51-5.45-.12l-.05,28.7h-18.63s0-71.87,0-71.87l38.61-.05,11.78,11.61-.12,20.36-8.52,8.4,9.85,31.5ZM494.43,224.19c2.06-1.2,2-7.81-.05-8.74-3.53-1.61-8.04-.57-11.86-.68l-.03,10.38c3.89-.3,8.18,1.24,11.95-.95Z"/>
        <path class="cls-1" d="M277,268.18l-25.51-.06-12.9-12.69-.04-46.73,12.67-12.51,26.16.09,12.4,12.4.09,46.53-12.87,12.97ZM271.26,248.34l-.15-32.53c-4.38-1.75-9.73-1.94-13.88.28v32.17c4.05,2.49,9.7,2.55,14.03.08Z"/>
        <polygon class="cls-2" points="399.55 267.96 381.01 268.15 381 238.9 367.23 238.85 367.05 268.14 348.9 268.11 348.9 196.28 367.1 196.25 367.11 224.32 381 224.37 381.01 196.24 399.54 196.3 399.55 267.96"/>
        <polygon class="cls-2" points="446.83 238.4 427.84 238.48 427.79 249.86 456.17 249.9 456.16 268.16 409.05 268.16 409.05 196.22 456.11 196.23 456.11 214.68 427.76 214.72 427.71 225.17 446.79 225.19 446.83 238.4"/>
        <path class="cls-2" d="M149.19,253.04l-13.01-.32-3.46,15.39-16.62.03,17.09-71.82,22.21-.03,16,71.84-18.95.02-3.27-15.09ZM146.94,242.21l-4.65-19.59-4.34,19.75,9-.16Z"/>
        <polygon class="cls-2" points="326.93 268.04 308.52 268.12 308.52 213.76 291.75 213.56 291.77 196.24 343.38 196.22 343.39 213.56 326.93 213.72 326.93 268.04"/>
      </g>
      <g>
        <polygon class="cls-2" points="112.61 71.75 94.74 71.89 76.1 34.88 75.77 71.9 59.95 71.88 59.95 .07 79.85 0 96.47 35.12 96.83 .04 112.6 .06 112.61 71.75"/>
        <path class="cls-2" d="M38.52,71.88l-25.57.09L.02,59.36l-.02-46.87L12.4.09l26.56-.02,12.32,12.42-.03,46.86-12.73,12.52ZM32.76,52.09l-.32-32.8c-4.78-1.27-9.59-1.54-13.76.35v32.62c4.26,2.15,9.8,2.35,14.08-.18Z"/>
        <polygon class="cls-2" points="159.89 42.17 140.74 42.27 140.77 53.65 169.19 53.71 169.09 71.95 121.98 71.94 121.99 .02 168.98 0 169 18.48 140.74 18.48 140.7 28.96 159.83 28.98 159.89 42.17"/>
      </g>
      <g>
        <path class="cls-1" d="M244.91,34.48l5.37,5.88.04,19.61-11.81,12-38.54.12-.03-71.92,38.17-.07,11.85,11.58-.03,17.94-5.04,4.85ZM230.76,27.81c1.29-2.21,1.76-7.44-.45-8.47-3.65-1.7-8.08-.51-11.72-.59l-.06,9.47c4.03.08,7.69.6,12.23-.41ZM230.76,52.38c1.93-2.06,1.59-8.58-.33-9.81-3.57-1.39-8.31-.52-11.84-.48l.08,11.47c3.37-.07,9.32,1.78,12.1-1.19Z"/>
        <path class="cls-2" d="M286.36,56.96l-13.01-.32-3.46,15.39-16.62.03L270.36.24l22.21-.03,16,71.84-18.95.02-3.27-15.09ZM284.11,46.13l-4.65-19.59-4.34,19.75,9-.16Z"/>
        <path class="cls-1" d="M339.55,71.91l-18.57.12V17.57s-16.67-.15-16.67-.15V.19s51.64-.07,51.64-.07c.71,5.67.77,11.32.05,17.32l-16.47.12.02,54.35Z"/>
        <polygon class="cls-2" points="392.66 71.95 374.26 72.04 374.25 17.68 357.49 17.47 357.5 .15 409.12 .14 409.13 17.48 392.66 17.64 392.66 71.95"/>
        <polygon class="cls-2" points="461.76 53.82 461.76 72.09 414.78 72.08 414.78 .21 433.42 .2 433.43 53.76 461.76 53.82"/>
        <polygon class="cls-2" points="505.99 42.32 487 42.4 486.95 53.77 515.33 53.82 515.32 72.08 468.21 72.08 468.21 .14 515.27 .15 515.27 18.59 486.92 18.63 486.87 29.09 505.94 29.1 505.99 42.32"/>
      </g>
      <g>
        <path class="cls-2" d="M83.92,155.25c-4.36-1.11-8.51-.45-13.4-.49l-3.27,15.31-16.56-.07,17.02-71.7,22.24-.08,15.97,71.83-18.94.04-3.06-14.84ZM81.47,144.33l-4.47-20.3-4.56,20.29h9.02Z"/>
        <path class="cls-2" d="M323.85,169.94l-18.78.13-8.71-28.64c-1.96-.41-3.47-.41-5.5-.07v28.73s-18.63-.02-18.63-.02v-71.87s38.95.04,38.95.04l11.46,11.5.04,20-8.62,8.76,9.8,31.45ZM302.94,126.23c2-1.13,1.98-7.95-.12-8.87-3.56-1.55-8.14-.5-11.82-.66v10.42c3.67-.35,8.23,1.21,11.94-.89Z"/>
        <polygon class="cls-2" points="255.45 140.34 236.3 140.44 236.32 151.81 264.74 151.88 264.64 170.12 217.54 170.11 217.54 98.19 264.54 98.17 264.55 116.65 236.3 116.65 236.26 127.13 255.38 127.15 255.45 140.34"/>
        <path class="cls-1" d="M150.1,127.74l.2,13.47h-20.17s0,28.89,0,28.89l-18.36.03-.03-71.93h46.9c.81,6.6.82,12.45-.15,18.45h-28.3s-.05,11.17-.05,11.17l19.96-.08Z"/>
        <polygon class="cls-1" points="195.71 169.92 177.13 170.07 177.13 115.59 160.58 115.47 160.49 98.2 212.07 98.17 212.17 115.44 195.7 115.62 195.71 169.92"/>
      </g>
    </g>
  </g>
</svg>