<?xml version="1.0" encoding="UTF-8"?>
<svg id="Layer_2" data-name="Layer 2" xmlns="http://www.w3.org/2000/svg" viewBox="0 0 1255.46 72">
  <defs>
    <style>
      .cls-1 {
        fill: #f5f1e9;
      }

      .cls-2 {
        fill: #f6f2ea;
      }
    </style>
  </defs>
  <g id="Layer_1-2" data-name="Layer 1">
    <g>
      <polygon class="cls-2" points="970.28 71.61 952.07 71.89 933.34 34.28 933.13 71.95 917.34 71.91 917.34 .09 937.46 .16 953.82 34.49 954.3 .07 970.21 .11 970.28 71.61"/>
      <path class="cls-2" d="M1255.46,71.88l-18.84.07-8.64-28.59c-1.81-.48-3.33-.51-5.45-.12l-.05,28.7h-18.63s0-71.87,0-71.87l38.61-.05,11.78,11.61-.12,20.36-8.52,8.4,9.85,31.5ZM1234.57,28c2.06-1.2,2-7.81-.05-8.74-3.53-1.61-8.04-.57-11.86-.68l-.03,10.38c3.89-.3,8.18,1.24,11.95-.95Z"/>
      <path class="cls-1" d="M1017.14,71.99l-25.51-.06-12.9-12.69-.04-46.73,12.67-12.51,26.16.09,12.4,12.4.09,46.53-12.87,12.97ZM1011.4,52.16l-.15-32.53c-4.38-1.75-9.73-1.94-13.88.28v32.17c4.05,2.49,9.7,2.55,14.03.08Z"/>
      <polygon class="cls-2" points="1139.69 71.77 1121.14 71.97 1121.14 42.71 1107.37 42.66 1107.19 71.95 1089.04 71.92 1089.04 .09 1107.24 .06 1107.25 28.13 1121.14 28.18 1121.14 .05 1139.67 .11 1139.69 71.77"/>
      <polygon class="cls-2" points="1186.97 42.22 1167.97 42.29 1167.93 53.67 1196.31 53.71 1196.3 71.97 1149.19 71.97 1149.19 .04 1196.25 .04 1196.25 18.49 1167.9 18.53 1167.85 28.98 1186.92 29 1186.97 42.22"/>
      <path class="cls-2" d="M889.32,56.86l-13.01-.32-3.46,15.39-16.62.03L873.33.13l22.21-.03,16,71.84-18.95.02-3.27-15.09ZM887.07,46.02l-4.65-19.59-4.34,19.75,9-.16Z"/>
      <polygon class="cls-2" points="1067.06 71.85 1048.66 71.93 1048.65 17.57 1031.88 17.37 1031.9 .05 1083.51 .03 1083.53 17.37 1067.06 17.53 1067.06 71.85"/>
      <path class="cls-1" d="M249.13,34.38l5.37,5.88.04,19.61-11.81,12-38.54.12-.03-71.92L242.35.01l11.85,11.58-.03,17.94-5.04,4.85ZM234.98,27.71c1.29-2.21,1.76-7.44-.45-8.47-3.65-1.7-8.08-.51-11.72-.59l-.06,9.47c4.03.08,7.69.6,12.23-.41ZM234.98,52.28c1.93-2.06,1.59-8.58-.33-9.81-3.57-1.39-8.31-.52-11.84-.48l.08,11.47c3.37-.07,9.32,1.78,12.1-1.19Z"/>
      <path class="cls-2" d="M290.58,56.86l-13.01-.32-3.46,15.39-16.62.03L274.59.13l22.21-.03,16,71.84-18.95.02-3.27-15.09ZM288.34,46.02l-4.65-19.59-4.34,19.75,9-.16Z"/>
      <path class="cls-1" d="M343.78,71.8l-18.57.12V17.47s-16.67-.15-16.67-.15V.08s51.64-.07,51.64-.07c.71,5.67.77,11.32.05,17.32l-16.47.12.02,54.35Z"/>
      <polygon class="cls-2" points="396.89 71.85 378.48 71.93 378.48 17.57 361.71 17.37 361.73 .05 413.34 .03 413.36 17.37 396.89 17.53 396.89 71.85"/>
      <polygon class="cls-2" points="465.98 53.71 465.98 71.98 419 71.97 419.01 .1 437.65 .09 437.66 53.66 465.98 53.71"/>
      <polygon class="cls-2" points="112.61 71.78 94.74 71.92 76.1 34.91 75.77 71.93 59.95 71.91 59.95 .1 79.85 .03 96.47 35.15 96.83 .07 112.6 .09 112.61 71.78"/>
      <path class="cls-2" d="M38.52,71.91l-25.57.09L.02,59.39l-.02-46.87L12.4.12l26.56-.02,12.32,12.42-.03,46.86-12.73,12.52ZM32.76,52.12l-.32-32.8c-4.78-1.27-9.59-1.54-13.76.35v32.62c4.26,2.15,9.8,2.35,14.08-.18Z"/>
      <polygon class="cls-2" points="159.89 42.2 140.74 42.3 140.77 53.67 169.19 53.74 169.09 71.98 121.98 71.97 121.99 .05 168.98 .03 169 18.51 140.74 18.51 140.7 28.99 159.83 29.01 159.89 42.2"/>
      <polygon class="cls-2" points="510.22 42.22 491.22 42.29 491.18 53.67 519.55 53.71 519.55 71.97 472.44 71.97 472.44 .04 519.5 .04 519.5 18.49 491.15 18.53 491.09 28.98 510.17 29 510.22 42.22"/>
      <path class="cls-2" d="M584.28,57.11c-4.36-1.11-8.51-.45-13.4-.49l-3.27,15.31-16.56-.07L568.07.16l22.24-.08,15.97,71.83-18.94.04-3.06-14.84ZM581.83,46.19l-4.47-20.3-4.56,20.29h9.02Z"/>
      <path class="cls-2" d="M824.21,71.8l-18.78.13-8.71-28.64c-1.96-.41-3.47-.41-5.5-.07v28.73s-18.63-.02-18.63-.02V.05s38.95.04,38.95.04l11.46,11.5.04,20-8.62,8.76,9.8,31.45ZM803.3,28.09c2-1.13,1.98-7.95-.12-8.87-3.56-1.55-8.14-.5-11.82-.66v10.42c3.67-.35,8.23,1.21,11.94-.89Z"/>
      <polygon class="cls-2" points="755.81 42.2 736.66 42.3 736.68 53.67 765.11 53.74 765.01 71.98 717.9 71.97 717.91 .05 764.9 .03 764.92 18.51 736.66 18.51 736.62 28.99 755.75 29.01 755.81 42.2"/>
      <path class="cls-1" d="M650.47,29.6l.2,13.47h-20.17s0,28.89,0,28.89l-18.36.03-.03-71.93h46.9c.81,6.6.82,12.45-.15,18.45h-28.3s-.05,11.17-.05,11.17l19.96-.08Z"/>
      <polygon class="cls-1" points="696.07 71.78 677.5 71.93 677.49 17.45 660.95 17.33 660.86 .06 712.43 .03 712.53 17.3 696.06 17.48 696.07 71.78"/>
    </g>
  </g>
</svg>