<?xml version="1.0" encoding="UTF-8"?>
<svg id="Layer_2" data-name="Layer 2" xmlns="http://www.w3.org/2000/svg" viewBox="0 0 617.4 72">
  <defs>
    <style>
      .cls-1 {
        fill: #efece4;
      }

      .cls-2 {
        fill: #f2efe7;
      }
    </style>
  </defs>
  <g id="Layer_1-2" data-name="Layer 1">
    <g>
      <path class="cls-1" d="M73.62,24.35l-7.12,4.23-.25,17.46c-.04,3.06.56,5.3,2.67,7.75-1.39,1.78-3.75,4.18-6.07,4.09-1.96-.08-4.14-2.37-5.33-3.6-.17-1.84,1.72-2.95,2.2-4.43V11.64s-5.18-7.22-5.18-7.22c-3.68,6.98-14.3,7.47-23.48,5.29l-.33,27.38c-2.02,1.24-4.07,2.24-6.67,2.63l2.71-28.21c.31-3.2-11.3-8.31-24.36,1.46-.6.45-1.23.47-1.64.51C-2.68,13.84,5.61-3.71,23.07,1.12c5.7,1.58,11.34,2.59,17.29,2.93l12.71-1.23c4.77.91,8.63,1.76,12.91-1.13.51-.35,2.15.22,2.37.77.73,1.83-2.1,2.77-2.06,6.03l.18,15.4c4.1-1.53,7.37-5.36,11.75-5.79,3.54-.35,5.67,5.08,5.69,8.15l.12,23.68c.06,11.12-9.29,18.45-20.37,17.85,1.68-3.23,5.12-3.73,7.61-5.45,3.81-2.64,6.29-6.1,6.31-10.95l.1-25.24c0-.87-.7-1.73-1.11-1.98-.61-.37-1.78-.5-2.95.19Z"/>
      <path class="cls-2" d="M591.22,25.7c.02-1.74,3.53-2.78,4.8-2.21l1.56,24.61c1.27,1.95,7.28,3.36,9.15,3.19.75-.07,2.04-.9,2.04-2.21l-.08-21.35c0-2.2-.95-3.79-2.49-5.18l-14.58-13.18c-.13-2.7-.27-5.53.79-8.01.39-.91,2.09.35,2.6.86l16.74,16.54,5.35-1.11c1.05,2.27-1.35,3.74-1.37,5.4l-.29,26.43-13.34,9.19c-3.99-3.53-8.19-5.13-13.09-6.13l1.89-4.24.29-22.6Z"/>
      <path class="cls-2" d="M447.76,58.28c-7.32,3.49-2.36,9.42-5.21,12.78-.67.79-3.47,1.52-4.05.27-1.77-3.83-.61-9.14,2.31-12.26,6.75-7.22,23.12-9.55,31.26-2.17l8.49-5.29.09-17.56c.01-2.5-2.91-3.45-3.9-5.13-.25-4.18,6.21-6.31,3.7-10.71l-7.44-13.08c1.9-1.89,5.69-2.83,7.5-1.5l7.66,13.82-6.56,9.46c.25,1.61,2.97,3.42,4.31,4.13,2.7,1.44,2.34,3.26,2.28,5.98l-.37,15.91-19.47,9.85-6.51-3.86c-4.48-2.65-9.37-2.88-14.07-.64Z"/>
      <path class="cls-2" d="M535.84,57.84c-2.08,2.46-6.73-5.57-16.29-6.08l2.07-4.97.33-23.16,9.73-5.81c4.27,2.4,8.37,4.08,13.34,5.34l.07,26.64c-3.51,2.65-6.54,4.84-9.25,8.04ZM537.81,50.25l.17-22.6c.02-2.14-6.87-4.06-8.53-3.39-.79.31-1.61,1.41-1.6,2.65l.21,21.2c1.96,2.25,6.7,3.35,9.74,2.14Z"/>
      <path class="cls-2" d="M571.02,56.75c-4.99,4.28-5.32-4-17.18-4.88-1.05-1.81,1.51-2.87,1.53-3.74l.64-24.48,9.63-5.87c4.31,2.32,8.32,4.17,13.43,5.31l.2,26.57-8.25,7.08ZM571.84,50.29l.2-22.9c-1.14-2.51-7.47-3.78-8.63-3.1-.64.38-1.56,1.55-1.55,2.72l.19,21.05c2.03,2.21,6.53,3.42,9.79,2.22Z"/>
      <path class="cls-2" d="M438.94,47.54c-1.85-.89-.11-5.32,6.02-8.11,2.49-1.13,3.35-3.53,2.38-5.52-2.26-4.67-6.35-.67-9.42-1.86-.25-3.67,3.62-6.25,6.98-7.14,3.8-1.01,2-6.97,5.66-14.53-3.1-.23-5.61-.33-8.08-1.96l-4.92,3.21c-1.42-2.16-.76-4.59.75-6.71,1.16-1.64,3.81-2.82,6.38-1.78,6.84,2.77,11.48-2.48,13.99.29,2.11,2.33-4.72,7.17-4.77,14.27l-.24,28.03c0,1.07-.77,1.96-1.24,2.37-.77.66-2.41.57-3.19-.37-3.94-4.72-8.67.59-10.3-.19Z"/>
      <path class="cls-2" d="M336.5,47.54c-1.86-.91-.09-5.34,6.02-8.11,2.49-1.13,3.35-3.53,2.38-5.52-2.26-4.67-6.35-.67-9.42-1.86-.25-3.67,3.62-6.25,6.98-7.14,3.8-1.01,2-6.97,5.66-14.53-3.1-.23-5.61-.33-8.08-1.96l-4.92,3.21c-1.42-2.16-.76-4.59.75-6.71,1.16-1.64,3.81-2.82,6.38-1.78,6.84,2.77,11.48-2.48,13.99.29,2.11,2.33-4.72,7.17-4.77,14.27l-.24,28.03c0,1.06-.78,1.97-1.24,2.37-.71.61-2.42.58-3.2-.37-3.88-4.73-8.69.59-10.28-.19Z"/>
      <path class="cls-2" d="M153.13,25.72c-1.54,7.6-.56,14.95-.69,22.74-.04,2.32,3.08,3.49,4.64,3.88,1.97.49,4.25-1.27,7.69-3.4.61-.38,2.12,1.29,1.39,1.78l-11.53,7.77c-3.83-2.21-7.12-3.46-11.17-4.46,1.98-3.54,2.41-6.65,2.45-10.27l.29-21.04,9.06-5.36,10.06,9.38c1.21,1.13.75,3.57-.18,4.72l-5.18,6.39c-.54.66-1.54.86-2.1.49-1.99-1.33,2.84-4.84,1.76-6.57-1.46-2.34-2.64-4.18-6.49-6.05Z"/>
      <path class="cls-1" d="M286.89,58.55l-10.81-5.52c2.48-2.37,3.35-4.12,3.34-6.98l-.12-32.96c-.02-4.3-5.21-6.22-4.68-8.7.12-.59,1.15-1.35,2.1-1.02,5.09,1.74,8.71-2.76,10.78-1.34,1.94,1.33-1.61,3.39-1.61,5.73l.02,42.09c0,1.45,1.18,2.68,2.21,2.98,1.46.42,2.88-1.34,5.33-3.57.63-.57,2.3.58,1.81,1.38-1.92,3.17-5.31,4.77-8.37,7.91Z"/>
      <path class="cls-2" d="M308.78,58.7c-3.85-2.26-6.39-3.91-10.5-5.71,2.32-2.25,3.34-4.09,3.32-6.93l-.22-33.63c-.02-3.48-6.01-6.27-4.21-8.53.44-.55,1.43-.73,2.43-.38,4.21,1.5,8.76-3.31,10.17-1.38,1.32,1.81-1.81,3.08-1.8,6.36l.08,41.35c0,1.45,1.31,2.72,2.37,2.98,1.53.38,2.67-1.5,5.34-3.61.57-.45,2.29.94,1.71,1.48l-8.69,8Z"/>
      <path class="cls-2" d="M99.52,28.09l.29,20.98c.03,2.04,3.41,3.1,4.89,3.35,3.17.53,5.96-4.44,8.34-3.22.56.29.72,1.6-.24,2.23l-10.78,7.02c-3.85-1.82-7.08-3.5-11.3-4.38,1.71-3.25,2.2-5.69,2.28-8.78l.55-22.83,9.12-5.04,9.37,8.65c1.53,1.42,1.81,3.56.46,5.18l-5.91,7.08c-.58.69-1.62.05-1.75-.33-.81-2.27,3.15-4.37,1.95-6.38-1.35-2.25-3.39-4.16-5.58-5.64-.41-.27-1.69,1.17-1.68,2.11Z"/>
      <path class="cls-2" d="M403,28.09l.29,20.98c.03,2.04,3.41,3.1,4.94,3.35,3.1.51,5.96-4.45,8.28-3.24.57.3.73,1.61-.23,2.24l-10.78,7.02c-3.85-1.82-7.08-3.5-11.3-4.38,1.71-3.25,2.2-5.69,2.28-8.78l.55-22.83,9.12-5.04,9.37,8.65c1.53,1.42,1.81,3.56.46,5.18l-5.91,7.08c-.58.69-1.62.05-1.75-.33-.82-2.25,3.15-4.37,1.95-6.39-1.35-2.25-3.39-4.16-5.58-5.64-.41-.27-1.69,1.17-1.68,2.11Z"/>
      <path class="cls-2" d="M193.82,37.17c-3.77-4.21-8.86-1.49-10.2-3.34,3.89-4.68,13.07-1.2,12.25-6.89-1.25-8.68-3.6-21.45-10.69-21.41-3.12.02-4.59,3.06-7.26,5-.74-5.96,4.81-11.97,10.97-10.21,12.9,3.68,18.75,34.92,4.24,56.56-.86,1.28-1.97,2.09-3.48,1.3,3.18-7.35,8.21-16.49,4.18-21Z"/>
      <path class="cls-2" d="M508.8,58.6l-10.71-5.58c2.25-2.17,3.39-3.88,3.39-6.51l-.07-33.12c0-4.28-5.05-6.5-4.76-8.93s4.34.98,9.67-2.18c1.25-.74,3.53-1.07,3.75.96l-2.13,3.8-.05,42.78c0,1.42,1.14,2.62,2.13,2.96,1.28.45,2.36-.94,3.49-1.91l1.83-1.56c.73-.63,2.46.45,1.89,1.37-1.94,3.15-5.31,4.83-8.42,7.92Z"/>
      <path class="cls-2" d="M34.87,52.14c9.06-1.35,15.57-7.01,17.3-6.58,2.93.73-7.11,10.53-19,12.41-9.47,1.49-19.67-2.45-25.1-10.45-8.96-13.2-.54-30.94,3.37-30.27,2.05.35-4.19,9.8-2.47,17.98,2.43,11.61,14.28,18.63,25.89,16.9Z"/>
      <path class="cls-1" d="M221.74,52.62c1.41-2.61,5.87-.6,7.94-.64,2.67-.06,4.23-2.57,5.48-4.51,7.22-11.15,8.28-24.87,3.96-37.37-1.48-4.27-5.72-1.56-7.75-1.95-2.91-.56,3.3-5.44,10.05-8.02,10.96,15.92,5.46,34.8-4.5,50.6-3.53,5.6-10.16,10.37-13.6,7.64-1.1-.88-2.7-3.67-1.58-5.75Z"/>
      <path class="cls-2" d="M127.42,49.41c0,1.69,1.26,2.85,2.2,3.25,1.26.55,3.3-1.24,5.29-3.42.56-.61,2.66.53,2.02,1.39-2.36,3.19-5.72,5.33-8.84,7.94-3.46-2.17-6.31-3.9-10.29-5.56,2.47-2.49,3.47-4.61,3.45-7.72l-.14-17.49c0-1.24-.5-2.42-.94-3.32s-2.55-1.03-3.76-1.56c.03-2.39,3.43-4.19,5.71-5.1l5.92,5.76,4.76-5.97c2.52,1.82,4.15,4.32,5.74,7.06-1.42,2.56-2.79,4.43-4.92,6.69l-3.27-4.38c-.44-.59-1.31-.96-1.78-.84-.42.11-1.17.83-1.17,1.61v21.66Z"/>
      <path class="cls-2" d="M204.02,52.44c1.47-1.17,5.78-.58,7.2-2.82,7.68-12.19,8.12-27.92,2.63-41.06-1.98-4.74-7.38,1.31-7.2-1.95.03-.53.26-1.32,1.03-1.76L215.82.1c11.91,16.86,9.42,32.52-1.21,49.2-1.32,2.07-.95,4.11,0,6.61-3.02,1.21-5.53,2.03-8.66,2.48-.99-1.36-2.69-3.57-1.94-5.95Z"/>
      <path class="cls-1" d="M269.76,54.32c-2.34,1.26-5.01,3.24-7.77,3.54-2.2.24-4.73-2.41-6-4.06,1.77-2.3,2.7-4.19,2.64-6.98l-.43-19.84-3.87-4.13c.78-1.98,3.77-4.81,6.21-4.44,2.58.39,4.85,2.93,6.6,4.61l-2.22,5.31.1,21.56c0,.84.41,1.76.67,2.23.89,1.63,4.37-.24,4.07,2.2Z"/>
      <path class="cls-1" d="M465.84,21.21c-1.13,8.49-3.35,26.67-6.16,26.72-.72.01-1.64-.8-1.39-1.9l1.92-8.36v-18.46c0-8.29,6.3-14.51,8.49-12.73,1.21.98-1.71,6.2-2.85,14.72Z"/>
      <path class="cls-1" d="M263.2,12.93c-1.04.87-2.29-.36-1.85-1.25l3.43-6.79c.88-1.74,5.54-.55,4.95,1.15-.99,2.83-4.41,4.77-6.53,6.89Z"/>
      <g>
        <path class="cls-2" d="M345.32,58.28c-7.31,3.48-2.36,9.41-5.21,12.78-.66.78-3.47,1.52-4.05.27-1.77-3.83-.61-9.14,2.31-12.26,6.75-7.22,23.12-9.55,31.26-2.17l8.49-5.29.09-17.55c.01-2.52-2.93-3.44-3.89-5.14-.3-4.14,6.2-6.29,3.69-10.71l-7.44-13.08c1.9-1.89,5.69-2.83,7.5-1.5l7.66,13.82-6.56,9.46c.25,1.61,2.97,3.42,4.31,4.13,2.7,1.44,2.34,3.26,2.28,5.98l-.37,15.91-19.47,9.85-6.51-3.86c-4.48-2.65-9.37-2.88-14.07-.64Z"/>
        <path class="cls-1" d="M363.39,21.21c-1.13,8.49-3.34,26.66-6.17,26.72-.71.01-1.64-.8-1.38-1.9l1.92-8.36v-18.46c0-8.28,6.29-14.52,8.5-12.72,1.19.97-1.73,6.21-2.86,14.72Z"/>
      </g>
    </g>
  </g>
</svg>